<svg width="60" height="91" viewBox="0 0 60 91" fill="none" xmlns="http://www.w3.org/2000/svg">
<rect width="60" height="91" rx="5" fill="#4DB8CA" fill-opacity="0.1"/>
<path d="M39.6113 25.5267H34.8476V14.4267C34.8476 11.8367 33.4447 11.3126 31.7334 13.2551L30.5001 14.658L20.063 26.5288C18.6293 28.1476 19.2305 29.4734 21.3888 29.4734H26.1526V40.5734C26.1526 43.1634 27.5555 43.6876 29.2668 41.7451L30.5001 40.3422L40.9372 28.4713C42.3709 26.8526 41.7697 25.5267 39.6113 25.5267Z" fill="#4DB8CA"/>
<path d="M22.4365 63.708L23.1685 66H24.7525L22.1245 57.912H20.2405L17.6485 66H19.1725L19.8685 63.708H22.4365ZM20.1085 62.592L20.7325 60.6C20.8765 60.12 20.9965 59.556 21.1165 59.088H21.1405C21.2605 59.556 21.3925 60.108 21.5485 60.6L22.1845 62.592H20.1085ZM30.8853 60.156H29.4093V63.684C29.4093 63.852 29.3733 64.008 29.3253 64.14C29.1693 64.512 28.7853 64.932 28.1973 64.932C27.4173 64.932 27.1053 64.308 27.1053 63.336V60.156H25.6293V63.588C25.6293 65.496 26.6013 66.132 27.6693 66.132C28.7133 66.132 29.2893 65.532 29.5413 65.112H29.5653L29.6373 66H30.9333C30.9093 65.52 30.8853 64.944 30.8853 64.248V60.156ZM32.7374 58.836V60.156H31.8974V61.26H32.7374V64.008C32.7374 64.776 32.8814 65.304 33.1934 65.64C33.4694 65.94 33.9254 66.12 34.4654 66.12C34.9334 66.12 35.3174 66.06 35.5334 65.976L35.5094 64.848C35.3774 64.884 35.1854 64.92 34.9334 64.92C34.3694 64.92 34.1774 64.548 34.1774 63.84V61.26H35.5814V60.156H34.1774V58.488L32.7374 58.836ZM39.2741 60.024C37.5101 60.024 36.2501 61.2 36.2501 63.12C36.2501 64.992 37.5221 66.132 39.1781 66.132C40.6661 66.132 42.1781 65.172 42.1781 63.024C42.1781 61.248 41.0141 60.024 39.2741 60.024ZM39.2381 61.104C40.2461 61.104 40.6541 62.148 40.6541 63.06C40.6541 64.236 40.0661 65.064 39.2261 65.064C38.3261 65.064 37.7741 64.212 37.7741 63.084C37.7741 62.112 38.1941 61.104 39.2381 61.104ZM18.1697 79.616C18.6137 79.88 19.5017 80.12 20.3537 80.12C22.4417 80.12 23.4257 78.992 23.4257 77.696C23.4257 76.532 22.7417 75.824 21.3377 75.296C20.2577 74.876 19.7897 74.588 19.7897 73.964C19.7897 73.496 20.1977 72.992 21.1337 72.992C21.8897 72.992 22.4537 73.22 22.7417 73.376L23.1017 72.188C22.6817 71.972 22.0337 71.78 21.1577 71.78C19.4057 71.78 18.3017 72.788 18.3017 74.108C18.3017 75.272 19.1537 75.98 20.4857 76.46C21.5177 76.832 21.9257 77.192 21.9257 77.804C21.9257 78.464 21.3977 78.908 20.4497 78.908C19.6937 78.908 18.9737 78.668 18.4937 78.392L18.1697 79.616ZM28.8547 78.728C28.5667 78.848 28.2067 78.956 27.6907 78.956C26.6827 78.956 25.9027 78.272 25.9027 77.072C25.8907 76.004 26.5627 75.176 27.6907 75.176C28.2187 75.176 28.5667 75.296 28.8067 75.404L29.0707 74.3C28.7347 74.144 28.1827 74.024 27.6427 74.024C25.5907 74.024 24.3907 75.392 24.3907 77.144C24.3907 78.956 25.5787 80.12 27.4027 80.12C28.1347 80.12 28.7467 79.964 29.0587 79.82L28.8547 78.728ZM34.7733 80C34.7133 79.64 34.6893 79.124 34.6893 78.596V76.484C34.6893 75.212 34.1493 74.024 32.2773 74.024C31.3533 74.024 30.5973 74.276 30.1653 74.54L30.4533 75.5C30.8493 75.248 31.4493 75.068 32.0253 75.068C33.0573 75.068 33.2133 75.704 33.2133 76.088V76.184C31.0533 76.172 29.7453 76.916 29.7453 78.392C29.7453 79.28 30.4053 80.132 31.5813 80.132C32.3373 80.132 32.9493 79.808 33.3093 79.352H33.3453L33.4413 80H34.7733ZM33.2493 77.948C33.2493 78.044 33.2373 78.164 33.2013 78.272C33.0693 78.692 32.6373 79.076 32.0493 79.076C31.5813 79.076 31.2093 78.812 31.2093 78.236C31.2093 77.348 32.2053 77.12 33.2493 77.144V77.948ZM36.2471 80H37.7351V76.568C37.7351 76.4 37.7471 76.22 37.7951 76.088C37.9511 75.644 38.3591 75.224 38.9471 75.224C39.7511 75.224 40.0631 75.86 40.0631 76.7V80H41.5391V76.532C41.5391 74.684 40.4831 74.024 39.4631 74.024C38.4911 74.024 37.8551 74.576 37.6031 75.032H37.5671L37.4951 74.156H36.1991C36.2351 74.66 36.2471 75.224 36.2471 75.896V80Z" fill="#4DB8CA"/>
</svg>
