<svg width="224" height="290" viewBox="0 0 224 290" fill="none" xmlns="http://www.w3.org/2000/svg">
<path opacity="0.17" d="M2.82682 222.402L118.939 288.689C120.417 289.545 122.093 289.997 123.801 290C125.508 290.003 127.187 289.558 128.668 288.708L217.66 237.645C220.544 235.992 220.552 231.835 217.675 230.169L101.98 164.124C100.649 163.354 99.1388 162.947 97.6011 162.944C96.0634 162.941 94.552 163.342 93.2182 164.108L2.83763 215.965C2.27158 216.29 1.8011 216.758 1.47357 217.323C1.14604 217.887 0.973025 218.528 0.971929 219.181C0.970833 219.833 1.1417 220.475 1.46733 221.04C1.79296 221.606 2.26186 222.076 2.82682 222.402Z" fill="url(#paint0_linear_2_1317)"/>
<path d="M219.828 209.491H209.644L101.978 148.093C100.647 147.323 99.1378 146.916 97.6004 146.914C96.063 146.911 94.5518 147.312 93.2182 148.077L10.0707 195.785H0.9729V203.588L1.02965 203.619C1.09201 204.187 1.2872 204.732 1.59941 205.21C1.91162 205.689 2.33209 206.087 2.82678 206.373L118.939 272.66C120.417 273.515 122.093 273.967 123.801 273.97C125.508 273.973 127.187 273.527 128.668 272.677L217.661 221.615C219.282 220.682 219.958 218.958 219.76 217.33L219.828 217.293V209.491Z" fill="url(#paint1_linear_2_1317)"/>
<path d="M219.828 208.817H209.644L101.978 147.417C100.647 146.648 99.1376 146.242 97.6004 146.239C96.0632 146.236 94.5521 146.637 93.2182 147.401L10.0707 195.11H0.9729V202.912L1.02965 202.943C1.09201 203.511 1.2872 204.056 1.59941 204.535C1.91162 205.013 2.33209 205.411 2.82678 205.697L118.939 271.984C120.417 272.839 122.093 273.291 123.801 273.294C125.508 273.297 127.187 272.852 128.668 272.002L217.661 220.939C219.282 220.007 219.958 218.282 219.76 216.654L219.828 216.619V208.817Z" fill="url(#paint2_linear_2_1317)"/>
<path d="M2.82682 197.894L118.939 264.178C120.417 265.033 122.093 265.485 123.801 265.489C125.508 265.492 127.187 265.047 128.668 264.197L217.66 213.134C220.544 211.48 220.552 207.324 217.675 205.658L101.98 139.613C100.649 138.842 99.1388 138.435 97.6011 138.433C96.0634 138.43 94.552 138.831 93.2182 139.596L2.83763 191.456C2.27158 191.781 1.8011 192.249 1.47357 192.814C1.14604 193.378 0.973025 194.019 0.971929 194.672C0.970833 195.325 1.1417 195.966 1.46733 196.532C1.79296 197.097 2.26186 197.567 2.82682 197.894Z" fill="url(#paint3_linear_2_1317)"/>
<path d="M217.66 212.156L128.667 263.217C127.186 264.067 125.508 264.513 123.801 264.51C122.093 264.507 120.416 264.055 118.939 263.2L2.82661 196.918C2.33594 196.635 1.91829 196.241 1.60698 195.767C1.29566 195.294 1.09929 194.754 1.03354 194.191C0.927623 194.917 1.04188 195.658 1.36155 196.318C1.68121 196.978 2.19157 197.527 2.82661 197.894L118.939 264.178C120.417 265.033 122.093 265.485 123.8 265.488C125.508 265.491 127.186 265.046 128.667 264.197L217.66 213.134C219.268 212.213 219.948 210.517 219.767 208.905C219.7 209.575 219.475 210.22 219.108 210.786C218.742 211.352 218.245 211.821 217.66 212.156Z" fill="white"/>
<path d="M128.41 135.919L180.093 169.99C182.021 171.096 189.146 166.118 189.146 163.896V39.4993C189.146 37.6335 188.654 35.8008 187.719 34.186C186.784 32.5713 185.44 31.2319 183.822 30.3029L131.665 0.363832C129.157 -1.07522 121.386 2.02584 121.386 4.91881L124.024 128.333C124.023 129.871 124.428 131.383 125.198 132.715C125.968 134.046 127.076 135.152 128.41 135.919Z" fill="url(#paint4_linear_2_1317)"/>
<path d="M124.63 138.379L179.022 169.6C179.462 169.853 179.96 169.986 180.468 169.985C180.975 169.984 181.473 169.85 181.911 169.596C182.35 169.342 182.715 168.977 182.968 168.537C183.221 168.098 183.354 167.6 183.354 167.093V42.6976C183.354 40.8317 182.862 38.9989 181.927 37.3842C180.992 35.7695 179.647 34.43 178.029 33.5011L125.872 3.56344C125.3 3.23506 124.652 3.06286 123.992 3.06412C123.332 3.06539 122.685 3.24006 122.114 3.57062C121.543 3.90119 121.069 4.37603 120.74 4.94751C120.41 5.519 120.237 6.16704 120.237 6.82664V130.795C120.238 132.334 120.644 133.845 121.415 135.177C122.187 136.508 123.296 137.613 124.63 138.379Z" fill="url(#paint5_linear_2_1317)"/>
<path d="M126.179 135.683C125.32 135.188 124.606 134.476 124.11 133.618C123.613 132.76 123.351 131.786 123.349 130.795V6.82659C123.351 6.65261 123.421 6.48626 123.544 6.36323C123.667 6.2402 123.833 6.17031 124.007 6.16855C124.12 6.17024 124.23 6.20196 124.326 6.26043L176.483 36.1981C177.626 36.8562 178.575 37.8032 179.235 38.944C179.896 40.0848 180.244 41.3793 180.246 42.6975V166.716L126.179 135.683Z" fill="url(#paint6_linear_2_1317)"/>
<path d="M178.029 33.5011L125.872 3.56341C125.396 3.28942 124.866 3.12514 124.319 3.08259C123.772 3.04004 123.222 3.1203 122.71 3.31749C123.184 3.18799 123.679 3.15404 124.166 3.2176C124.653 3.28116 125.123 3.44097 125.548 3.68773L177.705 33.6254C179.323 34.5541 180.668 35.8935 181.603 37.5083C182.538 39.123 183.03 40.9559 183.03 42.8219V167.218C183.03 167.797 182.855 168.362 182.527 168.839C182.199 169.315 181.734 169.681 181.193 169.888C181.813 169.728 182.361 169.367 182.753 168.861C183.144 168.355 183.356 167.734 183.355 167.094V42.6976C183.355 40.8316 182.863 38.9986 181.927 37.3839C180.992 35.7692 179.647 34.4298 178.029 33.5011Z" fill="white"/>
<path d="M204.488 135.133L208.443 130.91L223.226 139.579V181.166L181.707 157.53V121.867L204.488 135.133Z" fill="#D3782D"/>
<path d="M202.336 136.528L206.291 132.304L221.075 140.975V182.56L179.556 158.926V123.262L202.336 136.528Z" fill="url(#paint7_linear_2_1317)"/>
<path d="M181.707 121.867L179.556 123.262L202.336 136.528L203.94 134.815L181.707 121.867Z" fill="#F7C684"/>
<path d="M218.832 175.882V151.621C218.832 151.178 218.716 150.743 218.495 150.36C218.274 149.976 217.956 149.657 217.573 149.435L182.763 129.23C182.573 129.12 182.358 129.062 182.138 129.062C181.919 129.061 181.704 129.119 181.514 129.229C181.324 129.338 181.166 129.496 181.057 129.686C180.948 129.876 180.89 130.092 180.891 130.311V149.266L218.832 175.882Z" fill="#FFFEFF"/>
<path d="M199.817 144.992L214.057 153.266C214.309 153.412 214.515 153.325 214.515 153.074C214.5 152.926 214.451 152.783 214.372 152.657C214.292 152.532 214.184 152.426 214.057 152.35L199.817 144.076C199.565 143.93 199.359 144.017 199.359 144.268C199.374 144.416 199.423 144.559 199.503 144.684C199.582 144.81 199.69 144.915 199.817 144.992Z" fill="#CECAC8"/>
<path d="M183.865 138.275L214.057 155.81C214.31 155.957 214.515 155.871 214.515 155.618C214.5 155.47 214.451 155.327 214.371 155.202C214.292 155.076 214.184 154.971 214.057 154.894L183.865 137.353C183.612 137.208 183.407 137.294 183.407 137.545C183.421 137.694 183.469 137.838 183.549 137.965C183.629 138.092 183.737 138.198 183.865 138.275Z" fill="#CECAC8"/>
<path d="M183.865 140.826L214.057 158.366C214.31 158.512 214.515 158.426 214.515 158.175C214.5 158.027 214.451 157.884 214.372 157.758C214.292 157.633 214.184 157.527 214.057 157.45L183.865 139.91C183.612 139.763 183.407 139.849 183.407 140.102C183.422 140.25 183.471 140.392 183.551 140.518C183.63 140.644 183.738 140.749 183.865 140.826Z" fill="#CECAC8"/>
<path d="M183.865 143.378L214.057 160.92C214.31 161.066 214.515 160.98 214.515 160.728C214.5 160.58 214.451 160.437 214.372 160.312C214.292 160.186 214.184 160.081 214.057 160.004L183.865 142.46C183.612 142.314 183.407 142.4 183.407 142.652C183.421 142.8 183.47 142.943 183.55 143.069C183.629 143.196 183.737 143.302 183.865 143.378Z" fill="#CECAC8"/>
<path d="M183.865 145.927L214.057 163.467C214.31 163.615 214.515 163.528 214.515 163.275C214.5 163.127 214.451 162.985 214.371 162.859C214.292 162.733 214.184 162.628 214.057 162.551L183.865 145.011C183.612 144.865 183.407 144.951 183.407 145.203C183.422 145.351 183.471 145.493 183.55 145.619C183.63 145.745 183.738 145.85 183.865 145.927Z" fill="#CECAC8"/>
<path d="M221.075 182.56L206.967 157.477L165.448 133.838L179.556 158.92L221.075 182.56Z" fill="url(#paint8_linear_2_1317)"/>
<path d="M208.197 156.644L206.967 157.477L165.448 133.838L166.614 133.02L208.197 156.644Z" fill="#F7C684"/>
<path d="M187.981 100.75C187.421 100.428 186.956 99.9634 186.632 99.4041C186.308 98.8448 186.137 98.2102 186.137 97.5639L183.939 64.4589C183.939 64.1387 186.431 63.4698 186.565 63.4698C186.638 63.4704 186.71 63.491 186.773 63.5293L220.774 83.0464C221.517 83.4753 222.134 84.0921 222.564 84.8349C222.994 85.5776 223.221 86.4203 223.222 87.2784V117.705C223.222 119.162 219.835 121.124 218.571 120.398L187.981 100.75Z" fill="url(#paint9_linear_2_1317)"/>
<path d="M185.708 101.546C185.148 101.223 184.683 100.759 184.359 100.199C184.035 99.6399 183.865 99.0051 183.864 98.3587V64.6903C183.865 64.5769 183.91 64.4684 183.99 64.3881C184.07 64.3078 184.179 64.262 184.292 64.2606C184.366 64.2616 184.438 64.2826 184.5 64.3214L218.501 83.8371C219.246 84.2662 219.864 84.8837 220.295 85.6274C220.725 86.3712 220.952 87.2152 220.954 88.0746V118.505C220.954 118.838 220.868 119.165 220.702 119.453C220.536 119.741 220.297 119.981 220.01 120.147C219.722 120.314 219.396 120.402 219.063 120.402C218.731 120.402 218.404 120.315 218.116 120.149L185.708 101.546Z" fill="url(#paint10_linear_2_1317)"/>
<path d="M218.636 88.0743V117.769L186.862 99.5273C186.656 99.4083 186.485 99.2371 186.366 99.031C186.248 98.8248 186.186 98.5909 186.186 98.3531V67.9654L217.344 85.8556C217.735 86.0795 218.061 86.4024 218.287 86.7919C218.514 87.1813 218.634 87.6236 218.636 88.0743Z" fill="white"/>
<path d="M218.636 88.0743V102.214L209.459 87.7554L199.897 96.991L192.3 86.2799L186.188 92.332V67.9654L217.346 85.8556C217.737 86.0797 218.062 86.4027 218.288 86.7921C218.515 87.1816 218.635 87.6238 218.636 88.0743Z" fill="url(#paint11_linear_2_1317)"/>
<path d="M196.264 83.7666C197.405 82.9056 197.104 80.5814 195.59 78.5755C194.077 76.5696 191.925 75.6415 190.784 76.5026C189.642 77.3637 189.944 79.6879 191.457 81.6938C192.97 83.6997 195.122 84.6277 196.264 83.7666Z" fill="white"/>
<path d="M134.454 64.4848C133.83 64.1255 133.311 63.6083 132.951 62.9852C132.59 62.3622 132.399 61.6551 132.398 60.9351L129.95 24.0467C129.95 23.69 132.725 22.9441 132.875 22.9441C132.957 22.9453 133.037 22.9681 133.108 23.0103L170.985 44.7528C171.815 45.2305 172.505 45.9181 172.984 46.7466C173.464 47.5751 173.717 48.5153 173.719 49.4727V83.3843C173.719 85.0058 169.945 87.1921 168.537 86.3841L134.454 64.4848Z" fill="url(#paint12_linear_2_1317)"/>
<path d="M131.921 65.3711C131.298 65.0117 130.779 64.4945 130.419 63.8715C130.058 63.2484 129.867 62.5414 129.866 61.8214V24.3114C129.867 24.1849 129.918 24.0638 130.007 23.9744C130.097 23.8849 130.218 23.8342 130.345 23.8331C130.426 23.8348 130.506 23.8581 130.576 23.9007L168.453 45.6432C169.283 46.1209 169.972 46.8085 170.452 47.637C170.932 48.4655 171.185 49.4056 171.187 50.363V84.2653C171.187 84.6353 171.089 84.9988 170.904 85.3194C170.719 85.6399 170.453 85.9062 170.133 86.0915C169.813 86.2768 169.449 86.3747 169.079 86.3753C168.709 86.3759 168.346 86.2791 168.025 86.0948L131.921 65.3711Z" fill="url(#paint13_linear_2_1317)"/>
<g opacity="0.49">
<path opacity="0.49" d="M138.842 39.656C138.45 39.43 138.125 39.105 137.898 38.7134C137.671 38.3219 137.551 37.8776 137.551 37.4252V36.4496C137.552 36.3703 137.584 36.2946 137.64 36.2386C137.696 36.1826 137.771 36.1506 137.851 36.1496C137.902 36.1502 137.952 36.1647 137.996 36.1915L161.778 49.8469C162.299 50.1467 162.732 50.5783 163.033 51.0985C163.334 51.6187 163.493 52.209 163.494 52.8102V51.5211C163.494 51.7535 163.433 51.9817 163.317 52.183C163.201 52.3843 163.034 52.5516 162.833 52.6681C162.632 52.7845 162.404 52.8461 162.171 52.8466C161.939 52.8471 161.711 52.7866 161.509 52.671L138.842 39.656Z" fill="white"/>
<path opacity="0.49" d="M138.842 46.7729C138.45 46.5473 138.124 46.2226 137.898 45.8312C137.671 45.4398 137.551 44.9957 137.551 44.5434V43.5678C137.551 43.4885 137.583 43.4126 137.639 43.3565C137.695 43.3004 137.771 43.2685 137.851 43.2678C137.902 43.2684 137.952 43.2829 137.996 43.3097L161.778 56.9638C162.299 57.264 162.732 57.6959 163.033 58.2163C163.334 58.7367 163.493 59.3271 163.494 59.9284V58.638C163.494 58.8705 163.434 59.099 163.318 59.3006C163.202 59.5021 163.035 59.6696 162.834 59.7861C162.632 59.9027 162.404 59.9642 162.172 59.9645C161.939 59.9648 161.711 59.9039 161.509 59.7879L138.842 46.7729Z" fill="white"/>
<path opacity="0.49" d="M138.842 53.8912C138.451 53.6653 138.125 53.3404 137.898 52.9491C137.672 52.5579 137.552 52.1139 137.551 51.6616V50.6847C137.552 50.6055 137.584 50.5298 137.64 50.4738C137.696 50.4177 137.771 50.3858 137.851 50.3847C137.902 50.3853 137.952 50.3998 137.996 50.4266L161.778 64.0821C162.299 64.382 162.732 64.814 163.033 65.3344C163.335 65.8548 163.493 66.4454 163.494 67.0467V65.7563C163.494 65.9886 163.433 66.2169 163.317 66.4182C163.201 66.6195 163.034 66.7868 162.833 66.9032C162.632 67.0197 162.404 67.0813 162.171 67.0818C161.939 67.0823 161.711 67.0217 161.509 66.9062L138.842 53.8912Z" fill="white"/>
<path opacity="0.49" d="M138.842 61.0081C138.45 60.7825 138.124 60.4577 137.898 60.0664C137.671 59.675 137.551 59.2309 137.551 58.7786V57.803C137.552 57.7238 137.584 57.6481 137.64 57.592C137.696 57.536 137.771 57.5041 137.851 57.503C137.902 57.5036 137.952 57.5181 137.996 57.5449L150.797 65.1428C151.318 65.443 151.75 65.8749 152.052 66.3953C152.353 66.9157 152.512 67.5061 152.513 68.1074V66.817C152.513 67.0493 152.452 67.2776 152.336 67.4789C152.22 67.6802 152.053 67.8475 151.852 67.964C151.651 68.0804 151.422 68.142 151.19 68.1425C150.958 68.143 150.729 68.0825 150.528 67.9669L138.842 61.0081Z" fill="white"/>
</g>
<path d="M129.589 109.345C128.965 108.986 128.447 108.469 128.086 107.846C127.725 107.223 127.535 106.516 127.534 105.796L125.085 68.9072C125.085 68.5505 127.861 67.8046 128.011 67.8046C128.093 67.8058 128.173 67.8286 128.243 67.8708L166.121 89.6133C166.951 90.091 167.64 90.7786 168.12 91.6071C168.6 92.4356 168.853 93.3758 168.854 94.3332V128.245C168.854 129.866 165.08 132.053 163.672 131.245L129.589 109.345Z" fill="url(#paint14_linear_2_1317)"/>
<path d="M127.057 110.232C126.433 109.872 125.915 109.355 125.554 108.732C125.193 108.109 125.003 107.402 125.002 106.682V69.1722C125.003 69.0456 125.054 68.9246 125.143 68.8351C125.232 68.7456 125.354 68.6949 125.48 68.6938C125.562 68.6956 125.641 68.7189 125.711 68.7614L163.589 90.5039C164.418 90.9816 165.108 91.6692 165.588 92.4977C166.067 93.3262 166.321 94.2663 166.322 95.2237V129.126C166.322 129.496 166.225 129.859 166.04 130.18C165.855 130.501 165.589 130.767 165.269 130.952C164.948 131.137 164.585 131.235 164.215 131.236C163.845 131.236 163.481 131.14 163.16 130.955L127.057 110.232Z" fill="url(#paint15_linear_2_1317)"/>
<g opacity="0.49">
<path opacity="0.49" d="M133.978 84.5168C133.586 84.2908 133.26 83.9657 133.034 83.5742C132.807 83.1826 132.687 82.7384 132.686 82.2859V81.3103C132.687 81.2311 132.719 81.1554 132.775 81.0994C132.831 81.0433 132.907 81.0114 132.986 81.0103C133.038 81.0109 133.088 81.0254 133.132 81.0522L156.914 94.7077C157.435 95.0074 157.868 95.4391 158.169 95.9593C158.47 96.4795 158.629 97.0698 158.63 97.6709V96.3819C158.63 96.6142 158.569 96.8425 158.453 97.0438C158.337 97.2451 158.17 97.4124 157.969 97.5288C157.768 97.6453 157.539 97.7069 157.307 97.7074C157.075 97.7079 156.846 97.6474 156.645 97.5318L133.978 84.5168Z" fill="white"/>
<path opacity="0.49" d="M133.978 91.6338C133.586 91.4082 133.26 91.0835 133.033 90.6921C132.806 90.3007 132.687 89.8566 132.686 89.4043V88.4287C132.687 88.3494 132.719 88.2735 132.775 88.2174C132.831 88.1613 132.907 88.1294 132.986 88.1287C133.038 88.1293 133.088 88.1438 133.132 88.1706L156.913 101.825C157.434 102.125 157.867 102.557 158.168 103.077C158.47 103.598 158.629 104.188 158.629 104.789V103.499C158.63 103.731 158.569 103.96 158.453 104.161C158.337 104.363 158.17 104.53 157.969 104.647C157.768 104.764 157.54 104.825 157.307 104.825C157.075 104.826 156.846 104.765 156.645 104.649L133.978 91.6338Z" fill="white"/>
<path opacity="0.49" d="M133.978 98.7518C133.586 98.526 133.26 98.2011 133.034 97.8098C132.807 97.4185 132.687 96.9745 132.686 96.5223V95.5454C132.687 95.4662 132.719 95.3905 132.775 95.3344C132.831 95.2784 132.907 95.2465 132.986 95.2454C133.038 95.246 133.088 95.2605 133.132 95.2873L156.913 108.943C157.435 109.243 157.868 109.675 158.169 110.195C158.47 110.715 158.629 111.306 158.629 111.907V110.617C158.629 110.849 158.568 111.078 158.452 111.279C158.336 111.48 158.169 111.647 157.968 111.764C157.767 111.88 157.539 111.942 157.307 111.942C157.074 111.943 156.846 111.882 156.645 111.767L133.978 98.7518Z" fill="white"/>
<path opacity="0.49" d="M133.978 105.869C133.586 105.643 133.26 105.318 133.033 104.927C132.806 104.536 132.687 104.092 132.686 103.639V102.664C132.687 102.584 132.719 102.509 132.775 102.453C132.831 102.397 132.907 102.365 132.986 102.364C133.038 102.364 133.088 102.379 133.132 102.406L145.932 110.004C146.453 110.304 146.886 110.736 147.187 111.256C147.488 111.776 147.647 112.367 147.648 112.968V111.678C147.648 111.91 147.587 112.138 147.471 112.34C147.355 112.541 147.188 112.708 146.987 112.825C146.786 112.941 146.558 113.003 146.326 113.003C146.093 113.004 145.865 112.943 145.663 112.828L133.978 105.869Z" fill="white"/>
</g>
<path d="M117.988 41.6234C117.988 32.8053 110.838 21.374 102.021 16.0853C97.4895 13.3693 93.402 12.8113 90.4955 14.1017L90.4793 14.1098C90.1664 14.2484 89.8646 14.4111 89.5767 14.5962L84.2786 17.4527L86.2257 20.2606C86.1102 20.9958 86.0533 21.7391 86.0554 22.4833C86.0554 31.3014 93.2034 42.7328 102.021 48.0214C103.564 48.9699 105.229 49.7031 106.97 50.201L108.591 52.5413L113.03 50.2104C113.672 49.9859 114.276 49.6672 114.824 49.2646C116.812 47.7944 117.988 45.1987 117.988 41.6234Z" fill="url(#paint16_linear_2_1317)"/>
<path d="M110.134 51.687C115.399 47.7683 113.933 36.8874 106.86 27.3839C99.7867 17.8805 89.7844 13.3531 84.5194 17.2719C79.2543 21.1906 80.7202 32.0715 87.7935 41.575C94.8669 51.0785 104.869 55.6058 110.134 51.687Z" fill="url(#paint17_linear_2_1317)"/>
<path d="M55.8285 6.528L2.11467 38.9803C1.47068 39.3563 0.936516 39.8944 0.565463 40.5412C0.19441 41.188 -0.000558804 41.9208 1.20297e-06 42.6665V102.078C1.20297e-06 103.897 4.00773 106.201 5.5792 105.286L56.7244 71.9745C57.2852 71.6479 57.7505 71.1799 58.0739 70.6173C58.3973 70.0547 58.5674 69.417 58.5674 68.7681L61.405 8.76428C61.4036 7.36036 57.0419 5.82402 55.8285 6.528Z" fill="#878AA0"/>
<path d="M58.8093 7.89558L5.09543 40.3479C4.45021 40.7231 3.91465 41.2609 3.54218 41.9077C3.1697 42.5545 2.97333 43.2877 2.97266 44.034V103.446C2.9727 103.861 3.08209 104.268 3.2898 104.627C3.49752 104.986 3.7962 105.284 4.15576 105.491C4.51532 105.698 4.92304 105.806 5.33781 105.805C5.75258 105.804 6.15975 105.694 6.51827 105.485L59.6984 73.3434C60.2589 73.0176 60.7243 72.5506 61.0481 71.989C61.3719 71.4274 61.543 70.7907 61.5442 70.1424V9.47245C61.5448 9.15221 61.4609 8.83748 61.3009 8.56004C61.141 8.2826 60.9106 8.05227 60.6332 7.89231C60.3558 7.73235 60.0411 7.64842 59.7208 7.64899C59.4006 7.64956 59.0861 7.73462 58.8093 7.89558Z" fill="#EFEFEF"/>
<g opacity="0.75">
<path opacity="0.75" d="M54.9976 23.5901V25.2103L25.0518 43.4464V41.8263L54.9976 23.5901Z" fill="#AAADAD"/>
<path opacity="0.75" d="M54.9976 28.264V29.8841L25.0518 48.0607V46.4406L54.9976 28.264Z" fill="#AAADAD"/>
<path opacity="0.75" d="M54.9976 32.938V34.5568L25.0518 52.7348V51.1146L54.9976 32.938Z" fill="#AAADAD"/>
<path opacity="0.75" d="M54.9976 37.6118V39.2305L25.0518 57.4085V55.7884L54.9976 37.6118Z" fill="#AAADAD"/>
</g>
<g opacity="0.75">
<path opacity="0.75" d="M54.9976 50.413V52.0331L14.4541 76.4565V74.8377L54.9976 50.413Z" fill="#AAADAD"/>
<path opacity="0.75" d="M54.9976 55.087V56.7072L10.8113 83.1695V81.5494L54.9976 55.087Z" fill="#AAADAD"/>
<path opacity="0.75" d="M54.9976 59.7608V61.3796L10.8113 87.8433V86.2232L54.9976 59.7608Z" fill="#AAADAD"/>
<path opacity="0.75" d="M54.9976 64.4332V66.0533L10.8113 92.517V90.8969L54.9976 64.4332Z" fill="#AAADAD"/>
</g>
<path d="M8.24658 51.1739V66.7562L22.5398 58.4705V42.8287L8.24658 51.1739Z" fill="#4DB8CA"/>
<g opacity="0.6">
<path opacity="0.02" d="M157.749 225.229C160.68 219.469 150.951 208.639 136.018 201.04C121.085 193.441 106.604 191.951 103.672 197.711C100.741 203.472 110.47 214.302 125.403 221.901C140.336 229.499 154.818 230.99 157.749 225.229Z" fill="#2D2F4F"/>
<path opacity="0.05" d="M157.276 224.987C160.156 219.328 150.597 208.688 135.925 201.222C121.254 193.756 107.026 192.292 104.146 197.951C101.266 203.611 110.825 214.251 125.496 221.716C140.168 229.182 154.396 230.647 157.276 224.987Z" fill="#2D2F4F"/>
<path opacity="0.07" d="M156.802 224.746C159.631 219.187 150.243 208.737 135.833 201.404C121.422 194.071 107.448 192.633 104.619 198.192C101.79 203.751 111.179 214.202 125.589 221.534C139.999 228.867 153.974 230.305 156.802 224.746Z" fill="#2D2F4F"/>
<path opacity="0.09" d="M156.329 224.505C159.106 219.047 149.888 208.786 135.739 201.587C121.591 194.387 107.87 192.975 105.092 198.433C102.315 203.89 111.533 214.151 125.682 221.351C139.831 228.551 153.552 229.963 156.329 224.505Z" fill="#2D2F4F"/>
<path opacity="0.11" d="M155.856 224.265C158.582 218.908 149.534 208.837 135.646 201.77C121.759 194.703 108.291 193.317 105.565 198.674C102.84 204.03 111.888 214.101 125.775 221.168C139.662 228.235 153.13 229.621 155.856 224.265Z" fill="#2D2F4F"/>
<path opacity="0.14" d="M155.383 224.024C158.057 218.768 149.18 208.886 135.554 201.952C121.928 195.018 108.714 193.658 106.039 198.915C103.364 204.171 112.242 214.053 125.868 220.987C139.494 227.92 152.708 229.28 155.383 224.024Z" fill="#2D2F4F"/>
<path opacity="0.16" d="M154.909 223.783C157.532 218.628 148.825 208.936 135.46 202.135C122.096 195.334 109.135 194 106.512 199.155C103.889 204.311 112.596 214.003 125.961 220.804C139.325 227.604 152.286 228.938 154.909 223.783Z" fill="#2D2F4F"/>
<path opacity="0.18" d="M154.436 223.542C157.008 218.487 148.471 208.984 135.368 202.317C122.265 195.649 109.557 194.341 106.985 199.396C104.413 204.451 112.95 213.954 126.053 220.622C139.156 227.289 151.864 228.597 154.436 223.542Z" fill="#2D2F4F"/>
<path opacity="0.2" d="M153.963 223.301C156.483 218.348 148.117 209.034 135.275 202.5C122.433 195.965 109.979 194.683 107.459 199.637C104.938 204.591 113.305 213.904 126.146 220.438C138.988 226.973 151.442 228.255 153.963 223.301Z" fill="#2D2F4F"/>
<path opacity="0.23" d="M153.49 223.06C155.959 218.208 147.762 209.084 135.182 202.683C122.601 196.281 110.401 195.025 107.932 199.878C105.463 204.73 113.659 213.854 126.24 220.255C138.82 226.657 151.02 227.913 153.49 223.06Z" fill="#2D2F4F"/>
<path opacity="0.25" d="M153.016 222.82C155.435 218.067 147.408 209.133 135.089 202.865C122.77 196.596 110.824 195.366 108.405 200.119C105.987 204.871 114.013 213.805 126.332 220.074C138.651 226.342 150.598 227.572 153.016 222.82Z" fill="#2D2F4F"/>
<path opacity="0.27" d="M152.543 222.579C154.909 217.928 147.053 209.183 134.996 203.048C122.938 196.912 111.245 195.709 108.878 200.36C106.511 205.011 114.367 213.755 126.425 219.891C138.483 226.026 150.176 227.23 152.543 222.579Z" fill="#2D2F4F"/>
<path opacity="0.29" d="M152.069 222.338C154.385 217.787 146.7 209.232 134.903 203.23C123.107 197.227 111.667 196.05 109.352 200.6C107.036 205.151 114.721 213.706 126.518 219.709C138.314 225.711 149.754 226.889 152.069 222.338Z" fill="#2D2F4F"/>
<path opacity="0.32" d="M151.596 222.097C153.86 217.648 146.345 209.282 134.81 203.413C123.275 197.543 112.089 196.392 109.825 200.841C107.561 205.291 115.076 213.656 126.611 219.526C138.146 225.395 149.332 226.547 151.596 222.097Z" fill="#2D2F4F"/>
<path opacity="0.34" d="M151.123 221.856C153.336 217.507 145.991 209.331 134.718 203.594C123.444 197.858 112.511 196.733 110.298 201.082C108.085 205.431 115.43 213.607 126.703 219.344C137.977 225.08 148.91 226.205 151.123 221.856Z" fill="#2D2F4F"/>
<path opacity="0.36" d="M150.65 221.615C152.811 217.367 145.637 209.381 134.625 203.777C123.613 198.174 112.933 197.075 110.771 201.323C108.61 205.571 115.784 213.557 126.797 219.161C137.809 224.764 148.488 225.863 150.65 221.615Z" fill="#2D2F4F"/>
<path opacity="0.38" d="M150.176 221.375C152.287 217.228 145.282 209.431 134.531 203.961C123.781 198.49 113.355 197.417 111.245 201.564C109.134 205.711 116.139 213.507 126.89 218.978C137.64 224.449 148.066 225.522 150.176 221.375Z" fill="#2D2F4F"/>
<path opacity="0.41" d="M149.703 221.135C151.762 217.089 144.928 209.481 134.439 204.144C123.95 198.806 113.777 197.759 111.718 201.806C109.659 205.852 116.493 213.46 126.982 218.797C137.472 224.135 147.644 225.182 149.703 221.135Z" fill="#2D2F4F"/>
<path opacity="0.43" d="M149.23 220.893C151.238 216.948 144.574 209.53 134.346 204.325C124.118 199.121 114.199 198.1 112.191 202.045C110.184 205.991 116.848 213.408 127.075 218.613C137.303 223.817 147.222 224.838 149.23 220.893Z" fill="#2D2F4F"/>
<path opacity="0.45" d="M148.757 220.652C150.713 216.807 144.22 209.579 134.253 204.507C124.287 199.436 114.621 198.441 112.665 202.286C110.708 206.131 117.202 213.359 127.168 218.431C137.135 223.503 146.8 224.497 148.757 220.652Z" fill="#2D2F4F"/>
<path opacity="0.47" d="M148.283 220.411C150.189 216.667 143.865 209.629 134.16 204.69C124.455 199.752 115.043 198.783 113.138 202.527C111.233 206.271 117.556 213.309 127.261 218.248C136.966 223.186 146.378 224.155 148.283 220.411Z" fill="#2D2F4F"/>
<path opacity="0.5" d="M147.811 220.171C149.665 216.528 143.511 209.679 134.067 204.873C124.622 200.067 115.463 199.125 113.61 202.767C111.756 206.41 117.91 213.259 127.354 218.065C136.799 222.871 145.957 223.814 147.811 220.171Z" fill="#2D2F4F"/>
<path opacity="0.52" d="M147.338 219.93C149.141 216.388 143.158 209.728 133.975 205.055C124.792 200.382 115.886 199.466 114.083 203.008C112.281 206.55 118.264 213.21 127.447 217.883C136.63 222.556 145.536 223.473 147.338 219.93Z" fill="#2D2F4F"/>
<path opacity="0.54" d="M146.865 219.69C148.616 216.248 142.803 209.778 133.881 205.238C124.96 200.698 116.308 199.808 114.557 203.249C112.806 206.69 118.618 213.16 127.54 217.7C136.462 222.24 145.114 223.131 146.865 219.69Z" fill="#2D2F4F"/>
<path opacity="0.56" d="M146.391 219.45C148.091 216.109 142.449 209.828 133.789 205.421C125.129 201.015 116.73 200.15 115.03 203.491C113.33 206.832 118.972 213.113 127.632 217.52C136.293 221.927 144.691 222.791 146.391 219.45Z" fill="#2D2F4F"/>
<path opacity="0.59" d="M145.918 219.209C147.567 215.969 142.095 209.878 133.696 205.604C125.297 201.331 117.152 200.492 115.503 203.732C113.854 206.972 119.327 213.063 127.726 217.337C136.124 221.61 144.27 222.449 145.918 219.209Z" fill="#2D2F4F"/>
<path opacity="0.61" d="M145.445 218.967C147.042 215.828 141.74 209.926 133.603 205.785C125.465 201.644 117.574 200.832 115.976 203.971C114.379 207.111 119.68 213.012 127.818 217.153C135.955 221.294 143.847 222.106 145.445 218.967Z" fill="#2D2F4F"/>
<path opacity="0.63" d="M144.972 218.726C146.518 215.688 141.386 209.976 133.51 205.968C125.634 201.96 117.996 201.174 116.45 204.212C114.904 207.25 120.035 212.962 127.911 216.97C135.787 220.978 143.426 221.764 144.972 218.726Z" fill="#2D2F4F"/>
<path opacity="0.65" d="M144.498 218.487C145.993 215.55 141.032 210.027 133.417 206.153C125.802 202.278 118.418 201.517 116.923 204.455C115.428 207.392 120.39 212.914 128.005 216.789C135.619 220.664 143.004 221.424 144.498 218.487Z" fill="#2D2F4F"/>
<path opacity="0.68" d="M144.025 218.244C145.469 215.408 140.678 210.075 133.324 206.333C125.971 202.591 118.84 201.857 117.396 204.694C115.953 207.531 120.744 212.864 128.097 216.605C135.45 220.347 142.582 221.081 144.025 218.244Z" fill="#2D2F4F"/>
<path opacity="0.7" d="M143.552 218.004C144.944 215.268 140.323 210.125 133.231 206.516C126.139 202.907 119.261 202.199 117.869 204.935C116.477 207.67 121.098 212.814 128.19 216.422C135.282 220.031 142.16 220.739 143.552 218.004Z" fill="#2D2F4F"/>
</g>
<g opacity="0.6">
<path opacity="0.02" d="M91.4061 203.205C94.3374 197.444 84.6082 186.615 69.6754 179.016C54.7426 171.417 40.2608 169.927 37.3295 175.687C34.3983 181.448 44.1274 192.277 59.0603 199.876C73.9931 207.475 88.4748 208.965 91.4061 203.205Z" fill="#2D2F4F"/>
<path opacity="0.05" d="M90.933 202.964C93.8129 197.305 84.2539 186.665 69.5825 179.199C54.911 171.733 40.6829 170.269 37.803 175.928C34.9232 181.588 44.4822 192.228 59.1536 199.693C73.8251 207.159 88.0532 208.624 90.933 202.964Z" fill="#2D2F4F"/>
<path opacity="0.07" d="M90.4596 202.724C93.2883 197.165 83.8998 186.714 69.4898 179.381C55.0797 172.048 41.1049 170.61 38.2762 176.169C35.4474 181.728 44.836 192.179 59.246 199.512C73.6561 206.844 87.6309 208.282 90.4596 202.724Z" fill="#2D2F4F"/>
<path opacity="0.09" d="M89.9863 202.483C92.7636 197.025 83.5453 186.764 69.3966 179.564C55.2479 172.364 41.5267 170.952 38.7494 176.41C35.9721 181.868 45.1905 192.129 59.3391 199.328C73.4878 206.528 87.209 207.94 89.9863 202.483Z" fill="#2D2F4F"/>
<path opacity="0.11" d="M89.513 202.242C92.2389 196.885 83.1907 186.814 69.3035 179.747C55.4162 172.68 41.9486 171.294 39.2227 176.651C36.4969 182.007 45.545 192.079 59.4323 199.145C73.3196 206.212 86.7872 207.598 89.513 202.242Z" fill="#2D2F4F"/>
<path opacity="0.14" d="M89.0399 202.001C91.7146 196.745 82.837 186.863 69.211 179.929C55.5851 172.995 42.3708 171.635 39.6961 176.892C37.0213 182.148 45.899 192.03 59.5249 198.964C73.1508 205.897 86.3651 207.257 89.0399 202.001Z" fill="#2D2F4F"/>
<path opacity="0.16" d="M88.5666 201.76C91.1899 196.605 82.4824 186.913 69.1179 180.112C55.7534 173.311 42.7926 171.977 40.1693 177.132C37.546 182.288 46.2535 191.98 59.6181 198.781C72.9826 205.581 85.9433 206.915 88.5666 201.76Z" fill="#2D2F4F"/>
<path opacity="0.18" d="M88.0934 201.519C90.6655 196.464 82.1285 186.961 69.0254 180.294C55.9223 173.626 43.2149 172.318 40.6427 177.373C38.0705 182.428 46.6075 191.931 59.7107 198.599C72.8138 205.266 85.5212 206.574 88.0934 201.519Z" fill="#2D2F4F"/>
<path opacity="0.2" d="M87.6201 201.278C90.1408 196.325 81.774 187.011 68.9323 180.477C56.0905 173.942 43.6367 172.66 41.116 177.614C38.5952 182.568 46.9621 191.881 59.8038 198.416C72.6456 204.95 85.0993 206.232 87.6201 201.278Z" fill="#2D2F4F"/>
<path opacity="0.23" d="M87.1468 201.038C89.6161 196.185 81.4195 187.062 68.8391 180.66C56.2587 174.258 44.0586 173.002 41.5892 177.855C39.1199 182.707 47.3166 191.831 59.897 198.233C72.4773 204.634 84.6775 205.89 87.1468 201.038Z" fill="#2D2F4F"/>
<path opacity="0.25" d="M86.6734 200.797C89.0916 196.045 81.0654 187.111 68.7464 180.842C56.4274 174.573 44.4806 173.344 42.0624 178.096C39.6442 182.848 47.6703 191.782 59.9893 198.051C72.3083 204.32 84.2552 205.549 86.6734 200.797Z" fill="#2D2F4F"/>
<path opacity="0.27" d="M86.2001 200.556C88.5668 195.905 80.7109 187.16 68.6533 181.025C56.5957 174.889 44.9024 173.686 42.5356 178.337C40.1689 182.988 48.0249 191.732 60.0825 197.868C72.1401 204.003 83.8333 205.207 86.2001 200.556Z" fill="#2D2F4F"/>
<path opacity="0.29" d="M85.7269 200.315C88.0426 195.764 80.3571 187.209 68.5608 181.207C56.7646 175.204 45.3247 174.027 43.009 178.577C40.6934 183.128 48.3789 191.683 60.1751 197.686C71.9713 203.688 83.4113 204.866 85.7269 200.315Z" fill="#2D2F4F"/>
<path opacity="0.32" d="M85.2536 200.074C87.5178 195.625 80.0025 187.259 68.4676 181.39C56.9328 175.52 45.7465 174.369 43.4823 178.818C41.2181 183.268 48.7334 191.633 60.2682 197.503C71.803 203.372 82.9894 204.524 85.2536 200.074Z" fill="#2D2F4F"/>
<path opacity="0.34" d="M84.7804 199.833C86.9935 195.484 79.6487 187.308 68.3752 181.572C57.1018 175.835 46.1688 174.71 43.9557 179.059C41.7426 183.408 49.0874 191.584 60.3609 197.321C71.6343 203.058 82.5673 204.183 84.7804 199.833Z" fill="#2D2F4F"/>
<path opacity="0.36" d="M84.3071 199.592C86.4687 195.344 79.2941 187.358 68.282 181.754C57.27 176.151 46.5906 175.052 44.4289 179.3C42.2673 183.548 49.4419 191.534 60.454 197.138C71.466 202.741 82.1454 203.84 84.3071 199.592Z" fill="#2D2F4F"/>
<path opacity="0.38" d="M83.8337 199.352C85.9439 195.205 78.9394 187.408 68.1887 181.938C57.438 176.467 47.0122 175.394 44.9019 179.541C42.7917 183.688 49.7962 191.484 60.5469 196.955C71.2976 202.426 81.7234 203.499 83.8337 199.352Z" fill="#2D2F4F"/>
<path opacity="0.41" d="M83.3606 199.111C85.4198 195.064 78.5857 187.457 68.0965 182.119C57.6072 176.782 47.4347 175.735 45.3756 179.782C43.3165 183.828 50.1505 191.435 60.6398 196.773C71.129 202.111 81.3015 203.157 83.3606 199.111Z" fill="#2D2F4F"/>
<path opacity="0.43" d="M82.8874 198.87C84.895 194.925 78.2312 187.507 68.0033 182.302C57.7754 177.098 47.8565 176.077 45.8488 180.022C43.8412 183.968 50.505 191.385 60.7329 196.59C70.9608 201.795 80.8797 202.815 82.8874 198.87Z" fill="#2D2F4F"/>
<path opacity="0.45" d="M82.4139 198.629C84.3705 194.784 77.8772 187.556 67.9106 182.484C57.9441 177.413 48.2785 176.418 46.322 180.263C44.3654 184.108 50.8588 191.337 60.8253 196.408C70.7918 201.48 80.4574 202.474 82.4139 198.629Z" fill="#2D2F4F"/>
<path opacity="0.47" d="M81.9406 198.388C83.8457 194.644 77.5226 187.606 67.8175 182.667C58.1123 177.729 48.7003 176.76 46.7952 180.504C44.8901 184.248 51.2133 191.286 60.9184 196.225C70.6235 201.164 80.0355 202.132 81.9406 198.388Z" fill="#2D2F4F"/>
<path opacity="0.5" d="M81.4685 198.148C83.3222 194.505 77.1687 187.656 67.7243 182.85C58.2799 178.044 49.1209 177.102 47.2673 180.744C45.4136 184.387 51.5671 191.236 61.0115 196.042C70.4559 200.848 79.6149 201.791 81.4685 198.148Z" fill="#2D2F4F"/>
<path opacity="0.52" d="M80.9951 197.907C82.7976 194.365 76.8146 187.705 67.6316 183.032C58.4485 178.359 49.543 177.443 47.7404 180.985C45.9378 184.527 51.9209 191.187 61.1039 195.86C70.2869 200.533 79.1925 201.45 80.9951 197.907Z" fill="#2D2F4F"/>
<path opacity="0.54" d="M80.522 197.666C82.2732 194.225 76.4603 187.755 67.5387 183.215C58.617 178.675 49.965 177.785 48.2139 181.226C46.4628 184.667 52.2756 191.137 61.1973 195.677C70.1189 200.217 78.7709 201.108 80.522 197.666Z" fill="#2D2F4F"/>
<path opacity="0.56" d="M80.0487 197.426C81.7487 194.085 76.1063 187.804 67.446 183.397C58.7857 178.99 50.3871 178.126 48.687 181.467C46.987 184.808 52.6294 191.088 61.2897 195.495C69.95 199.902 78.3486 200.766 80.0487 197.426Z" fill="#2D2F4F"/>
<path opacity="0.59" d="M79.5754 197.185C81.224 193.945 75.7517 187.854 67.3528 183.58C58.954 179.306 50.8089 178.468 49.1603 181.708C47.5117 184.947 52.9839 191.038 61.3828 195.312C69.7817 199.586 77.9268 200.425 79.5754 197.185Z" fill="#2D2F4F"/>
<path opacity="0.61" d="M79.1022 196.944C80.6996 193.805 75.3979 187.903 67.2604 183.762C59.1229 179.621 51.2311 178.809 49.6337 181.949C48.0362 185.088 53.338 190.99 61.4754 195.131C69.6129 199.271 77.5047 200.083 79.1022 196.944Z" fill="#2D2F4F"/>
<path opacity="0.63" d="M78.6289 196.703C80.1749 193.665 75.0434 187.953 67.1672 183.945C59.2911 179.937 51.653 179.151 50.1069 182.189C48.5609 185.227 53.6925 190.939 61.5686 194.947C69.4447 198.955 77.0828 199.741 78.6289 196.703Z" fill="#2D2F4F"/>
<path opacity="0.65" d="M78.1556 196.462C79.6502 193.525 74.6888 188.003 67.0741 184.128C59.4593 180.253 52.0748 179.493 50.5802 182.43C49.0856 185.367 54.047 190.889 61.6617 194.764C69.2764 198.639 76.661 199.399 78.1556 196.462Z" fill="#2D2F4F"/>
<path opacity="0.68" d="M77.6824 196.222C79.1259 193.385 74.335 188.052 66.9817 184.31C59.6283 180.568 52.4971 179.834 51.0536 182.671C49.6101 185.508 54.401 190.841 61.7544 194.582C69.1077 198.324 76.239 199.058 77.6824 196.222Z" fill="#2D2F4F"/>
<path opacity="0.7" d="M77.2088 195.981C78.6009 193.245 73.9802 188.102 66.8882 184.493C59.7963 180.884 52.9186 180.176 51.5266 182.912C50.1346 185.647 54.7553 190.791 61.8472 194.399C68.9392 198.008 75.8168 198.716 77.2088 195.981Z" fill="#2D2F4F"/>
</g>
<g opacity="0.6">
<path opacity="0.02" d="M218.868 215.356C221.018 211.131 210.655 201.546 195.722 193.947C180.789 186.348 166.941 183.613 164.791 187.838C162.641 192.063 173.004 201.648 187.937 209.246C202.87 216.845 216.718 219.58 218.868 215.356Z" fill="#2D2F4F"/>
<path opacity="0.05" d="M218.395 215.115C220.506 210.965 210.325 201.548 195.654 194.082C180.982 186.616 167.377 183.928 165.265 188.079C163.153 192.229 173.334 201.646 188.006 209.111C202.677 216.577 216.283 219.265 218.395 215.115Z" fill="#2D2F4F"/>
<path opacity="0.07" d="M217.921 214.874C219.996 210.798 209.996 201.549 195.586 194.216C181.176 186.883 167.812 184.243 165.738 188.32C163.664 192.396 173.664 201.645 188.074 208.978C202.484 216.311 215.847 218.951 217.921 214.874Z" fill="#2D2F4F"/>
<path opacity="0.09" d="M217.448 214.633C219.485 210.631 209.666 201.549 195.517 194.35C181.369 187.15 168.248 184.558 166.211 188.561C164.174 192.563 173.993 201.644 188.142 208.844C202.29 216.044 215.411 218.636 217.448 214.633Z" fill="#2D2F4F"/>
<path opacity="0.11" d="M216.975 214.392C218.974 210.464 209.337 201.55 195.449 194.483C181.562 187.416 168.684 184.873 166.684 188.801C164.685 192.73 174.322 201.644 188.21 208.71C202.097 215.777 214.975 218.321 216.975 214.392Z" fill="#2D2F4F"/>
<path opacity="0.14" d="M216.502 214.152C218.463 210.297 209.007 201.551 195.382 194.617C181.756 187.683 169.119 185.187 167.158 189.042C165.196 192.897 174.652 201.643 188.278 208.577C201.904 215.511 214.54 218.007 216.502 214.152Z" fill="#2D2F4F"/>
<path opacity="0.16" d="M216.028 213.911C217.952 210.13 208.678 201.551 195.314 194.751C181.949 187.95 169.555 185.502 167.631 189.283C165.707 193.064 174.981 201.642 188.346 208.443C201.71 215.244 214.104 217.692 216.028 213.911Z" fill="#2D2F4F"/>
<path opacity="0.18" d="M215.555 213.67C217.441 209.963 208.348 201.553 195.245 194.885C182.142 188.218 169.99 185.817 168.104 189.524C166.218 193.23 175.311 201.64 188.414 208.308C201.517 214.976 213.669 217.376 215.555 213.67Z" fill="#2D2F4F"/>
<path opacity="0.2" d="M215.082 213.429C216.93 209.796 208.018 201.554 195.177 195.019C182.335 188.484 170.426 186.132 168.577 189.765C166.729 193.398 175.641 201.64 188.482 208.175C201.324 214.709 213.233 217.062 215.082 213.429Z" fill="#2D2F4F"/>
<path opacity="0.23" d="M214.608 213.188C216.419 209.629 207.689 201.554 195.109 195.153C182.528 188.751 170.862 186.447 169.051 190.005C167.24 193.564 175.97 201.639 188.55 208.041C201.131 214.443 212.797 216.747 214.608 213.188Z" fill="#2D2F4F"/>
<path opacity="0.25" d="M214.135 212.947C215.908 209.462 207.36 201.555 195.041 195.286C182.722 189.018 171.297 186.761 169.524 190.246C167.75 193.732 176.299 201.639 188.618 207.907C200.937 214.176 212.361 216.433 214.135 212.947Z" fill="#2D2F4F"/>
<path opacity="0.27" d="M213.662 212.706C215.397 209.295 207.03 201.556 194.972 195.42C182.915 189.284 171.733 187.076 169.997 190.487C168.261 193.898 176.629 201.638 188.686 207.773C200.744 213.909 211.926 216.118 213.662 212.706Z" fill="#2D2F4F"/>
<path opacity="0.29" d="M213.188 212.466C214.887 209.128 206.701 201.557 194.905 195.554C183.108 189.551 172.169 187.391 170.471 190.728C168.772 194.066 176.958 201.637 188.754 207.64C200.551 213.643 211.49 215.803 213.188 212.466Z" fill="#2D2F4F"/>
<path opacity="0.32" d="M212.715 212.225C214.376 208.962 206.371 201.558 194.836 195.689C183.301 189.819 172.604 187.706 170.944 190.969C169.284 194.232 177.288 201.635 188.823 207.505C200.358 213.375 211.055 215.488 212.715 212.225Z" fill="#2D2F4F"/>
<path opacity="0.34" d="M212.242 211.984C213.865 208.795 206.041 201.559 194.768 195.822C183.495 190.086 173.04 188.02 171.417 191.21C169.794 194.399 177.618 201.635 188.891 207.371C200.165 213.108 210.619 215.173 212.242 211.984Z" fill="#2D2F4F"/>
<path opacity="0.36" d="M211.769 211.743C213.354 208.628 205.712 201.56 194.7 195.956C183.688 190.352 173.476 188.335 171.89 191.451C170.305 194.566 177.947 201.634 188.959 207.238C199.971 212.841 210.183 214.859 211.769 211.743Z" fill="#2D2F4F"/>
<path opacity="0.38" d="M211.295 211.502C212.843 208.461 205.383 201.56 194.632 196.09C183.881 190.619 173.911 188.65 172.364 191.691C170.816 194.733 178.276 201.633 189.027 207.104C199.778 212.575 209.748 214.544 211.295 211.502Z" fill="#2D2F4F"/>
<path opacity="0.41" d="M210.822 211.261C212.332 208.294 205.053 201.561 194.564 196.223C184.075 190.886 174.347 188.965 172.837 191.932C171.327 194.9 178.606 201.633 189.095 206.97C199.585 212.308 209.312 214.229 210.822 211.261Z" fill="#2D2F4F"/>
<path opacity="0.43" d="M210.349 211.021C211.821 208.127 204.724 201.562 194.496 196.357C184.268 191.152 174.783 189.279 173.31 192.173C171.838 195.067 178.935 201.632 189.163 206.837C199.391 212.041 208.876 213.914 210.349 211.021Z" fill="#2D2F4F"/>
<path opacity="0.45" d="M209.875 210.78C211.31 207.961 204.394 201.564 194.427 196.492C184.46 191.42 175.218 189.595 173.783 192.414C172.349 195.233 179.265 201.63 189.232 206.702C199.198 211.773 208.441 213.599 209.875 210.78Z" fill="#2D2F4F"/>
<path opacity="0.47" d="M209.402 210.539C210.799 207.794 204.064 201.564 194.359 196.626C184.654 191.687 175.654 189.909 174.257 192.655C172.86 195.4 179.595 201.63 189.3 206.568C199.005 211.507 208.005 213.285 209.402 210.539Z" fill="#2D2F4F"/>
<path opacity="0.5" d="M208.93 210.299C210.29 207.627 203.736 201.565 194.291 196.759C184.847 191.953 176.089 190.223 174.729 192.895C173.369 195.567 179.924 201.628 189.368 206.434C198.812 211.24 207.571 212.97 208.93 210.299Z" fill="#2D2F4F"/>
<path opacity="0.52" d="M208.457 210.058C209.779 207.46 203.406 201.566 194.223 196.893C185.04 192.22 176.524 190.538 175.202 193.136C173.88 195.734 180.253 201.628 189.436 206.301C198.619 210.974 207.135 212.656 208.457 210.058Z" fill="#2D2F4F"/>
<path opacity="0.54" d="M207.984 209.817C209.268 207.293 203.077 201.567 194.155 197.027C185.234 192.487 176.96 190.852 175.675 193.377C174.391 195.901 180.582 201.627 189.504 206.167C198.426 210.707 206.699 212.341 207.984 209.817Z" fill="#2D2F4F"/>
<path opacity="0.56" d="M207.51 209.576C208.757 207.126 202.747 201.567 194.087 197.16C185.427 192.753 177.396 191.167 176.149 193.617C174.902 196.068 180.912 201.627 189.572 206.033C198.232 210.44 206.264 212.027 207.51 209.576Z" fill="#2D2F4F"/>
<path opacity="0.59" d="M207.037 209.335C208.246 206.96 202.417 201.569 194.018 197.295C185.619 193.021 177.831 191.483 176.622 193.858C175.413 196.234 181.241 201.625 189.64 205.898C198.039 210.172 205.828 211.711 207.037 209.335Z" fill="#2D2F4F"/>
<path opacity="0.61" d="M206.564 209.095C207.735 206.793 202.088 201.57 193.95 197.429C185.813 193.288 178.267 191.797 177.095 194.099C175.924 196.401 181.571 201.624 189.709 205.765C197.846 209.906 205.392 211.397 206.564 209.095Z" fill="#2D2F4F"/>
<path opacity="0.63" d="M206.091 208.854C207.224 206.626 201.759 201.57 193.882 197.563C186.006 193.555 178.702 192.112 177.569 194.34C176.435 196.568 181.9 201.623 189.777 205.631C197.653 209.639 204.957 211.082 206.091 208.854Z" fill="#2D2F4F"/>
<path opacity="0.65" d="M205.617 208.613C206.713 206.459 201.429 201.571 193.814 197.696C186.2 193.821 179.138 192.427 178.042 194.581C176.946 196.735 182.23 201.623 189.845 205.498C197.459 209.372 204.521 210.767 205.617 208.613Z" fill="#2D2F4F"/>
<path opacity="0.68" d="M205.144 208.372C206.203 206.292 201.1 201.572 193.746 197.83C186.393 194.088 179.574 192.741 178.515 194.822C177.456 196.902 182.559 201.622 189.913 205.364C197.266 209.106 204.085 210.453 205.144 208.372Z" fill="#2D2F4F"/>
<path opacity="0.7" d="M204.671 208.131C205.692 206.124 200.77 201.572 193.678 197.963C186.586 194.355 180.01 193.056 178.988 195.062C177.967 197.069 182.889 201.621 189.981 205.23C197.073 208.839 203.65 210.138 204.671 208.131Z" fill="#2D2F4F"/>
</g>
<g opacity="0.6">
<path opacity="0.02" d="M171.577 187.929C173.727 183.704 163.364 174.119 148.431 166.52C133.499 158.922 119.65 156.186 117.5 160.411C115.351 164.636 125.713 174.221 140.646 181.82C155.579 189.418 169.427 192.154 171.577 187.929Z" fill="#2D2F4F"/>
<path opacity="0.05" d="M171.104 187.688C173.216 183.538 163.034 174.121 148.363 166.655C133.691 159.189 120.086 156.502 117.974 160.652C115.862 164.802 126.043 174.219 140.715 181.685C155.386 189.15 168.992 191.838 171.104 187.688Z" fill="#2D2F4F"/>
<path opacity="0.07" d="M170.63 187.447C172.705 183.371 162.705 174.122 148.295 166.789C133.884 159.456 120.521 156.816 118.447 160.893C116.372 164.969 126.373 174.218 140.783 181.551C155.193 188.884 168.556 191.524 170.63 187.447Z" fill="#2D2F4F"/>
<path opacity="0.09" d="M170.157 187.206C172.194 183.204 162.375 174.122 148.227 166.923C134.078 159.723 120.957 157.131 118.92 161.134C116.884 165.136 126.702 174.217 140.851 181.417C155 188.617 168.12 191.209 170.157 187.206Z" fill="#2D2F4F"/>
<path opacity="0.11" d="M169.684 186.966C171.683 183.037 162.046 174.123 148.159 167.056C134.272 159.99 121.393 157.446 119.394 161.375C117.395 165.303 127.032 174.217 140.919 181.284C154.806 188.35 167.685 190.894 169.684 186.966Z" fill="#2D2F4F"/>
<path opacity="0.14" d="M169.211 186.725C171.172 182.87 161.717 174.124 148.091 167.19C134.465 160.256 121.829 157.761 119.867 161.615C117.905 165.47 127.361 174.216 140.987 181.15C154.613 188.084 167.249 190.58 169.211 186.725Z" fill="#2D2F4F"/>
<path opacity="0.16" d="M168.737 186.484C170.662 182.703 161.387 174.124 148.023 167.324C134.658 160.523 122.264 158.075 120.34 161.856C118.416 165.637 127.691 174.215 141.055 181.016C154.42 187.817 166.813 190.265 168.737 186.484Z" fill="#2D2F4F"/>
<path opacity="0.18" d="M168.264 186.243C170.15 182.536 161.057 174.126 147.954 167.459C134.851 160.791 122.7 158.39 120.813 162.097C118.927 165.804 128.02 174.214 141.123 180.881C154.227 187.549 166.378 189.95 168.264 186.243Z" fill="#2D2F4F"/>
<path opacity="0.2" d="M167.791 186.002C169.639 182.37 160.727 174.127 147.886 167.592C135.044 161.058 123.135 158.705 121.286 162.338C119.438 165.971 128.35 174.213 141.191 180.748C154.033 187.283 165.942 189.635 167.791 186.002Z" fill="#2D2F4F"/>
<path opacity="0.23" d="M167.317 185.761C169.128 182.202 160.398 174.128 147.818 167.726C135.237 161.324 123.571 159.02 121.76 162.579C119.949 166.138 128.679 174.212 141.259 180.614C153.84 187.016 165.506 189.32 167.317 185.761Z" fill="#2D2F4F"/>
<path opacity="0.25" d="M166.844 185.52C168.618 182.035 160.069 174.128 147.75 167.859C135.431 161.591 124.007 159.334 122.233 162.819C120.46 166.304 129.008 174.211 141.327 180.48C153.646 186.749 165.071 189.005 166.844 185.52Z" fill="#2D2F4F"/>
<path opacity="0.27" d="M166.371 185.28C168.107 181.868 159.739 174.129 147.682 167.993C135.624 161.858 124.442 159.649 122.707 163.06C120.971 166.472 129.338 174.211 141.396 180.347C153.453 186.482 164.635 188.691 166.371 185.28Z" fill="#2D2F4F"/>
<path opacity="0.29" d="M165.897 185.039C167.596 181.701 159.41 174.13 147.614 168.127C135.817 162.124 124.878 159.964 123.18 163.301C121.481 166.639 129.667 174.21 141.463 180.213C153.26 186.216 164.199 188.376 165.897 185.039Z" fill="#2D2F4F"/>
<path opacity="0.32" d="M165.424 184.798C167.085 181.535 159.08 174.132 147.545 168.262C136.01 162.392 125.314 160.279 123.653 163.542C121.993 166.805 129.998 174.209 141.532 180.078C153.067 185.948 163.764 188.061 165.424 184.798Z" fill="#2D2F4F"/>
<path opacity="0.34" d="M164.951 184.557C166.574 181.368 158.751 174.132 147.477 168.396C136.204 162.659 125.749 160.594 124.126 163.783C122.504 166.972 130.327 174.208 141.6 179.945C152.874 185.681 163.328 187.746 164.951 184.557Z" fill="#2D2F4F"/>
<path opacity="0.36" d="M164.478 184.316C166.063 181.201 158.421 174.133 147.409 168.529C136.397 162.926 126.185 160.908 124.6 164.024C123.014 167.139 130.656 174.207 141.668 179.811C152.68 185.414 162.893 187.432 164.478 184.316Z" fill="#2D2F4F"/>
<path opacity="0.38" d="M164.005 184.075C165.553 181.034 158.092 174.133 147.341 168.663C136.591 163.192 126.621 161.223 125.073 164.264C123.525 167.306 130.986 174.206 141.737 179.677C152.487 185.148 162.457 187.117 164.005 184.075Z" fill="#2D2F4F"/>
<path opacity="0.41" d="M163.531 183.835C165.042 180.867 157.763 174.134 147.273 168.797C136.784 163.459 127.057 161.538 125.546 164.505C124.036 167.473 131.315 174.206 141.805 179.543C152.294 184.881 162.021 186.802 163.531 183.835Z" fill="#2D2F4F"/>
<path opacity="0.43" d="M163.058 183.594C164.531 180.7 157.433 174.135 147.205 168.93C136.977 163.726 127.492 161.852 126.02 164.746C124.547 167.64 131.645 174.205 141.873 179.41C152.1 184.614 161.586 186.488 163.058 183.594Z" fill="#2D2F4F"/>
<path opacity="0.45" d="M162.585 183.353C164.019 180.534 157.103 174.137 147.136 169.065C137.17 163.994 127.927 162.168 126.493 164.987C125.058 167.806 131.974 174.203 141.941 179.275C151.908 184.347 161.15 186.172 162.585 183.353Z" fill="#2D2F4F"/>
<path opacity="0.47" d="M162.111 183.112C163.508 180.367 156.773 174.137 147.068 169.199C137.363 164.26 128.363 162.482 126.966 165.228C125.569 167.973 132.304 174.203 142.009 179.141C151.714 184.08 160.714 185.858 162.111 183.112Z" fill="#2D2F4F"/>
<path opacity="0.5" d="M161.639 182.872C162.999 180.2 156.445 174.138 147 169.332C137.556 164.526 128.798 162.796 127.438 165.468C126.078 168.14 132.633 174.202 142.077 179.008C151.521 183.813 160.28 185.544 161.639 182.872Z" fill="#2D2F4F"/>
<path opacity="0.52" d="M161.166 182.631C162.488 180.033 156.116 174.139 146.932 169.466C137.749 164.793 129.233 163.111 127.911 165.709C126.589 168.307 132.962 174.201 142.145 178.874C151.328 183.547 159.844 185.229 161.166 182.631Z" fill="#2D2F4F"/>
<path opacity="0.54" d="M160.693 182.39C161.977 179.866 155.786 174.14 146.864 169.6C137.943 165.06 129.669 163.426 128.385 165.95C127.1 168.474 133.292 174.2 142.213 178.74C151.135 183.28 159.408 184.914 160.693 182.39Z" fill="#2D2F4F"/>
<path opacity="0.56" d="M160.22 182.15C161.467 179.699 155.457 174.14 146.797 169.734C138.136 165.327 130.105 163.74 128.858 166.191C127.611 168.641 133.621 174.2 142.281 178.607C150.942 183.014 158.973 184.6 160.22 182.15Z" fill="#2D2F4F"/>
<path opacity="0.59" d="M159.746 181.909C160.955 179.533 155.127 174.142 146.728 169.868C138.329 165.594 130.54 164.056 129.331 166.431C128.122 168.807 133.951 174.198 142.35 178.472C150.749 182.746 158.537 184.284 159.746 181.909Z" fill="#2D2F4F"/>
<path opacity="0.61" d="M159.273 181.668C160.444 179.366 154.797 174.143 146.659 170.002C138.522 165.861 130.976 164.37 129.804 166.672C128.633 168.974 134.28 174.197 142.418 178.338C150.555 182.479 158.101 183.97 159.273 181.668Z" fill="#2D2F4F"/>
<path opacity="0.63" d="M158.8 181.427C159.933 179.199 154.468 174.144 146.592 170.136C138.716 166.128 131.412 164.685 130.278 166.913C129.144 169.141 134.61 174.196 142.486 178.204C150.362 182.212 157.666 183.655 158.8 181.427Z" fill="#2D2F4F"/>
<path opacity="0.65" d="M158.326 181.186C159.423 179.032 154.138 174.144 146.524 170.27C138.909 166.395 131.847 165 130.751 167.154C129.655 169.308 134.939 174.196 142.554 178.071C150.169 181.946 157.23 183.34 158.326 181.186Z" fill="#2D2F4F"/>
<path opacity="0.68" d="M157.853 180.945C158.912 178.865 153.809 174.145 146.456 170.403C139.102 166.661 132.283 165.314 131.224 167.395C130.166 169.475 135.268 174.195 142.622 177.937C149.975 181.679 156.794 183.026 157.853 180.945Z" fill="#2D2F4F"/>
<path opacity="0.7" d="M157.38 180.704C158.401 178.698 153.479 174.145 146.387 170.537C139.296 166.928 132.719 165.629 131.697 167.635C130.676 169.642 135.598 174.194 142.69 177.803C149.782 181.412 156.359 182.711 157.38 180.704Z" fill="#2D2F4F"/>
</g>
<path d="M102.174 116.227L51.4141 86.7597V133.444L100.768 163.751L102.174 162.912V116.227Z" fill="#A5A7AD"/>
<path d="M100.768 117.066L50.0076 87.5988V134.284L100.768 163.751V117.066Z" fill="#FCFFFF"/>
<path d="M50.0076 87.5988L100.768 117.066V123.498L50.0076 94.0306V87.5988Z" fill="url(#paint18_linear_2_1317)"/>
<path d="M73.1701 122.76L54.1841 111.64C54.0535 111.56 53.9431 111.452 53.8616 111.323C53.78 111.194 53.7294 111.047 53.7139 110.895C53.7139 110.637 53.926 110.551 54.1841 110.702L73.1769 121.823C73.3074 121.902 73.4177 122.01 73.4993 122.139C73.5809 122.268 73.6315 122.414 73.6471 122.566C73.6417 122.824 73.4282 122.912 73.1701 122.76Z" fill="#DADBE0"/>
<path d="M73.1701 119.412L54.1841 108.291C54.0535 108.212 53.9431 108.104 53.8616 107.974C53.78 107.845 53.7294 107.699 53.7139 107.547C53.7139 107.289 53.926 107.202 54.1841 107.352L73.1769 118.474C73.3074 118.553 73.4177 118.662 73.4993 118.791C73.5809 118.92 73.6315 119.066 73.6471 119.217C73.6417 119.476 73.4282 119.563 73.1701 119.412Z" fill="#DADBE0"/>
<path d="M73.1701 125.482L54.1841 114.36C54.0535 114.281 53.943 114.173 53.8614 114.044C53.7798 113.915 53.7293 113.768 53.7139 113.617C53.7139 113.359 53.926 113.271 54.1841 113.422L73.1769 124.544C73.3075 124.623 73.4179 124.731 73.4995 124.86C73.5812 124.989 73.6317 125.135 73.6471 125.287C73.6417 125.543 73.4282 125.633 73.1701 125.482Z" fill="#DADBE0"/>
<path d="M96.8205 151.641L77.8304 140.519C77.7001 140.44 77.5899 140.332 77.5085 140.203C77.4272 140.074 77.3769 139.928 77.3616 139.776C77.3616 139.518 77.5724 139.43 77.8304 139.582L96.8246 150.702C96.955 150.782 97.0652 150.89 97.1465 151.019C97.2279 151.149 97.2782 151.295 97.2935 151.447C97.2881 151.705 97.0786 151.791 96.8205 151.641Z" fill="#DADBE0"/>
<path d="M96.8205 148.293L77.8304 137.171C77.7001 137.092 77.5899 136.984 77.5085 136.855C77.4272 136.726 77.3769 136.58 77.3616 136.428C77.3616 136.17 77.5724 136.082 77.8304 136.233L96.8246 147.354C96.955 147.433 97.0652 147.542 97.1465 147.671C97.2279 147.8 97.2782 147.947 97.2935 148.098C97.2881 148.357 97.0786 148.443 96.8205 148.293Z" fill="#DADBE0"/>
<path d="M96.8205 154.361L77.8304 143.243C77.7001 143.164 77.5899 143.055 77.5085 142.926C77.4272 142.797 77.3769 142.651 77.3616 142.499C77.3616 142.241 77.5724 142.154 77.8304 142.304L96.8246 153.426C96.9549 153.505 97.0651 153.614 97.1465 153.743C97.2279 153.872 97.2782 154.018 97.2935 154.169C97.2881 154.425 97.0786 154.513 96.8205 154.361Z" fill="#DADBE0"/>
<path d="M66.2329 136.579L55.3555 130.389C54.4489 129.873 53.707 128.708 53.707 127.803C53.707 126.896 54.4489 126.576 55.3555 127.092L66.2329 133.282C67.1382 133.798 67.88 134.962 67.88 135.868C67.88 136.775 67.1382 137.095 66.2329 136.579Z" fill="#2D2F4F"/>
<path d="M98.6108 143.303L77.3574 131.074V114.472L98.6108 126.7V143.303Z" fill="url(#paint19_linear_2_1317)"/>
<path d="M78.6506 130.099V116.935L97.3178 127.676V140.838L78.6506 130.099Z" fill="#DADBE0"/>
<path d="M78.6506 126.845L82.6557 124.389L87.0323 131.554L92.1953 126.93L97.3178 136.229V140.838L78.6506 130.099V126.845Z" fill="url(#paint20_linear_2_1317)"/>
<path d="M53.8274 93.2808C53.8544 93.5741 53.6233 93.6646 53.3098 93.4822C52.9964 93.2998 52.722 92.9133 52.695 92.6201C52.668 92.3269 52.8991 92.2363 53.2112 92.4188C53.5234 92.6012 53.8004 92.9876 53.8274 93.2808Z" fill="#FCFFFF"/>
<path d="M56.0097 94.7347C56.0381 95.0279 55.8057 95.117 55.4935 94.9346C55.1814 94.7522 54.9057 94.3671 54.8773 94.0739C54.849 93.7807 55.0814 93.6901 55.3949 93.8726C55.7084 94.055 55.9827 94.4387 56.0097 94.7347Z" fill="#089299"/>
<path d="M58.1933 96.1844C58.2204 96.4776 57.9893 96.5682 57.6772 96.3858C57.365 96.2033 57.088 95.8183 57.061 95.5237C57.034 95.2291 57.265 95.1413 57.5772 95.3237C57.8893 95.5061 58.1663 95.8912 58.1933 96.1844Z" fill="#DADBE0"/>
<path d="M61.9429 96.4803L87.3229 111.214V113.83L61.9429 99.0963V96.4803Z" fill="#DADBE0"/>
<path d="M102.174 116.227L100.768 117.066L50.0076 87.5988L51.4142 86.7597L102.174 116.227Z" fill="url(#paint21_linear_2_1317)"/>
<path d="M100.767 123.498L102.174 122.571V116.227L100.767 117.066V123.498Z" fill="url(#paint22_linear_2_1317)"/>
<path d="M65.7493 81.0874C65.7493 81.0874 67.8193 80.1307 71.646 86.6477C75.4727 93.1646 75.547 93.0174 78.0197 94.2889C80.4925 95.5604 90.5321 101.775 90.5321 101.775C90.5321 101.775 86.5622 102.973 85.7379 105.07L84.911 107.166C84.911 107.166 75.1727 100.95 73.1553 99.9005C71.138 98.8506 67.5721 96.3333 67.5721 96.3333L65.7493 81.0874Z" fill="url(#paint23_linear_2_1317)"/>
<path d="M55.307 186.673C55.307 186.673 60.4416 191.33 62.1104 192.12C63.7791 192.911 65.0831 194.212 63.5508 195.698C62.0185 197.184 59.2269 197.836 55.9839 196.348C52.741 194.86 51.3371 192.911 49.7116 192.259C48.086 191.608 47.3415 191.284 47.0632 190.354C46.7848 189.424 47.3645 188.281 47.3645 188.281C47.3645 188.281 55.1462 188.615 55.307 186.673Z" fill="#1D2035"/>
<path d="M72.0109 177.67C72.0109 177.67 74.5633 180.736 76.9806 182.264C79.398 183.792 80.279 184.448 78.8859 185.749C77.4928 187.05 75.7254 187.933 73.031 186.679C70.3367 185.425 67.5005 182.775 65.2237 181.845C62.9469 180.916 62.6226 180.916 62.6226 179.94C62.6226 178.965 64.0157 177.198 64.0157 177.198L72.0109 177.67Z" fill="#1D2035"/>
<path d="M70.6365 124.014L71.9283 155.245V176.604C71.9283 176.604 72.8133 178.766 69.7663 179.528C66.7193 180.29 63.9263 178.256 63.9263 178.256C63.9263 178.256 61.3846 170.246 61.2563 165.543C61.1279 160.839 63.0372 157.03 63.0372 157.03L56.7783 129.695L70.6365 124.014Z" fill="#1D2035"/>
<path d="M45.5364 129.422C45.5364 129.422 43.5893 134.394 44.4797 137.826C45.3702 141.259 46.5066 143.166 46.5066 143.166L48.0321 161.855C48.0321 161.855 45.8918 167.068 46.1404 174.827C46.2875 179.509 46.7084 184.179 47.4011 188.812C47.4011 188.812 49.6887 189.957 52.6128 188.812C55.5368 187.668 55.9733 185.634 55.9733 185.634C55.9733 185.634 58.0798 164.135 58.3338 159.374C58.5879 154.614 60.6796 132.143 60.6796 132.143L45.5364 129.422Z" fill="#2D2F4F"/>
<path d="M64.7317 80.3819C62.332 80.0062 40.3124 94.3413 40.4624 95.0913C40.6124 95.8412 45.162 121.404 45.312 124.851C45.462 128.298 45.5376 129.422 45.5376 129.422C45.5376 129.422 49.8859 135.646 59.8606 132.422C69.8353 129.197 71.1825 122.524 71.1825 122.524C71.1825 122.524 68.6151 86.311 68.2463 84.2842C67.8774 82.2573 64.7317 80.3819 64.7317 80.3819Z" fill="#EFEFEF"/>
<path d="M61.4376 70.9422C61.4376 70.9422 62.7577 75.6715 62.7888 77.3673C62.8199 79.0631 61.9456 84.1315 61.0322 84.8922C60.1188 85.653 58.6946 85.5881 58.6946 85.5881L59.3026 88.573C59.3026 88.573 59.754 90.666 56.084 91.6105C52.4141 92.555 49.6725 88.6703 49.6725 88.6703C49.6725 88.6703 50.2387 85.5976 49.5225 82.6884C48.8064 79.7792 47.9335 72.4002 50.8602 70.6625C53.787 68.9249 61.4376 70.9422 61.4376 70.9422Z" fill="#CC8585"/>
<path d="M58.7917 85.5179C58.7917 85.5179 56.4527 85.8813 55.2069 84.8341C53.9611 83.7869 53.5854 83.5113 53.5854 83.5113C54.1352 84.55 54.8381 85.5002 55.6704 86.3299C57.0635 87.7339 56.8122 91.3903 56.8122 91.3903C56.8122 91.3903 59.5754 90.7687 59.316 89.027C59.0566 87.2853 58.7917 85.5179 58.7917 85.5179Z" fill="#9E5C5C"/>
<path d="M53.5896 73.3852C53.5896 73.3852 56.5312 75.1418 58.1324 73.8433C59.7336 72.5447 62.4996 73.3501 63.2508 72.2218C64.0021 71.0935 65.4641 67.3006 63.2508 66.1413C61.0375 64.9819 61.7145 62.4619 57.7405 63.2132C53.7666 63.9645 52.4046 62.8375 50.9966 63.8226C49.5886 64.8076 47.5591 64.0577 47.1416 65.3724C46.724 66.6872 44.4472 66.5885 44.2473 68.0019C44.0473 69.4153 46.0038 71.711 46.0038 71.711C46.0038 71.711 43.2487 73.3541 43.0609 74.9972C42.8731 76.6403 44.0473 77.3835 44.0473 77.3835C44.0473 77.3835 43.6716 78.4239 44.6107 79.6454C45.5498 80.8669 45.3309 79.0171 46.0038 80.5507C46.6768 82.0844 46.4092 82.9208 48.1861 82.6681C49.9629 82.4154 51.3844 82.3181 50.0629 80.348C48.7414 78.378 49.3049 76.6714 51.1358 77.3835C52.9667 78.0955 51.833 80.1859 53.3626 79.7278C54.8922 79.2698 53.4153 76.5741 53.7315 75.4566C53.9168 74.7697 53.8668 74.0405 53.5896 73.3852Z" fill="#2D2F4F"/>
<path d="M43.4134 94.3454C39.4841 93.7481 37.8734 97.6545 39.8178 106.044C41.7622 114.434 44.462 124.245 47.0847 124.395C49.7074 124.545 71.1797 114.433 71.1797 114.433C71.1797 114.433 72.2283 112.767 71.1797 110.388C70.1312 108.01 69.4056 107.767 69.4056 107.767C69.4056 107.767 51.8775 114.808 50.9046 114.358C49.9317 113.908 50.2303 95.3804 43.4134 94.3454Z" fill="url(#paint24_linear_2_1317)"/>
<path d="M70.3162 108.746C70.3162 108.746 71.3228 105.893 72.0471 104.513C72.7713 103.134 74.6941 102.247 74.6941 102.247C74.6941 102.247 75.1373 103.207 73.8564 104.23C72.5754 105.253 74.4968 104.316 75.4778 103.48C76.4588 102.643 78.0884 100.229 80.2071 100.031C82.3258 99.8342 81.0179 100.333 79.4829 101.808C77.9479 103.284 77.7479 103.923 77.7479 103.923C77.7479 103.923 81.2449 100.545 81.8853 100.881C82.5258 101.218 78.4519 104.577 78.4519 104.816C78.4519 105.055 81.5786 102.519 81.9529 102.987C82.3272 103.454 78.1384 106.985 78.1384 106.985C78.1384 106.985 81.2084 104.463 81.6219 105.082C82.0353 105.701 78.5856 108.596 77.2547 109.829C75.9237 111.063 71.6052 113.088 71.6052 113.088C71.6052 113.088 71.7498 110.318 70.3162 108.746Z" fill="#CC8585"/>
<path d="M88.5254 102.593C88.5254 102.593 91.9251 106.289 93.0061 109.009L94.0871 111.729L88.5254 108.501C88.5254 108.501 88.1457 110.706 88.1457 112.634C88.1477 113.195 88.0248 113.749 87.7859 114.256C87.5471 114.763 87.1982 115.211 86.7648 115.567C86.7648 115.567 86.0284 108.824 85.8311 107.824C85.718 107.231 85.462 106.674 85.0852 106.203C85.0852 106.203 87.0539 102.429 88.5254 102.593Z" fill="#CC8585"/>
<path d="M136.744 102.677C136.744 102.677 137.398 103.353 137.225 104.974C137.052 106.596 136.144 110.041 135.163 110.66C134.182 111.279 132.098 111.179 132.098 111.179L131.055 118.949L120.575 111.085L122.572 102.495C122.572 102.495 132.289 100.019 132.436 100.022C132.583 100.025 136.744 102.677 136.744 102.677Z" fill="#FFBDBD"/>
<path d="M129.646 214.654C129.646 214.654 129.531 217.122 129.646 217.661C129.761 218.2 133.529 220.597 135.341 219.619C137.153 218.64 148.114 212.913 148.213 211.494C148.312 210.075 146.647 207.921 144.59 208.067C142.534 208.213 134.312 210.98 134.312 210.98L129.646 214.654Z" fill="#1D2035"/>
<path d="M116.052 204.892C116.052 204.892 115.274 208.704 115.567 208.998C115.86 209.293 119.043 211.397 120.071 210.906C121.099 210.416 128.538 203.565 128.538 202.146C128.538 200.727 126.677 199.455 124.23 200.726C121.783 201.998 116.052 204.892 116.052 204.892Z" fill="#1D2035"/>
<path d="M117.924 153.995C117.924 153.995 114.962 156.783 116.438 161.923C117.913 167.063 117.924 167.674 117.924 167.674V181.264C117.924 181.264 115.834 185.36 115.397 191.284C114.961 197.207 115.397 204.091 115.397 204.091C115.734 204.633 116.194 205.088 116.739 205.421C117.283 205.754 117.898 205.955 118.535 206.008C120.711 206.182 122.89 204.353 122.89 204.353C122.89 204.353 123.587 189.895 125.765 183.965C127.943 178.036 130.644 157.567 130.644 157.567L117.924 153.995Z" fill="#1D2035"/>
<path d="M123.502 112.326C123.502 112.326 131.474 115.434 132.84 116.35C134.206 117.266 134.966 120.07 134.966 120.07C134.966 120.07 140.994 121.058 140.941 125.537C140.888 130.016 141.648 159.019 141.648 159.019C141.648 159.019 138.838 162.815 127.595 160.84C116.351 158.866 117.346 152.566 117.346 152.566C117.346 152.566 117.648 140.269 116.282 135.405C114.916 130.541 110.513 119.538 111.418 115.137C112.323 110.736 117.416 111.037 118.858 111.568C120.3 112.099 123.502 112.326 123.502 112.326Z" fill="url(#paint25_linear_2_1317)"/>
<path d="M140.265 123.143C137.237 123.259 132.074 129.408 139.134 132.293C146.194 135.178 156.369 133.357 156.824 132.673C157.28 131.989 166.087 116.426 166.087 116.426C166.087 116.426 165.707 114.376 163.202 113.318C160.697 112.26 159.709 112.787 159.709 112.787C159.709 112.787 154.015 124.859 152.573 124.859C151.132 124.859 140.265 123.143 140.265 123.143Z" fill="url(#paint26_linear_2_1317)"/>
<path d="M122.924 159.535C122.924 159.535 122.447 163.811 124.829 167.276C127.211 170.742 129.051 172.258 129.051 172.258L130.644 186.552C130.644 186.552 129.051 193.266 129.051 199.658V213.627C129.051 213.627 129.809 216.118 133.059 216.118C136.309 216.118 138.365 213.303 138.365 213.303C138.365 213.303 137.715 193.269 140.098 187.089C142.48 180.91 141.641 159.015 141.641 159.015C141.641 159.015 132.825 163.274 122.924 159.535Z" fill="#2D2F4F"/>
<path d="M138.172 95.2278C140.896 99.9733 138.53 103.089 135.722 104.374C132.915 105.659 132.323 106.093 132.323 106.093C132.323 106.093 133.387 103.243 131.121 102.48C128.855 101.716 130.778 106.354 129.22 107.516C128.213 108.243 126.998 108.627 125.755 108.611C124.513 108.595 123.308 108.18 122.32 107.427C119.847 105.566 118.275 96.3683 121.618 93.3996C124.961 90.431 134.564 88.9406 138.172 95.2278Z" fill="#1D2035"/>
<path d="M124.56 93.0713C124.56 93.0713 126.441 93.5361 126.523 96.6209C126.606 99.7058 123.873 100.772 123.873 100.772L122.625 100.756C122.625 100.756 124.603 106.875 123.06 112.657C121.517 118.439 110.431 118.296 110.431 118.296C110.431 118.296 115.836 114.988 115.836 109.26C115.836 103.532 114.307 96.7574 117.063 93.6361C119.82 90.5148 124.56 93.0713 124.56 93.0713Z" fill="#1D2035"/>
<path d="M161.372 112.737C161.372 112.737 161.399 111.572 162.213 109.864C162.718 108.815 163.362 107.838 164.127 106.961C164.127 106.961 165.515 106.771 164.845 108.613L164.169 110.454C164.169 110.454 166.825 105.812 167.46 106.29C168.095 106.769 166.562 109.486 166.562 109.486C166.562 109.486 168.387 105.667 168.86 106.003C169.332 106.338 166.943 111.028 166.943 111.028C166.943 111.028 169.049 107.486 169.527 107.774C170.005 108.062 168.311 112.272 167.457 113.278C166.603 114.283 165.676 115.44 165.676 115.44C165.676 115.44 163.93 113.201 161.372 112.737Z" fill="#FFBDBD"/>
<path d="M161.97 218.832C161.967 218.953 161.973 219.074 161.989 219.194C162.313 224.756 170.231 229.212 179.96 229.212C189.885 229.212 197.945 224.56 197.945 218.832C197.842 218.212 197.842 217.579 197.945 216.958C197.842 216.338 197.842 215.705 197.945 215.085C197.945 209.356 189.885 204.704 179.96 204.704C170.035 204.704 161.975 209.356 161.975 215.085L161.97 218.832ZM166.26 216.958C167.726 213.377 173.298 210.707 179.955 210.707C186.611 210.707 192.18 213.377 193.649 216.958C192.18 220.54 186.605 223.209 179.955 223.209C173.304 223.209 167.721 220.54 166.26 216.958Z" fill="#606475"/>
<path d="M161.97 213.98C161.967 214.101 161.973 214.223 161.989 214.343C162.316 219.905 170.223 224.364 179.96 224.364C189.887 224.364 197.946 219.71 197.946 213.98C197.946 208.249 189.887 203.6 179.96 203.6C170.033 203.6 161.97 208.253 161.97 213.98ZM165.878 213.98C165.878 209.499 172.181 205.859 179.953 205.859C187.725 205.859 194.036 209.499 194.036 213.98C194.037 214.206 194.02 214.432 193.987 214.656C193.388 218.825 187.332 222.105 179.957 222.105C172.582 222.105 166.51 218.817 165.933 214.642C165.915 214.52 165.905 214.392 165.896 214.266C165.883 214.172 165.876 214.076 165.878 213.98Z" fill="#D0D5E2"/>
<path d="M154.85 231.736C154.841 231.67 154.829 231.601 154.817 231.538C154.808 231.493 154.8 231.449 154.79 231.403C154.779 231.357 154.769 231.319 154.758 231.277C154.748 231.235 154.729 231.158 154.713 231.1L154.68 230.997C154.66 230.931 154.638 230.862 154.614 230.799L154.586 230.718C154.55 230.626 154.514 230.535 154.475 230.447L154.463 230.419C154.426 230.338 154.388 230.257 154.348 230.176L154.311 230.103C154.272 230.027 154.232 229.953 154.19 229.88L154.165 229.837C154.115 229.75 154.064 229.666 154.01 229.583L153.961 229.511C153.922 229.451 153.882 229.392 153.838 229.334L153.771 229.241C153.734 229.192 153.696 229.145 153.659 229.097C153.621 229.05 153.595 229.019 153.563 228.981C153.53 228.943 153.499 228.91 153.468 228.875C153.414 228.814 153.359 228.756 153.303 228.697L153.221 228.616C153.107 228.507 152.991 228.404 152.872 228.31L152.807 228.261C152.684 228.166 152.555 228.079 152.421 228C152.32 227.942 152.216 227.89 152.109 227.845C152.076 227.83 152.044 227.818 152.011 227.806C151.953 227.783 151.894 227.762 151.837 227.745C151.801 227.734 151.763 227.723 151.728 227.715C151.694 227.706 151.66 227.699 151.625 227.694C151.58 227.684 151.535 227.677 151.49 227.673L151.416 227.665C151.363 227.662 151.31 227.662 151.257 227.665H151.22C151.158 227.669 151.098 227.677 151.037 227.688L150.994 227.698C150.948 227.708 150.903 227.722 150.859 227.738L150.817 227.752C150.761 227.773 150.707 227.8 150.655 227.83L163.598 220.308L163.612 220.3C163.652 220.276 163.693 220.256 163.736 220.239L163.76 220.231L163.802 220.216C163.824 220.208 163.844 220.2 163.867 220.193C163.89 220.186 163.914 220.182 163.939 220.177L163.982 220.166H164.006C164.055 220.158 164.105 220.152 164.155 220.148H164.202C164.24 220.148 164.279 220.148 164.32 220.148H164.36L164.435 220.156C164.458 220.156 164.481 220.156 164.503 220.156C164.526 220.156 164.545 220.166 164.566 220.17C164.586 220.174 164.633 220.183 164.668 220.192L164.722 220.204C164.74 220.204 164.759 220.217 164.778 220.223C164.837 220.239 164.895 220.259 164.952 220.282L165.014 220.304L165.049 220.321C165.156 220.367 165.261 220.419 165.362 220.477C165.496 220.555 165.625 220.643 165.748 220.737L165.813 220.786C165.932 220.881 166.048 220.983 166.161 221.093L166.19 221.118C166.209 221.136 166.225 221.156 166.244 221.175C166.299 221.232 166.355 221.29 166.409 221.351L166.461 221.406L166.502 221.458C166.536 221.495 166.567 221.536 166.599 221.575C166.632 221.614 166.642 221.625 166.663 221.652L166.71 221.717C166.734 221.748 166.757 221.779 166.78 221.812C166.803 221.844 166.811 221.854 166.828 221.875C166.844 221.897 166.878 221.949 166.902 221.987L166.951 222.059L166.971 222.09C167.014 222.159 167.057 222.225 167.106 222.299V222.313L167.13 222.356L167.215 222.508C167.228 222.532 167.238 222.556 167.252 222.579L167.288 222.653C167.299 222.675 167.311 222.697 167.321 222.718C167.349 222.776 167.376 222.836 167.402 222.894L167.417 222.925C167.416 222.928 167.416 222.931 167.417 222.933C167.449 223.007 167.479 223.08 167.509 223.156C167.509 223.17 167.518 223.183 167.523 223.197L167.552 223.279C167.565 223.316 167.58 223.352 167.592 223.39C167.605 223.428 167.61 223.448 167.618 223.476L167.65 223.579C167.65 223.601 167.663 223.621 167.669 223.643C167.676 223.664 167.687 223.718 167.696 223.756C167.706 223.794 167.718 223.84 167.728 223.883C167.732 223.897 167.736 223.912 167.738 223.926C167.738 223.957 167.749 223.987 167.755 224.018C167.767 224.084 167.779 224.153 167.788 224.215C167.788 224.234 167.788 224.252 167.798 224.271C167.807 224.29 167.798 224.303 167.798 224.321C167.815 224.465 167.825 224.611 167.826 224.756C167.826 225.538 167.548 226.087 167.103 226.346L154.175 233.867C154.619 233.608 154.895 233.057 154.898 232.277C154.896 232.131 154.886 231.986 154.868 231.842C154.863 231.807 154.86 231.772 154.85 231.736Z" fill="#707482"/>
<path d="M152.425 227.998C151.056 227.207 149.943 227.841 149.939 229.414C149.935 230.986 151.04 232.903 152.409 233.693C153.778 234.483 154.891 233.85 154.896 232.277C154.902 230.704 153.795 228.788 152.425 227.998Z" fill="#4A4D5A"/>
<path d="M138.013 243.152C137.999 243.054 137.982 242.956 137.963 242.858C137.95 242.792 137.938 242.723 137.923 242.659C137.909 242.594 137.894 242.534 137.877 242.472C137.856 242.384 137.834 242.298 137.809 242.21C137.794 242.16 137.777 242.11 137.763 242.06C137.732 241.961 137.699 241.864 137.664 241.767L137.621 241.645C137.569 241.51 137.517 241.375 137.459 241.24C137.451 241.226 137.445 241.212 137.44 241.198C137.386 241.078 137.329 240.959 137.271 240.84C137.252 240.803 137.234 240.767 137.215 240.732C137.159 240.62 137.098 240.51 137.037 240.401C137.025 240.38 137.013 240.359 137.002 240.337C136.928 240.21 136.851 240.086 136.771 239.963C136.748 239.926 136.724 239.893 136.701 239.856C136.641 239.768 136.58 239.682 136.518 239.595L136.417 239.46C136.363 239.389 136.307 239.325 136.252 239.249C136.197 239.174 136.157 239.132 136.109 239.075C136.06 239.018 136.017 238.97 135.974 238.918C135.894 238.829 135.813 238.743 135.73 238.658L135.609 238.536C135.441 238.375 135.27 238.222 135.093 238.083L134.998 238.013C134.816 237.872 134.626 237.743 134.428 237.627C134.279 237.541 134.125 237.465 133.967 237.397C133.918 237.377 133.871 237.358 133.822 237.34C133.736 237.306 133.649 237.277 133.564 237.251C133.51 237.235 133.455 237.218 133.402 237.205L133.252 237.173C133.186 237.16 133.117 237.151 133.058 237.143L132.948 237.132C132.87 237.128 132.792 237.128 132.714 237.132H132.659C132.568 237.138 132.478 237.149 132.389 237.166L132.324 237.181C132.256 237.196 132.189 237.216 132.123 237.239C132.102 237.246 132.081 237.252 132.062 237.26C131.979 237.292 131.898 237.33 131.821 237.375L150.945 226.261L150.965 226.249C151.025 226.215 151.086 226.186 151.149 226.16L151.186 226.147L151.246 226.125C151.279 226.114 151.31 226.101 151.342 226.091C151.375 226.082 151.414 226.075 151.449 226.067L151.513 226.052L151.548 226.044C151.621 226.031 151.695 226.023 151.769 226.018H151.837C151.895 226.018 151.952 226.018 152.011 226.018C152.032 226.018 152.052 226.018 152.072 226.018L152.183 226.029C152.217 226.029 152.25 226.029 152.284 226.04C152.318 226.051 152.346 226.053 152.376 226.059C152.406 226.064 152.476 226.079 152.526 226.091C152.553 226.091 152.58 226.101 152.607 226.109C152.634 226.117 152.661 226.129 152.688 226.137C152.773 226.163 152.859 226.193 152.948 226.226C152.977 226.237 153.007 226.244 153.038 226.257C153.069 226.271 153.073 226.276 153.091 226.283C153.249 226.351 153.403 226.428 153.552 226.513C153.75 226.629 153.941 226.758 154.123 226.899L154.218 226.969C154.397 227.111 154.569 227.263 154.733 227.422C154.746 227.436 154.762 227.446 154.776 227.461C154.789 227.476 154.827 227.517 154.854 227.544C154.937 227.629 155.019 227.715 155.099 227.805C155.124 227.833 155.152 227.859 155.176 227.887C155.2 227.915 155.216 227.937 155.238 227.961L155.38 228.136C155.411 228.173 155.443 228.21 155.473 228.249C155.503 228.288 155.52 228.314 155.545 228.346C155.569 228.379 155.614 228.438 155.647 228.481C155.681 228.525 155.695 228.544 155.716 228.576C155.756 228.631 155.791 228.687 155.827 228.742C155.851 228.777 155.876 228.813 155.899 228.849L155.928 228.892C155.993 228.995 156.064 229.098 156.118 229.203L156.13 229.223C156.142 229.245 156.153 229.267 156.165 229.287C156.207 229.361 156.25 229.435 156.289 229.511C156.308 229.546 156.326 229.581 156.343 229.616C156.361 229.652 156.381 229.689 156.399 229.726C156.416 229.762 156.432 229.789 156.447 229.822C156.489 229.908 156.528 229.995 156.566 230.083C156.566 230.098 156.581 230.112 156.587 230.127V230.139C156.634 230.249 156.679 230.359 156.722 230.468C156.73 230.488 156.737 230.508 156.743 230.529C156.75 230.549 156.773 230.61 156.786 230.65C156.8 230.691 156.827 230.758 156.846 230.814C156.865 230.869 156.872 230.9 156.885 230.949C156.899 230.997 156.916 231.049 156.931 231.099C156.946 231.149 156.951 231.161 156.959 231.192C156.976 231.249 156.986 231.304 157.001 231.361C157.016 231.418 157.032 231.485 157.047 231.547C157.047 231.569 157.058 231.591 157.062 231.612C157.073 231.658 157.077 231.703 157.086 231.747C157.104 231.845 157.122 231.943 157.136 232.041C157.136 232.066 157.146 232.093 157.15 232.12C157.154 232.147 157.15 232.17 157.15 232.195C157.176 232.408 157.19 232.623 157.192 232.838C157.192 233.993 156.787 234.805 156.123 235.188L136.999 246.301C137.656 245.919 138.064 245.107 138.067 243.952C138.066 243.737 138.052 243.523 138.025 243.31C138.026 243.254 138.021 243.203 138.013 243.152Z" fill="#D0D5E2"/>
<path d="M134.424 237.627C132.397 236.458 130.755 237.396 130.749 239.721C130.742 242.046 132.37 244.875 134.397 246.043C136.424 247.212 138.064 246.274 138.071 243.949C138.078 241.624 136.447 238.794 134.424 237.627Z" fill="#707482"/>
<path opacity="0.42" d="M165.93 214.642C166.507 218.817 172.561 222.105 179.955 222.105C187.349 222.105 193.386 218.826 193.984 214.656C193.386 210.487 187.33 207.208 179.955 207.208C172.58 207.208 166.536 210.48 165.93 214.642Z" fill="white"/>
<path d="M86.9265 28.5188L90.5047 26.452C91.0468 26.134 91.7814 26.1825 92.6028 26.646C92.8789 26.8071 93.1378 26.9958 93.3753 27.2092L94.8174 26.3819C95.609 25.843 96.7556 25.843 98.0296 26.584C99.6561 27.511 101.049 29.3326 101.795 31.262C102.083 31.2792 102.362 31.3671 102.608 31.518C103.161 31.8785 103.622 32.3635 103.951 32.9337C104.281 33.5039 104.471 34.1433 104.506 34.8001C104.506 34.8271 104.506 34.8513 104.506 34.8756C104.853 34.9102 105.188 35.0216 105.487 35.2016C106.842 35.975 107.927 37.8559 107.927 39.3999C107.927 40.1679 107.655 40.7068 107.224 40.9628L103.7 43L102.928 39.3137L92.6272 33.3854C91.307 32.6282 90.1875 30.9925 89.8189 29.4081L86.9265 28.5188Z" fill="#C4C4C4"/>
<path d="M88.9875 28.6899C89.4924 28.9943 89.9454 29.3789 90.3291 29.8291C90.8928 28.0036 92.6037 27.4369 94.6331 28.6216C96.3101 29.6012 97.773 31.5264 98.5453 33.5654C98.8444 33.5842 99.1346 33.676 99.3908 33.8331C99.9679 34.2148 100.448 34.7286 100.792 35.3327C101.135 35.9369 101.333 36.6144 101.369 37.3103C101.369 37.3359 101.369 37.3615 101.369 37.39C101.731 37.4234 102.081 37.5414 102.39 37.7346C103.799 38.5519 104.927 40.5369 104.927 42.1715C104.927 43.8062 103.799 44.4669 102.39 43.6495L88.9875 35.8323C87.2963 34.8469 85.9265 32.4491 85.9265 30.4755C85.9265 28.502 87.2963 27.7046 88.9875 28.6899Z" fill="white"/>
<defs>
<linearGradient id="paint0_linear_2_1317" x1="199.988" y1="251.678" x2="-6.87765" y2="193.323" gradientUnits="userSpaceOnUse">
<stop stop-color="#0B0B3A"/>
<stop offset="1" stop-color="#1F309E"/>
</linearGradient>
<linearGradient id="paint1_linear_2_1317" x1="210040" y1="220280" x2="508626" y2="222078" gradientUnits="userSpaceOnUse">
<stop stop-color="#0B0B3A"/>
<stop offset="1" stop-color="#1F309E"/>
</linearGradient>
<linearGradient id="paint2_linear_2_1317" x1="143.947" y1="213.857" x2="111.919" y2="209.92" gradientUnits="userSpaceOnUse">
<stop stop-color="#C3C3CD"/>
<stop offset="0.45" stop-color="white"/>
<stop offset="0.57" stop-color="#9B9DA4"/>
<stop offset="1" stop-color="#787B85"/>
</linearGradient>
<linearGradient id="paint3_linear_2_1317" x1="137.749" y1="131.377" x2="97.7556" y2="234.789" gradientUnits="userSpaceOnUse">
<stop stop-color="#BABBBB"/>
<stop offset="1" stop-color="#F4F4F4"/>
</linearGradient>
<linearGradient id="paint4_linear_2_1317" x1="111563" y1="77298.3" x2="136263" y2="98715" gradientUnits="userSpaceOnUse">
<stop stop-color="#C3C3CD"/>
<stop offset="0.45" stop-color="white"/>
<stop offset="0.57" stop-color="#9B9DA4"/>
<stop offset="1" stop-color="#787B85"/>
</linearGradient>
<linearGradient id="paint5_linear_2_1317" x1="145.005" y1="23.6669" x2="156.316" y2="128.656" gradientUnits="userSpaceOnUse">
<stop stop-color="#2D2F4F"/>
<stop offset="1" stop-color="#16192B"/>
</linearGradient>
<linearGradient id="paint6_linear_2_1317" x1="158.096" y1="138.007" x2="146.546" y2="43.9163" gradientUnits="userSpaceOnUse">
<stop stop-color="#38ACA8"/>
<stop offset="1" stop-color="#60637B"/>
</linearGradient>
<linearGradient id="paint7_linear_2_1317" x1="200.315" y1="134.459" x2="200.315" y2="159.897" gradientUnits="userSpaceOnUse">
<stop stop-color="#E8AF54"/>
<stop offset="1" stop-color="#D3782D"/>
</linearGradient>
<linearGradient id="paint8_linear_2_1317" x1="194.053" y1="147.431" x2="192.567" y2="167.636" gradientUnits="userSpaceOnUse">
<stop stop-color="#EDB55D"/>
<stop offset="1" stop-color="#DA8839"/>
</linearGradient>
<linearGradient id="paint9_linear_2_1317" x1="82772.1" y1="43354.5" x2="92001.7" y2="54978.9" gradientUnits="userSpaceOnUse">
<stop stop-color="#2D2F4F"/>
<stop offset="1" stop-color="#16192B"/>
</linearGradient>
<linearGradient id="paint10_linear_2_1317" x1="74501.4" y1="48358.2" x2="84682.1" y2="48358.2" gradientUnits="userSpaceOnUse">
<stop stop-color="#38ACA8"/>
<stop offset="1" stop-color="#60637B"/>
</linearGradient>
<linearGradient id="paint11_linear_2_1317" x1="65761.3" y1="27693.2" x2="73553.4" y2="27693.2" gradientUnits="userSpaceOnUse">
<stop stop-color="#38ACA8"/>
<stop offset="1" stop-color="#60637B"/>
</linearGradient>
<linearGradient id="paint12_linear_2_1317" x1="129.95" y1="54.7492" x2="173.719" y2="54.7492" gradientUnits="userSpaceOnUse">
<stop stop-color="#AF4E0C"/>
<stop offset="1" stop-color="#F25227"/>
</linearGradient>
<linearGradient id="paint13_linear_2_1317" x1="129.947" y1="27.4625" x2="168.348" y2="80.4791" gradientUnits="userSpaceOnUse">
<stop stop-color="#FFAC06"/>
<stop offset="1" stop-color="#F25227"/>
</linearGradient>
<linearGradient id="paint14_linear_2_1317" x1="68786.1" y1="58215.6" x2="82963.7" y2="58215.6" gradientUnits="userSpaceOnUse">
<stop stop-color="#2D2F4F"/>
<stop offset="1" stop-color="#16192B"/>
</linearGradient>
<linearGradient id="paint15_linear_2_1317" x1="64944.3" y1="44607.4" x2="83571.8" y2="61598.6" gradientUnits="userSpaceOnUse">
<stop stop-color="#38ACA8"/>
<stop offset="1" stop-color="#60637B"/>
</linearGradient>
<linearGradient id="paint16_linear_2_1317" x1="42784.1" y1="16478.4" x2="51193.5" y2="16478.4" gradientUnits="userSpaceOnUse">
<stop stop-color="#2D2F4F"/>
<stop offset="1" stop-color="#16192B"/>
</linearGradient>
<linearGradient id="paint17_linear_2_1317" x1="29679.5" y1="18548.6" x2="35296.3" y2="18548.6" gradientUnits="userSpaceOnUse">
<stop stop-color="#38ACA8"/>
<stop offset="1" stop-color="#60637B"/>
</linearGradient>
<linearGradient id="paint18_linear_2_1317" x1="51474.5" y1="34480.2" x2="70543.1" y2="34480.2" gradientUnits="userSpaceOnUse">
<stop stop-color="#38ACA8"/>
<stop offset="1" stop-color="#60637B"/>
</linearGradient>
<linearGradient id="paint19_linear_2_1317" x1="25910.9" y1="32715.2" x2="29253.8" y2="32715.2" gradientUnits="userSpaceOnUse">
<stop stop-color="#38ACA8"/>
<stop offset="1" stop-color="#60637B"/>
</linearGradient>
<linearGradient id="paint20_linear_2_1317" x1="22947.2" y1="19178.7" x2="25526.1" y2="19178.7" gradientUnits="userSpaceOnUse">
<stop stop-color="#38ACA8"/>
<stop offset="1" stop-color="#60637B"/>
</linearGradient>
<linearGradient id="paint21_linear_2_1317" x1="73480.3" y1="31418.9" x2="64011.7" y2="23110" gradientUnits="userSpaceOnUse">
<stop stop-color="#38ACA8"/>
<stop offset="1" stop-color="#60637B"/>
</linearGradient>
<linearGradient id="paint22_linear_2_1317" x1="2054.24" y1="7852.21" x2="2068.88" y2="7852.21" gradientUnits="userSpaceOnUse">
<stop stop-color="#2D2F4F"/>
<stop offset="1" stop-color="#16192B"/>
</linearGradient>
<linearGradient id="paint23_linear_2_1317" x1="65.7493" y1="94.101" x2="90.528" y2="94.101" gradientUnits="userSpaceOnUse">
<stop stop-color="#EA9600"/>
<stop offset="1" stop-color="#FFF066"/>
</linearGradient>
<linearGradient id="paint24_linear_2_1317" x1="30457.4" y1="29786.7" x2="38348.3" y2="29786.7" gradientUnits="userSpaceOnUse">
<stop stop-color="#EA9600"/>
<stop offset="1" stop-color="#FFF066"/>
</linearGradient>
<linearGradient id="paint25_linear_2_1317" x1="44627.3" y1="59568.8" x2="51442.3" y2="59568.8" gradientUnits="userSpaceOnUse">
<stop stop-color="#EA9600"/>
<stop offset="1" stop-color="#FFF066"/>
</linearGradient>
<linearGradient id="paint26_linear_2_1317" x1="50347.5" y1="23218.4" x2="57230.6" y2="23218.4" gradientUnits="userSpaceOnUse">
<stop stop-color="#EA9600"/>
<stop offset="1" stop-color="#FFF066"/>
</linearGradient>
</defs>
</svg>
