<svg width="217" height="224" viewBox="0 0 217 224" fill="none" xmlns="http://www.w3.org/2000/svg">
<path d="M204.078 4.41022C187.352 -3.75939 158.419 33.0773 123.075 10.5246C97.7955 -5.60639 57.5204 -4.27536 55.5882 33.1042C53.3974 75.4902 84.9503 92.2836 33.9436 112.549C-22.7224 135.062 -2.31841 207.487 63.5061 193.623C100.186 185.898 111.264 209.55 129.134 217.539C157.746 230.33 208.193 223.751 190.351 177.313C166.773 115.945 244.853 24.3256 204.078 4.41022Z" fill="#4DB8CA" fill-opacity="0.1"/>
<path d="M150.86 30.126V178.226C150.86 185.428 145.022 191.266 137.819 191.266H57.6313C50.4285 191.266 44.5906 185.428 44.5906 178.226V30.126C44.5906 22.9231 50.4285 17.0852 57.6313 17.0852H137.819C145.022 17.0852 150.86 22.9231 150.86 30.126Z" fill="#4DB8CA"/>
<path d="M142.166 30.126V178.226C142.166 180.625 140.214 182.573 137.819 182.573H57.6313C55.2318 182.573 53.2844 180.625 53.2844 178.226V30.126C53.2844 27.7265 55.2318 25.7791 57.6313 25.7791H72.2892C73.6758 25.7791 74.9799 26.4442 75.7971 27.5657L80.8135 34.4382C81.635 35.5597 82.9391 36.2248 84.3258 36.2248H111.12C112.507 36.2248 113.811 35.5597 114.628 34.4382L119.645 27.5657C120.466 26.4442 121.77 25.7791 123.157 25.7791H137.819C140.214 25.7791 142.166 27.7265 142.166 30.126Z" fill="white"/>
<path d="M109.824 31.1184C111.024 31.1184 111.997 30.1453 111.997 28.9449C111.997 27.7446 111.024 26.7715 109.824 26.7715C108.623 26.7715 107.65 27.7446 107.65 28.9449C107.65 30.1453 108.623 31.1184 109.824 31.1184Z" fill="white"/>
<path d="M101.485 31.1184C102.686 31.1184 103.659 30.1453 103.659 28.9449C103.659 27.7446 102.686 26.7715 101.485 26.7715C100.285 26.7715 99.312 27.7446 99.312 28.9449C99.312 30.1453 100.285 31.1184 101.485 31.1184Z" fill="white"/>
<path d="M154.014 157.939V172.001C154.014 173.745 152.601 175.158 150.858 175.158C149.114 175.158 147.701 173.745 147.701 172.001V157.939C147.701 156.195 149.114 154.782 150.858 154.782C152.601 154.782 154.014 156.195 154.014 157.939Z" fill="white"/>
<path d="M150.858 186.232C152.601 186.232 154.014 184.818 154.014 183.075C154.014 181.331 152.601 179.918 150.858 179.918C149.114 179.918 147.701 181.331 147.701 183.075C147.701 184.818 149.114 186.232 150.858 186.232Z" fill="white"/>
<path d="M130.689 62.94H66.4999C65.2997 62.94 64.3264 61.9667 64.3264 60.7666V48.077C64.3264 46.8768 65.2997 45.9036 66.4999 45.9036H130.689C131.889 45.9036 132.863 46.8768 132.863 48.077V60.7666C132.863 61.9667 131.889 62.94 130.689 62.94Z" fill="#4DB8CA"/>
<path d="M126.431 53.985C127.632 53.985 128.605 53.0119 128.605 51.8115C128.605 50.6112 127.632 49.6381 126.431 49.6381C125.231 49.6381 124.258 50.6112 124.258 51.8115C124.258 53.0119 125.231 53.985 126.431 53.985Z" fill="white"/>
<path d="M118.736 53.985C119.936 53.985 120.909 53.0119 120.909 51.8115C120.909 50.6112 119.936 49.6381 118.736 49.6381C117.536 49.6381 116.562 50.6112 116.562 51.8115C116.562 53.0119 117.536 53.985 118.736 53.985Z" fill="white"/>
<path d="M111.041 53.985C112.242 53.985 113.215 53.012 113.215 51.8116C113.215 50.6112 112.242 49.6381 111.041 49.6381C109.841 49.6381 108.868 50.6112 108.868 51.8116C108.868 53.012 109.841 53.985 111.041 53.985Z" fill="white"/>
<path d="M114.68 156.219C114.68 155.019 113.707 154.045 112.506 154.045H67.3693C66.1691 154.045 65.1958 155.019 65.1958 156.219C65.1958 157.419 66.1691 158.392 67.3693 158.392H112.507C113.707 158.392 114.68 157.42 114.68 156.219Z" fill="#FFAB66"/>
<path d="M112.506 161.756H67.3693C66.1691 161.756 65.1958 162.73 65.1958 163.93C65.1958 165.13 66.1686 166.103 67.3693 166.103H112.507C113.707 166.103 114.68 165.13 114.68 163.93C114.68 162.729 113.707 161.756 112.506 161.756Z" fill="#FFAB66"/>
<path d="M112.506 146.336H67.4622C66.3272 146.336 65.3135 147.166 65.2057 148.296C65.0823 149.592 66.0982 150.683 67.3692 150.683H112.507C113.707 150.683 114.68 149.709 114.68 148.509C114.68 147.309 113.707 146.336 112.506 146.336Z" fill="#FFAB66"/>
<path d="M86.7728 79.198H121.126C122.326 79.198 123.299 80.1713 123.299 81.3715C123.299 82.5716 122.326 83.5449 121.126 83.5449H86.7728C85.5726 83.5449 84.5993 82.5716 84.5993 81.3715C84.5993 80.1713 85.5726 79.198 86.7728 79.198Z" fill="#FFAB66"/>
<path d="M86.7728 71.4873H129.819C131.02 71.4873 131.993 72.4606 131.993 73.6608C131.993 74.861 131.02 75.8342 129.819 75.8342H86.7728C85.5726 75.8342 84.5993 74.861 84.5993 73.6608C84.5993 72.4606 85.5726 71.4873 86.7728 71.4873Z" fill="#FFAB66"/>
<path d="M71.8031 82.7527C71.2267 82.7527 70.6738 82.524 70.266 82.1158L66.689 78.5388C65.84 77.6902 65.84 76.314 66.689 75.4655C67.5379 74.6165 68.9137 74.6165 69.7627 75.4655L71.8027 77.5051L77.1837 72.124C78.0327 71.2751 79.4085 71.2751 80.2574 72.124C81.1064 72.9725 81.1064 74.3488 80.2574 75.1973L73.3393 82.1154C72.9324 82.524 72.3795 82.7527 71.8031 82.7527Z" fill="#4DB8CA"/>
<path d="M86.7728 104.147H121.126C122.326 104.147 123.299 105.121 123.299 106.321C123.299 107.521 122.326 108.494 121.126 108.494H86.7728C85.5726 108.494 84.5993 107.521 84.5993 106.321C84.5993 105.121 85.5726 104.147 86.7728 104.147Z" fill="#FFAB66"/>
<path d="M86.7728 96.4368H129.819C131.02 96.4368 131.993 97.41 131.993 98.6102C131.993 99.8104 131.02 100.784 129.819 100.784H86.7728C85.5726 100.784 84.5993 99.8104 84.5993 98.6102C84.5993 97.41 85.5726 96.4368 86.7728 96.4368Z" fill="#FFAB66"/>
<path d="M71.8031 107.702C71.2267 107.702 70.6738 107.473 70.266 107.065L66.689 103.488C65.84 102.64 65.84 101.263 66.689 100.415C67.5379 99.566 68.9137 99.566 69.7627 100.415L71.8027 102.455L77.1837 97.0735C78.0327 96.2245 79.4085 96.2245 80.2574 97.0735C81.1064 97.922 81.1064 99.2982 80.2574 100.147L73.3393 107.065C72.9324 107.473 72.3795 107.702 71.8031 107.702Z" fill="#4DB8CA"/>
<path d="M86.7728 129.097H121.126C122.326 129.097 123.299 130.07 123.299 131.27C123.299 132.471 122.326 133.444 121.126 133.444H86.7728C85.5726 133.444 84.5993 132.471 84.5993 131.27C84.5993 130.07 85.5726 129.097 86.7728 129.097Z" fill="#FFAB66"/>
<path d="M86.7728 121.386H129.819C131.02 121.386 131.993 122.36 131.993 123.56C131.993 124.76 131.02 125.733 129.819 125.733H86.7728C85.5726 125.733 84.5993 124.76 84.5993 123.56C84.5993 122.36 85.5726 121.386 86.7728 121.386Z" fill="#FFAB66"/>
<path d="M71.8031 132.652C71.2267 132.652 70.6738 132.423 70.266 132.015L66.689 128.438C65.84 127.589 65.84 126.213 66.689 125.364C67.5379 124.515 68.9137 124.515 69.7627 125.364L71.8027 127.404L77.1837 122.023C78.0327 121.174 79.4085 121.174 80.2574 122.023C81.1064 122.871 81.1064 124.248 80.2574 125.096L73.3393 132.014C72.9324 132.423 72.3795 132.652 71.8031 132.652Z" fill="#4DB8CA"/>
<path d="M25.4846 182.582C24.2844 182.582 23.3111 181.609 23.3111 180.408C23.3111 179.091 22.2387 178.018 20.9203 178.018C19.7201 178.018 18.7468 177.045 18.7468 175.844C18.7468 174.644 19.7201 173.671 20.9203 173.671C22.2387 173.671 23.3111 172.598 23.3111 171.28C23.3111 170.079 24.2844 169.107 25.4846 169.107C26.6847 169.107 27.658 170.079 27.658 171.28C27.658 172.598 28.7304 173.671 30.0488 173.671C31.249 173.671 32.2223 174.644 32.2223 175.844C32.2223 177.045 31.249 178.018 30.0488 178.018C28.7304 178.018 27.658 179.091 27.658 180.408C27.658 181.609 26.6852 182.582 25.4846 182.582Z" fill="#4DB8CA"/>
<path d="M171.969 124.412C170.768 124.412 169.795 123.439 169.795 122.239C169.795 120.921 168.723 119.848 167.404 119.848C166.204 119.848 165.231 118.875 165.231 117.674C165.231 116.474 166.204 115.501 167.404 115.501C168.723 115.501 169.795 114.428 169.795 113.11C169.795 111.909 170.768 110.937 171.969 110.937C173.169 110.937 174.142 111.909 174.142 113.11C174.142 114.428 175.215 115.501 176.533 115.501C177.733 115.501 178.706 116.474 178.706 117.674C178.706 118.875 177.733 119.848 176.533 119.848C175.215 119.848 174.142 120.921 174.142 122.239C174.142 123.439 173.169 124.412 171.969 124.412Z" fill="#FF9D33"/>
<path d="M171.969 33.5092C170.768 33.5092 169.795 32.5363 169.795 31.3357C169.795 30.0177 168.723 28.9449 167.404 28.9449C166.204 28.9449 165.231 27.972 165.231 26.7714C165.231 25.5708 166.204 24.598 167.404 24.598C168.723 24.598 169.795 23.5251 169.795 22.2072C169.795 21.0065 170.768 20.0337 171.969 20.0337C173.169 20.0337 174.142 21.0065 174.142 22.2072C174.142 23.5251 175.215 24.598 176.533 24.598C177.733 24.598 178.706 25.5708 178.706 26.7714C178.706 27.972 177.733 28.9449 176.533 28.9449C175.215 28.9449 174.142 30.0177 174.142 31.3357C174.142 32.5359 173.169 33.5092 171.969 33.5092Z" fill="#4DB8CA"/>
<path d="M171.969 51.8116C170.768 51.8116 169.795 50.8388 169.795 49.6382C169.795 48.3202 168.723 47.2474 167.404 47.2474C166.204 47.2474 165.231 46.2745 165.231 45.0739C165.231 43.8733 166.204 42.9005 167.404 42.9005C168.723 42.9005 169.795 41.8276 169.795 40.5096C169.795 39.309 170.768 38.3362 171.969 38.3362C173.169 38.3362 174.142 39.309 174.142 40.5096C174.142 41.8276 175.215 42.9005 176.533 42.9005C177.733 42.9005 178.706 43.8733 178.706 45.0739C178.706 46.2745 177.733 47.2474 176.533 47.2474C175.215 47.2474 174.142 48.3202 174.142 49.6382C174.142 50.8384 173.169 51.8116 171.969 51.8116Z" fill="#FF9D33"/>
<path d="M26.3867 156.247C25.1865 156.247 24.2132 155.274 24.2132 154.074C24.2132 152.756 23.1408 151.683 21.8224 151.683C20.6222 151.683 19.6489 150.71 19.6489 149.509C19.6489 148.309 20.6222 147.336 21.8224 147.336C23.1408 147.336 24.2132 146.263 24.2132 144.945C24.2132 143.744 25.1865 142.772 26.3867 142.772C27.5868 142.772 28.5601 143.744 28.5601 144.945C28.5601 146.263 29.6325 147.336 30.9509 147.336C32.1511 147.336 33.1244 148.309 33.1244 149.509C33.1244 150.71 32.1511 151.683 30.9509 151.683C29.6325 151.683 28.5601 152.756 28.5601 154.074C28.5601 155.274 27.5868 156.247 26.3867 156.247Z" fill="#FF9D33"/>
<path d="M98.4947 193.441H57.6293C49.2401 193.441 42.415 186.616 42.415 178.227V30.1246C42.415 21.7355 49.2401 14.9104 57.6293 14.9104H137.817C146.206 14.9104 153.032 21.7355 153.032 30.1246V114.282C153.032 115.482 152.058 116.455 150.858 116.455C149.658 116.455 148.685 115.482 148.685 114.282V30.1246C148.685 24.1324 143.81 19.2573 137.817 19.2573H57.6293C51.637 19.2573 46.762 24.1324 46.762 30.1246V178.226C46.762 184.219 51.637 189.094 57.6293 189.094H98.4947C99.6948 189.094 100.668 190.066 100.668 191.267C100.668 192.468 99.6953 193.441 98.4947 193.441Z" fill="#1B9296"/>
<path d="M181.316 167.103C181.316 177.209 176.95 186.295 170.001 192.579C163.911 198.086 155.837 201.44 146.979 201.44C128.016 201.44 112.643 186.067 112.643 167.103C112.643 148.14 128.016 132.767 146.979 132.767C165.943 132.767 181.316 148.14 181.316 167.103Z" fill="#4DB8CA"/>
<path d="M181.316 167.103C181.316 148.14 165.943 132.767 146.979 132.767C128.016 132.767 112.643 148.14 112.643 167.103C112.643 186.067 128.016 201.44 146.979 201.44" stroke="#1B9296" stroke-width="4" stroke-linecap="round"/>
<path d="M155.866 200.27C159.873 199.196 163.523 197.456 166.73 195.202" stroke="#1B9296" stroke-width="4" stroke-linecap="round"/>
<path d="M143.093 184.041C141.752 184.041 140.466 183.509 139.517 182.559L129.566 172.608C127.591 170.634 127.591 167.432 129.566 165.458C131.541 163.482 134.742 163.482 136.718 165.458L143.092 171.831L157.241 157.683C159.216 155.707 162.417 155.707 164.393 157.683C166.368 159.657 166.368 162.859 164.393 164.833L146.668 182.558C145.721 183.509 144.434 184.041 143.093 184.041Z" fill="#60C5D6"/>
<path d="M143.093 180.006C141.752 180.006 140.466 179.474 139.517 178.524L129.566 168.573C127.591 166.599 127.591 163.396 129.566 161.422C131.541 159.447 134.742 159.447 136.718 161.422L143.092 167.796L157.241 153.647C159.216 151.672 162.417 151.672 164.393 153.647C166.368 155.622 166.368 158.824 164.393 160.798L146.668 178.523C145.721 179.474 144.434 180.006 143.093 180.006Z" fill="white"/>
</svg>
