<svg width="216" height="224" viewBox="0 0 216 224" fill="none" xmlns="http://www.w3.org/2000/svg">
<path d="M203.578 4.68463C186.852 -3.48497 157.919 33.3517 122.576 10.799C97.2957 -5.33198 57.0207 -4.00095 55.0885 33.3787C52.8976 75.7646 84.4506 92.5581 33.4438 112.823C-23.2222 135.336 -2.81817 207.761 63.0064 193.898C99.6861 186.172 110.765 209.824 128.634 217.813C157.246 230.605 207.693 224.025 189.852 177.587C166.274 116.219 244.353 24.6 203.578 4.68463Z" fill="#4DB8CA" fill-opacity="0.1"/>
<path d="M200.756 50.1228L160.768 180.613C158.823 186.959 152.103 190.526 145.756 188.581L75.1033 166.93C68.7569 164.985 65.1895 158.265 67.1343 151.919L107.123 21.4288C109.068 15.0824 115.788 11.515 122.134 13.4598L192.787 35.1115C199.134 37.0564 202.701 43.7764 200.756 50.1228Z" fill="white"/>
<path d="M193.096 47.7753L153.107 178.265C152.459 180.379 150.214 181.568 148.103 180.921L77.4506 159.27C75.3364 158.622 74.1464 156.38 74.7943 154.266L114.783 23.7762C115.431 21.662 117.673 20.472 119.787 21.1199L132.702 25.0777L177.521 38.8127L190.44 42.7716C192.55 43.4183 193.744 45.6612 193.096 47.7753Z" fill="white"/>
<path d="M122.332 179.31L118.687 178.192C117.63 177.868 116.509 178.463 116.185 179.521C115.861 180.578 116.456 181.698 117.514 182.023L121.159 183.14C122.217 183.464 123.337 182.869 123.661 181.812C123.985 180.754 123.39 179.634 122.332 179.31Z" fill="#1B9296"/>
<path d="M173.651 131.729L163.084 166.213C162.76 167.27 163.354 168.391 164.412 168.715C165.469 169.039 166.59 168.444 166.914 167.387L177.481 132.903C177.805 131.845 177.211 130.725 176.153 130.401C175.095 130.077 173.975 130.672 173.651 131.729Z" fill="#1B9296"/>
<path d="M167.01 59.658L120.191 45.3103C119.134 44.9862 118.013 45.581 117.689 46.6385C117.365 47.6959 117.96 48.8162 119.017 49.1404L165.837 63.4882C166.894 63.8122 168.014 63.2175 168.338 62.16C168.662 61.102 168.068 59.9822 167.01 59.658Z" fill="#4DB8CA"/>
<path d="M178.816 55.7297L122.305 38.4118C121.248 38.0877 120.128 38.6825 119.804 39.74C119.479 40.7975 120.074 41.9177 121.132 42.2419L177.643 59.5598C178.7 59.8839 179.821 59.2891 180.145 58.2316C180.469 57.1737 179.874 56.0538 178.816 55.7297Z" fill="#4DB8CA"/>
<path d="M175.565 47.4691L124.341 31.7713C123.283 31.4472 122.163 32.042 121.839 33.0995C121.515 34.1569 122.109 35.2772 123.167 35.6014L174.391 51.2992C175.449 51.6233 176.569 51.0285 176.893 49.9711C177.217 48.9131 176.623 47.7933 175.565 47.4691Z" fill="#4DB8CA"/>
<path d="M157.374 91.1006L110.556 76.7529C109.498 76.4288 108.378 77.0236 108.054 78.081C107.73 79.1385 108.324 80.2587 109.382 80.5829L156.201 94.9307C157.259 95.2548 158.379 94.66 158.703 93.6026C159.027 92.5446 158.432 91.4248 157.374 91.1006Z" fill="#FFAB66"/>
<path d="M169.181 87.1722L112.67 69.8544C111.612 69.5303 110.492 70.1251 110.168 71.1825C109.844 72.24 110.438 73.3602 111.496 73.6844L168.007 91.0024C169.065 91.3264 170.185 90.7317 170.509 89.6742C170.833 88.6162 170.239 87.4964 169.181 87.1722Z" fill="#FFAB66"/>
<path d="M165.93 78.9115L114.705 63.2138C113.648 62.8897 112.527 63.4844 112.203 64.5419C111.879 65.5994 112.474 66.7196 113.532 67.0438L164.756 82.7417C165.814 83.0657 166.934 82.471 167.258 81.4135C167.582 80.3555 166.987 79.2357 165.93 78.9115Z" fill="#4DB8CA"/>
<path d="M147.739 122.543L100.92 108.195C99.8624 107.871 98.7421 108.466 98.418 109.523C98.094 110.581 98.6883 111.701 99.7462 112.025L146.565 126.373C147.623 126.697 148.743 126.102 149.067 125.045C149.391 123.987 148.797 122.867 147.739 122.543Z" fill="#FFAB66"/>
<path d="M159.545 118.615L103.034 101.297C101.977 100.973 100.856 101.567 100.532 102.625C100.208 103.682 100.803 104.803 101.86 105.127L158.372 122.445C159.429 122.769 160.549 122.174 160.874 121.117C161.197 120.059 160.603 118.939 159.545 118.615Z" fill="#FFAB66"/>
<path d="M156.294 110.354L105.07 94.656C104.012 94.3319 102.892 94.9267 102.568 95.9842C102.244 97.0417 102.838 98.1619 103.896 98.4861L155.121 114.184C156.178 114.508 157.298 113.913 157.622 112.856C157.946 111.798 157.352 110.678 156.294 110.354Z" fill="#4DB8CA"/>
<path d="M138.103 153.985L91.2844 139.637C90.2269 139.313 89.1066 139.908 88.7825 140.966C88.4585 142.023 89.0528 143.143 90.1107 143.468L136.93 157.815C137.987 158.139 139.108 157.545 139.432 156.487C139.756 155.429 139.161 154.309 138.103 153.985Z" fill="#FFAB66"/>
<path d="M149.91 150.057L93.3987 132.739C92.3412 132.415 91.2208 133.01 90.8968 134.067C90.5727 135.125 91.1671 136.245 92.2249 136.569L148.736 153.887C149.794 154.211 150.914 153.616 151.238 152.559C151.562 151.501 150.967 150.381 149.91 150.057Z" fill="#FFAB66"/>
<path d="M146.658 141.796L95.4338 126.098C94.3763 125.774 93.256 126.369 92.9319 127.427C92.6079 128.484 93.2022 129.604 94.2601 129.928L145.485 145.626C146.542 145.95 147.663 145.356 147.987 144.298C148.31 143.24 147.716 142.12 146.658 141.796Z" fill="#4DB8CA"/>
<path d="M110.521 179.88L74.5143 168.845C67.1227 166.58 62.952 158.724 65.2172 151.332L105.207 20.8402C107.472 13.4486 115.328 9.27792 122.72 11.5431L193.373 33.1949C200.765 35.4601 204.935 43.3165 202.67 50.7081L179.947 124.859C179.623 125.916 178.502 126.511 177.445 126.187C176.387 125.863 175.793 124.743 176.117 123.685L198.84 49.5344C200.458 44.2546 197.479 38.6429 192.199 37.0249L121.546 15.3731C116.266 13.7552 110.655 16.7342 109.037 22.0139L69.0474 152.506C67.4294 157.785 70.4085 163.397 75.6882 165.015L111.694 176.049C112.752 176.373 113.347 177.493 113.023 178.551C112.698 179.609 111.578 180.204 110.521 179.88Z" fill="#1B9296"/>
<path d="M131.889 38.4988L149.015 173.9C149.848 180.485 145.186 186.497 138.601 187.33L65.2887 196.603C58.7035 197.436 52.6911 192.774 51.8581 186.188L34.7321 50.7876C33.8992 44.2023 38.5615 38.1899 45.1467 37.357L118.459 28.0842C125.044 27.2513 131.056 31.9135 131.889 38.4988Z" fill="white"/>
<path d="M123.941 39.5041L141.067 174.905C141.344 177.099 139.785 179.105 137.595 179.382L64.2833 188.655C62.0895 188.932 60.0839 187.377 59.8064 185.183L42.6804 49.7822C42.4029 47.5885 43.9582 45.5828 46.1519 45.3054L59.5529 43.6104L106.059 37.7282L119.464 36.0326C121.654 35.7556 123.663 37.3104 123.941 39.5041Z" fill="white"/>
<path d="M113.436 188.495L109.653 188.974C108.556 189.113 107.779 190.115 107.918 191.212C108.056 192.309 109.058 193.087 110.156 192.948L113.939 192.469C115.036 192.331 115.813 191.328 115.675 190.231C115.535 189.133 114.533 188.356 113.436 188.495Z" fill="#1B9296"/>
<path d="M140.688 124.037L145.214 159.819C145.353 160.916 146.355 161.693 147.452 161.555C148.55 161.416 149.327 160.414 149.188 159.316L144.662 123.534C144.524 122.437 143.521 121.66 142.424 121.799C141.326 121.938 140.549 122.94 140.688 124.037Z" fill="#1B9296"/>
<path d="M105.036 61.0512L56.4549 67.1959C55.3576 67.3347 54.5803 68.3371 54.7191 69.4344C54.8579 70.5316 55.8599 71.309 56.9575 71.1701L105.539 65.0254C106.636 64.8866 107.413 63.8842 107.275 62.7869C107.135 61.6893 106.133 60.9124 105.036 61.0512Z" fill="#4DB8CA"/>
<path d="M114.187 52.6211L55.5496 60.0378C54.4523 60.1766 53.675 61.179 53.8138 62.2763C53.9526 63.3736 54.9546 64.1509 56.0523 64.012L114.69 56.5953C115.788 56.4565 116.565 55.4541 116.426 54.3568C116.287 53.2592 115.285 52.4823 114.187 52.6211Z" fill="#4DB8CA"/>
<path d="M107.83 46.4244L54.678 53.1473C53.5807 53.2861 52.8035 54.2884 52.9423 55.3857C53.081 56.483 54.083 57.2603 55.1807 57.1215L108.333 50.3985C109.43 50.2598 110.208 49.2574 110.069 48.1601C109.93 47.0625 108.928 46.2856 107.83 46.4244Z" fill="#4DB8CA"/>
<path d="M109.162 93.677L60.5816 99.8217C59.4843 99.9605 58.707 100.963 58.8458 102.06C58.9846 103.157 59.9866 103.935 61.0843 103.796L109.666 97.6512C110.763 97.5124 111.54 96.51 111.401 95.4127C111.262 94.3151 110.26 93.5382 109.162 93.677Z" fill="#FFAB66"/>
<path d="M118.314 85.2469L59.6763 92.6636C58.579 92.8024 57.8018 93.8047 57.9405 94.902C58.0793 95.9993 59.0813 96.7766 60.179 96.6378L118.817 89.221C119.914 89.0822 120.692 88.0798 120.553 86.9826C120.414 85.885 119.412 85.108 118.314 85.2469Z" fill="#FFAB66"/>
<path d="M111.957 79.0501L58.8047 85.773C57.7074 85.9118 56.9302 86.9142 57.069 88.0114C57.2078 89.1087 58.2097 89.886 59.3074 89.7472L112.46 83.0243C113.557 82.8855 114.334 81.8831 114.196 80.7858C114.056 79.6882 113.055 78.9113 111.957 79.0501Z" fill="#4DB8CA"/>
<path d="M113.289 126.303L64.708 132.447C63.6108 132.586 62.8335 133.588 62.9723 134.686C63.1111 135.783 64.113 136.56 65.2107 136.422L113.792 130.277C114.889 130.138 115.667 129.136 115.528 128.038C115.388 126.941 114.387 126.164 113.289 126.303Z" fill="#FFAB66"/>
<path d="M122.44 117.872L63.8028 125.289C62.7055 125.428 61.9282 126.43 62.067 127.528C62.2058 128.625 63.2078 129.402 64.3054 129.263L122.944 121.847C124.041 121.708 124.818 120.705 124.679 119.608C124.54 118.511 123.538 117.734 122.44 117.872Z" fill="#FFAB66"/>
<path d="M116.083 111.676L62.9312 118.399C61.8339 118.537 61.0566 119.54 61.1954 120.637C61.3342 121.734 62.3362 122.512 63.4339 122.373L116.586 115.65C117.684 115.511 118.461 114.509 118.322 113.411C118.183 112.314 117.181 111.537 116.083 111.676Z" fill="#4DB8CA"/>
<path d="M117.416 158.928L68.8348 165.073C67.7375 165.212 66.9602 166.214 67.099 167.312C67.2378 168.409 68.2398 169.186 69.3374 169.047L117.919 162.903C119.016 162.764 119.793 161.761 119.654 160.664C119.515 159.567 118.513 158.79 117.416 158.928Z" fill="#FFAB66"/>
<path d="M126.567 150.498L67.9295 157.915C66.8322 158.054 66.0549 159.056 66.1937 160.153C66.3325 161.251 67.3345 162.028 68.4322 161.889L127.07 154.472C128.167 154.334 128.945 153.331 128.806 152.234C128.667 151.136 127.665 150.359 126.567 150.498Z" fill="#FFAB66"/>
<path d="M120.21 144.301L67.0581 151.024C65.9609 151.163 65.1836 152.165 65.3224 153.263C65.4612 154.36 66.4631 155.137 67.5608 154.998L120.713 148.276C121.811 148.137 122.588 147.134 122.449 146.037C122.31 144.94 121.308 144.163 120.21 144.301Z" fill="#4DB8CA"/>
<path d="M102.9 193.866L65.5386 198.591C57.8688 199.561 50.8397 194.111 49.8695 186.441L32.7432 51.0379C31.7731 43.3681 37.2238 36.3389 44.8936 35.3688L118.206 26.096C125.876 25.1259 132.905 30.5765 133.875 38.2463L143.607 115.187C143.746 116.285 142.968 117.287 141.871 117.426C140.774 117.565 139.771 116.788 139.633 115.69L129.901 38.749C129.208 33.2706 124.187 29.3773 118.709 30.0702L45.3962 39.343C39.9178 40.0359 36.0245 45.0568 36.7174 50.5352L53.8437 185.938C54.5366 191.416 59.5574 195.31 65.0359 194.617L102.397 189.891C103.495 189.752 104.497 190.529 104.636 191.627C104.775 192.725 103.998 193.727 102.9 193.866Z" fill="#1B9296"/>
<path d="M159.287 63.0079V199.487C159.287 206.125 153.908 211.505 147.27 211.505H73.3738C66.7361 211.505 61.3562 206.125 61.3562 199.487L61.3562 63.0079C61.3562 56.3702 66.7361 50.9904 73.3738 50.9904H147.27C153.908 50.9904 159.287 56.3702 159.287 63.0079Z" fill="white"/>
<path d="M151.276 63.0078V199.487C151.276 201.699 149.477 203.493 147.27 203.493H73.3738C71.1625 203.493 69.3679 201.699 69.3679 199.487V63.0078C69.3679 60.7966 71.1625 59.002 73.3738 59.002H86.8815L133.758 59.002L147.27 59.002C149.477 59.002 151.276 60.7966 151.276 63.0078Z" fill="white"/>
<path d="M122.157 209.503H118.345C117.239 209.503 116.342 210.4 116.342 211.506C116.342 212.612 117.239 213.509 118.345 213.509H122.158C123.264 213.509 124.161 212.612 124.161 211.506C124.16 210.4 123.264 209.503 122.157 209.503Z" fill="#1B9296"/>
<path d="M157.283 148.975L157.283 185.041C157.283 186.147 158.18 187.044 159.286 187.044C160.392 187.044 161.289 186.147 161.289 185.041L161.289 148.974C161.289 147.868 160.392 146.971 159.286 146.971C158.18 146.972 157.283 147.868 157.283 148.975Z" fill="#1B9296"/>
<path d="M129.816 82.0124H80.8484C79.7424 82.0124 78.8455 82.9093 78.8455 84.0153C78.8455 85.1213 79.742 86.0182 80.8484 86.0182H129.817C130.923 86.0182 131.82 85.1213 131.82 84.0153C131.819 82.9089 130.923 82.0124 129.816 82.0124Z" fill="#4DB8CA"/>
<path d="M139.953 74.7973H80.8484C79.7424 74.7973 78.8455 75.6942 78.8455 76.8002C78.8455 77.9062 79.742 78.8032 80.8484 78.8032H139.954C141.06 78.8032 141.957 77.9062 141.957 76.8002C141.956 75.6938 141.06 74.7973 139.953 74.7973Z" fill="#4DB8CA"/>
<path d="M134.424 67.8517H80.8486C79.7426 67.8517 78.8457 68.7487 78.8457 69.8547C78.8457 70.9607 79.7422 71.8576 80.8486 71.8576H134.425C135.531 71.8576 136.428 70.9607 136.428 69.8547C136.427 68.7483 135.531 67.8517 134.424 67.8517Z" fill="#4DB8CA"/>
<path d="M129.816 114.898H80.8484C79.7424 114.898 78.8455 115.795 78.8455 116.901C78.8455 118.007 79.742 118.904 80.8484 118.904H129.817C130.923 118.904 131.82 118.007 131.82 116.901C131.819 115.794 130.923 114.898 129.816 114.898Z" fill="#FFAB66"/>
<path d="M139.953 107.683H80.8484C79.7424 107.683 78.8455 108.58 78.8455 109.686C78.8455 110.792 79.742 111.689 80.8484 111.689H139.954C141.06 111.689 141.957 110.792 141.957 109.686C141.956 108.579 141.06 107.683 139.953 107.683Z" fill="#FFAB66"/>
<path d="M134.424 100.737H80.8486C79.7426 100.737 78.8457 101.634 78.8457 102.74C78.8457 103.846 79.7422 104.743 80.8486 104.743H134.425C135.531 104.743 136.428 103.846 136.428 102.74C136.427 101.634 135.531 100.737 134.424 100.737Z" fill="#4DB8CA"/>
<path d="M129.816 147.784H80.8484C79.7424 147.784 78.8455 148.681 78.8455 149.787C78.8455 150.893 79.742 151.789 80.8484 151.789H129.817C130.923 151.789 131.82 150.893 131.82 149.787C131.819 148.68 130.923 147.784 129.816 147.784Z" fill="#FFAB66"/>
<path d="M139.953 140.569H80.8484C79.7424 140.569 78.8455 141.465 78.8455 142.572C78.8455 143.678 79.742 144.574 80.8484 144.574H139.954C141.06 144.574 141.957 143.678 141.957 142.572C141.956 141.465 141.06 140.569 139.953 140.569Z" fill="#FFAB66"/>
<path d="M134.424 133.623H80.8486C79.7426 133.623 78.8457 134.52 78.8457 135.626C78.8457 136.732 79.7422 137.629 80.8486 137.629H134.425C135.531 137.629 136.428 136.732 136.428 135.626C136.427 134.519 135.531 133.623 134.424 133.623Z" fill="#4DB8CA"/>
<path d="M129.816 180.669H80.8484C79.7424 180.669 78.8455 181.566 78.8455 182.672C78.8455 183.778 79.742 184.675 80.8484 184.675H129.817C130.923 184.675 131.82 183.778 131.82 182.672C131.819 181.566 130.923 180.669 129.816 180.669Z" fill="#FFAB66"/>
<path d="M139.953 173.454H80.8484C79.7424 173.454 78.8455 174.351 78.8455 175.457C78.8455 176.563 79.742 177.46 80.8484 177.46H139.954C141.06 177.46 141.957 176.563 141.957 175.457C141.956 174.351 141.06 173.454 139.953 173.454Z" fill="#FFAB66"/>
<path d="M134.424 166.509H80.8486C79.7426 166.509 78.8457 167.406 78.8457 168.512C78.8457 169.618 79.7422 170.514 80.8486 170.514H134.425C135.531 170.514 136.428 169.618 136.428 168.512C136.427 167.405 135.531 166.509 134.424 166.509Z" fill="#4DB8CA"/>
<path d="M111.031 213.509H73.3721C65.6412 213.509 59.3516 207.22 59.3516 199.489L59.3516 63.0068C59.3516 55.2759 65.6412 48.9863 73.3721 48.9863H147.269C154.999 48.9863 161.289 55.2759 161.289 63.0068V140.561C161.289 141.667 160.392 142.564 159.286 142.564C158.18 142.564 157.283 141.667 157.283 140.561V63.0068C157.283 57.4848 152.791 52.9922 147.269 52.9922H73.3721C67.85 52.9922 63.3574 57.4848 63.3574 63.0068L63.3574 199.488C63.3574 205.01 67.85 209.503 73.3721 209.503H111.031C112.137 209.503 113.034 210.4 113.034 211.506C113.034 212.612 112.138 213.509 111.031 213.509Z" fill="#1B9296"/>
<path d="M195.673 184.626C195.673 194.732 191.307 203.818 184.358 210.101C178.268 215.608 170.194 218.962 161.336 218.962C142.373 218.962 127 203.589 127 184.626C127 165.662 142.373 150.29 161.336 150.29C180.3 150.29 195.673 165.662 195.673 184.626Z" fill="#4DB8CA"/>
<path d="M195.673 184.626C195.673 165.662 180.3 150.29 161.336 150.29C142.373 150.29 127 165.662 127 184.626C127 203.589 142.373 218.962 161.336 218.962" stroke="#1B9296" stroke-width="4" stroke-linecap="round"/>
<path d="M170.223 217.792C174.23 216.718 177.88 214.979 181.087 212.724" stroke="#1B9296" stroke-width="4" stroke-linecap="round"/>
<path d="M155.949 186.977C153.613 186.975 151.375 186.035 149.725 184.368C148.076 182.7 147.15 180.441 147.148 178.087V171.746C147.148 171.042 147.424 170.364 147.92 169.863C148.415 169.362 149.09 169.079 149.794 169.079C150.499 169.079 151.173 169.362 151.669 169.863C152.164 170.364 152.441 171.042 152.441 171.746L152.441 178.086C152.442 179.031 152.814 179.937 153.473 180.603C154.132 181.269 155.023 181.642 155.95 181.643L160.69 181.643L160.69 171.746C160.69 171.042 160.967 170.364 161.462 169.863C161.958 169.362 162.632 169.079 163.336 169.079C164.041 169.079 164.715 169.362 165.211 169.863C165.706 170.364 165.983 171.042 165.983 171.746L165.983 181.643L170.722 181.643C171.65 181.642 172.541 181.269 173.2 180.603C173.859 179.937 174.231 179.032 174.232 178.086L174.232 171.746C174.232 171.042 174.509 170.364 175.004 169.863C175.5 169.362 176.174 169.079 176.879 169.079C177.583 169.079 178.257 169.362 178.753 169.863C179.248 170.364 179.525 171.042 179.525 171.746V178.086C179.523 180.441 178.597 182.7 176.948 184.368C175.298 186.035 173.06 186.975 170.724 186.977H165.983L165.983 195.051L168.233 192.776C168.729 192.275 169.403 191.992 170.107 191.992C170.812 191.992 171.486 192.275 171.982 192.776C172.477 193.277 172.754 193.954 172.754 194.659C172.754 195.363 172.477 196.041 171.982 196.542L165.211 203.388C164.966 203.636 164.674 203.833 164.352 203.968C164.03 204.103 163.685 204.172 163.336 204.172C162.988 204.172 162.642 204.103 162.321 203.968C161.999 203.833 161.707 203.636 161.462 203.388L154.691 196.542C154.195 196.041 153.919 195.363 153.919 194.659C153.919 193.954 154.195 193.277 154.691 192.776C155.186 192.275 155.861 191.992 156.565 191.992C157.27 191.992 157.944 192.275 158.44 192.776L160.69 195.051L160.69 186.977H155.949Z" fill="#60C5D6"/>
<path d="M153.949 184.977C151.613 184.975 149.375 184.035 147.725 182.368C146.076 180.7 145.15 178.441 145.148 176.087V169.746C145.148 169.042 145.424 168.364 145.92 167.863C146.415 167.362 147.09 167.079 147.794 167.079C148.499 167.079 149.173 167.362 149.669 167.863C150.164 168.364 150.441 169.042 150.441 169.746L150.441 176.086C150.442 177.031 150.814 177.937 151.473 178.603C152.132 179.269 153.023 179.642 153.95 179.643L158.69 179.643L158.69 169.746C158.69 169.042 158.967 168.364 159.462 167.863C159.958 167.362 160.632 167.079 161.336 167.079C162.041 167.079 162.715 167.362 163.211 167.863C163.706 168.364 163.983 169.042 163.983 169.746L163.983 179.643L168.722 179.643C169.65 179.642 170.541 179.269 171.2 178.603C171.859 177.937 172.231 177.032 172.232 176.086L172.232 169.746C172.232 169.042 172.509 168.364 173.004 167.863C173.5 167.362 174.174 167.079 174.879 167.079C175.583 167.079 176.257 167.362 176.753 167.863C177.248 168.364 177.525 169.042 177.525 169.746V176.086C177.523 178.441 176.597 180.7 174.948 182.368C173.298 184.035 171.06 184.975 168.724 184.977H163.983L163.983 193.051L166.233 190.776C166.729 190.275 167.403 189.992 168.107 189.992C168.812 189.992 169.486 190.275 169.982 190.776C170.477 191.277 170.754 191.954 170.754 192.659C170.754 193.363 170.477 194.041 169.982 194.542L163.211 201.388C162.966 201.636 162.674 201.833 162.352 201.968C162.03 202.103 161.685 202.172 161.336 202.172C160.988 202.172 160.642 202.103 160.321 201.968C159.999 201.833 159.707 201.636 159.462 201.388L152.691 194.542C152.195 194.041 151.919 193.363 151.919 192.659C151.919 191.954 152.195 191.277 152.691 190.776C153.186 190.275 153.861 189.992 154.565 189.992C155.27 189.992 155.944 190.275 156.44 190.776L158.69 193.051L158.69 184.977H153.949Z" fill="white"/>
</svg>
