<svg width="20" height="20" viewBox="0 0 20 20" fill="none" xmlns="http://www.w3.org/2000/svg">
<path d="M17.5751 5.81667C16.8667 5.03334 15.6834 4.64167 13.9667 4.64167H13.7667V4.60834C13.7667 3.20834 13.7667 1.47501 10.6334 1.47501H9.36672C6.23338 1.47501 6.23338 3.21667 6.23338 4.60834V4.65001H6.03338C4.30838 4.65001 3.13338 5.04167 2.42505 5.82501C1.60005 6.74167 1.62505 7.97501 1.70838 8.81667L1.71672 8.87501L1.77751 9.51329C1.79177 9.66306 1.87252 9.79844 1.99852 9.88066C2.20057 10.0125 2.51031 10.2113 2.70005 10.3167C2.81672 10.3917 2.94172 10.4583 3.06672 10.525C4.49172 11.3083 6.05838 11.8333 7.65005 12.0917C7.72505 12.875 8.06672 13.7917 9.89172 13.7917C11.7167 13.7917 12.0751 12.8833 12.1334 12.075C13.8334 11.8 15.4751 11.2083 16.9584 10.3417C17.0084 10.3167 17.0417 10.2917 17.0834 10.2667C17.4036 10.0857 17.7354 9.864 18.04 9.64533C18.1532 9.56406 18.2255 9.43792 18.2409 9.29941L18.2501 9.21667L18.2917 8.82501C18.3001 8.77501 18.3001 8.73334 18.3084 8.67501C18.3751 7.83334 18.3584 6.68334 17.5751 5.81667ZM10.9084 11.525C10.9084 12.4083 10.9084 12.5417 9.88338 12.5417C8.85838 12.5417 8.85838 12.3833 8.85838 11.5333V10.4833H10.9084V11.525ZM7.42505 4.64167V4.60834C7.42505 3.19167 7.42505 2.66667 9.36672 2.66667H10.6334C12.5751 2.66667 12.5751 3.20001 12.5751 4.60834V4.65001H7.42505V4.64167Z" fill="#4DB8CA"/>
<path d="M17.2596 11.5091C17.6137 11.3417 18.0209 11.6223 17.9855 12.0123L17.6999 15.1583C17.5249 16.825 16.8416 18.525 13.1749 18.525H6.82489C3.15822 18.525 2.47489 16.825 2.29989 15.1666L2.02918 12.1888C1.99414 11.8033 2.39246 11.5233 2.74549 11.682C3.7047 12.113 5.3167 12.8064 6.35268 13.0854C6.51669 13.1296 6.64984 13.2476 6.72424 13.4003C7.23845 14.4556 8.32763 15.0166 9.89156 15.0166C11.4401 15.0166 12.5426 14.4339 13.0587 13.3755C13.1332 13.2227 13.2663 13.1048 13.4304 13.0603C14.5322 12.7618 16.2535 11.9846 17.2596 11.5091Z" fill="#4DB8CA"/>
</svg>
