<svg width="17" height="18" viewBox="0 0 17 18" fill="none" xmlns="http://www.w3.org/2000/svg">
<path d="M11.3847 2.02972e-06C11.7668 -0.00089548 12.0689 0.295956 12.0698 0.691757L12.0707 1.36642C14.5499 1.56072 16.1875 3.25008 16.1902 5.84078L16.2 13.424C16.2035 16.2486 14.429 17.9865 11.5846 17.991L4.6367 18C1.81008 18.0036 0.0133409 16.2243 0.00978649 13.3916L5.96465e-06 5.89745C-0.00354243 3.28966 1.57638 1.6048 4.05556 1.37721L4.05467 0.702552C4.05378 0.30675 4.34702 0.00899956 4.738 0.00899956C5.12898 0.00810001 5.42222 0.304951 5.42311 0.700753L5.42399 1.33044L10.7022 1.32324L10.7014 0.693556C10.7005 0.297755 10.9937 0.000903618 11.3847 2.02972e-06ZM11.7472 12.7727H11.7383C11.3296 12.7826 11.0017 13.1253 11.0106 13.5391C11.0115 13.9529 11.3411 14.2938 11.7499 14.3028C12.1667 14.3019 12.5043 13.9592 12.5034 13.5364C12.5034 13.1136 12.1649 12.7727 11.7472 12.7727ZM4.42521 12.7736C4.01646 12.7916 3.69657 13.1343 3.69745 13.5481C3.71611 13.9619 4.05378 14.2857 4.46253 14.2669C4.86329 14.2489 5.1823 13.9061 5.16364 13.4923C5.15475 13.0875 4.82508 12.7727 4.42521 12.7736ZM8.08622 12.7691C7.67747 12.788 7.35847 13.1298 7.35847 13.5436C7.37713 13.9574 7.71479 14.2803 8.12354 14.2624C8.52341 14.2435 8.84331 13.9016 8.82465 13.4869C8.81576 13.083 8.48609 12.7682 8.08622 12.7691ZM4.42077 9.53522C4.01202 9.55322 3.69301 9.89594 3.6939 10.3097C3.71167 10.7235 4.05023 11.0474 4.45898 11.0285C4.85885 11.0105 5.17785 10.6678 5.15919 10.254C5.15031 9.84917 4.82153 9.53433 4.42077 9.53522ZM8.08267 9.50374C7.67392 9.52173 7.35402 9.86446 7.35491 10.2783C7.37268 10.692 7.71124 11.015 8.11999 10.997C8.51986 10.9781 8.83886 10.6363 8.82109 10.2225C8.81132 9.81768 8.48254 9.50284 8.08267 9.50374ZM11.7437 9.50824C11.3349 9.51723 11.015 9.85007 11.0159 10.2639V10.2738C11.0248 10.6875 11.3625 11.0015 11.7721 10.9925C12.172 10.9826 12.491 10.6399 12.4821 10.2261C12.4634 9.83028 12.1427 9.50734 11.7437 9.50824ZM10.704 2.70855L5.42577 2.71574L5.42666 3.44348C5.42666 3.83118 5.13431 4.13703 4.74333 4.13703C4.35235 4.13793 4.05822 3.83298 4.05822 3.44528L4.05734 2.75262C2.32458 2.92624 1.36578 3.94453 1.36844 5.89565L1.36934 6.17541L14.8227 6.15742V5.84258C14.7845 3.90855 13.8141 2.89385 12.0725 2.74273L12.0733 3.43538C12.0733 3.82219 11.7721 4.12893 11.39 4.12893C10.999 4.12983 10.7049 3.82399 10.7049 3.43718L10.704 2.70855Z" fill="#4DB8CA"/>
</svg>
