<svg xmlns="http://www.w3.org/2000/svg" width="10.919" height="9.463" viewBox="0 0 10.919 9.463">
  <path id="camera" d="M5.46,3.822A1.64,1.64,0,0,1,7.1,5.46,1.64,1.64,0,0,1,5.46,7.1,1.64,1.64,0,0,1,3.822,5.46,1.64,1.64,0,0,1,5.46,3.822Zm4-2.366a1.4,1.4,0,0,1,1.029.426,1.4,1.4,0,0,1,.426,1.029v5.1A1.456,1.456,0,0,1,9.463,9.463H1.456A1.4,1.4,0,0,1,.426,9.037,1.4,1.4,0,0,1,0,8.007v-5.1A1.4,1.4,0,0,1,.426,1.882a1.4,1.4,0,0,1,1.029-.426H2.73L3.02.682a1.054,1.054,0,0,1,.4-.48A1.015,1.015,0,0,1,4,0H6.915A1.013,1.013,0,0,1,7.5.2a1.056,1.056,0,0,1,.4.48l.29.773Zm-4,6.551a2.453,2.453,0,0,0,1.8-.748,2.455,2.455,0,0,0,.748-1.8,2.452,2.452,0,0,0-.748-1.8,2.454,2.454,0,0,0-1.8-.748,2.454,2.454,0,0,0-1.8.748,2.452,2.452,0,0,0-.748,1.8,2.455,2.455,0,0,0,.748,1.8A2.453,2.453,0,0,0,5.46,8.007Z" fill="#172331"/>
</svg>
