<svg width="20" height="20" viewBox="0 0 20 20" fill="none" xmlns="http://www.w3.org/2000/svg">
<path d="M14.025 13.0333C14.5833 12.6667 15.3166 13.0667 15.3166 13.7333V14.8083C15.3166 15.8667 14.4916 17 13.5 17.3333L10.8416 18.2167C10.375 18.375 9.61662 18.375 9.15829 18.2167L6.49996 17.3333C5.49996 17 4.68329 15.8667 4.68329 14.8083V13.725C4.68329 13.0667 5.41662 12.6667 5.96662 13.025L7.68329 14.1417C8.34162 14.5833 9.17496 14.8 10.0083 14.8C10.8416 14.8 11.675 14.5833 12.3333 14.1417L14.025 13.0333Z" fill="#4DB8CA"/>
<path d="M16.65 5.38333L11.6583 2.10833C10.7584 1.51666 9.27502 1.51666 8.37502 2.10833L3.35835 5.38333C1.75002 6.425 1.75002 8.78333 3.35835 9.83333L4.69168 10.7L8.37502 13.1C9.27502 13.6917 10.7584 13.6917 11.6583 13.1L15.3167 10.7L16.4584 9.95V12.5C16.4584 12.8417 16.7417 13.125 17.0834 13.125C17.425 13.125 17.7084 12.8417 17.7084 12.5V8.4C18.0417 7.325 17.7 6.075 16.65 5.38333Z" fill="#4DB8CA"/>
</svg>
