<svg width="14" height="14" viewBox="0 0 14 14" fill="none" xmlns="http://www.w3.org/2000/svg">
<path d="M7 0C10.871 0 14 3.136 14 7C14 10.871 10.871 14 7 14C3.136 14 0 10.871 0 7C0 3.136 3.136 0 7 0ZM6.755 3.451C6.468 3.451 6.23 3.682 6.23 3.976V7.511C6.23 7.693 6.328 7.861 6.489 7.959L9.233 9.597C9.317 9.646 9.408 9.674 9.506 9.674C9.681 9.674 9.856 9.583 9.954 9.415C10.101 9.17 10.024 8.848 9.772 8.694L7.28 7.21V3.976C7.28 3.682 7.042 3.451 6.755 3.451Z" fill="#858585" fill-opacity="0.3"/>
</svg>
