<svg width="20" height="16" viewBox="0 0 20 16" fill="none" xmlns="http://www.w3.org/2000/svg">
<path fill-rule="evenodd" clip-rule="evenodd" d="M18.417 0.203546C18.71 0.47494 18.71 0.914914 18.417 1.18631L2.64334 15.7962C2.49734 15.9324 2.30535 16 2.11335 16C1.92136 16 1.72936 15.9324 1.58336 15.7962C1.29037 15.5248 1.29037 15.0858 1.58336 14.8144L3.55527 12.989C2.14148 11.7912 0.942195 10.1765 0.0614986 8.27517C-0.0204995 8.09918 -0.0204995 7.90096 0.0614986 7.7259C1.08248 5.53622 2.52044 3.72352 4.22041 2.48511C7.51316 0.0713211 11.842 -0.0568035 15.2683 2.13807L17.357 0.203546C17.65 -0.0678486 18.124 -0.0678486 18.417 0.203546ZM18.0468 4.66905C18.7708 5.55919 19.4068 6.58826 19.9377 7.72386C20.0207 7.89985 20.0207 8.09992 19.9377 8.27498C17.8418 12.7738 14.1269 15.4591 9.99998 15.4591C9.063 15.4591 8.13102 15.3183 7.23104 15.0413C6.83805 14.92 6.62505 14.5263 6.75605 14.1623C6.88704 13.7974 7.31004 13.6038 7.70503 13.7223C8.45201 13.953 9.22399 14.0697 9.99998 14.0697C13.4279 14.0697 16.5608 11.8077 18.4298 7.99988C17.9738 7.07455 17.4428 6.23628 16.8488 5.50454C16.5998 5.19794 16.6658 4.76168 16.9968 4.53104C17.3268 4.3004 17.7978 4.36338 18.0468 4.66905ZM5.14938 3.57625C3.71342 4.62292 2.48044 6.14755 1.57046 8.00192C2.36389 9.62514 3.40625 10.9941 4.61695 12.005L6.7547 10.025C6.31979 9.43229 6.08576 8.73343 6.08576 8.00155C6.08576 6.00083 7.84172 4.37339 9.99967 4.37339C10.7826 4.37339 11.5485 4.59422 12.1862 4.99333L14.1877 3.13952C11.3349 1.43128 7.86281 1.58712 5.14938 3.57625ZM13.2372 7.8376C13.6452 7.90522 13.9162 8.26646 13.8432 8.64438C13.5562 10.1199 12.2942 11.2907 10.7023 11.5593C10.6573 11.5667 10.6113 11.5704 10.5673 11.5704C10.2123 11.5704 9.89628 11.3352 9.83028 10.9999C9.75628 10.6229 10.0263 10.2607 10.4343 10.1922C11.4142 10.0273 12.1902 9.30665 12.3662 8.39799C12.4402 8.021 12.8302 7.77276 13.2372 7.8376ZM9.99967 5.76278C8.6687 5.76278 7.58573 6.76685 7.58573 8.00155C7.58573 8.35852 7.67645 8.70309 7.84747 9.01253L11.093 6.00587C10.7589 5.84814 10.3831 5.76278 9.99967 5.76278Z" fill="#858585"/>
</svg>
