<svg width="17" height="17" viewBox="0 0 17 17" fill="none" xmlns="http://www.w3.org/2000/svg">
<path d="M15.3 0H1.7C0.76245 0 0 0.76245 0 1.7V17L3.4 13.6H15.3C16.2376 13.6 17 12.8376 17 11.9V1.7C17 0.76245 16.2376 0 15.3 0ZM5.95 8.5C5.7267 8.49994 5.50559 8.45591 5.29931 8.3704C5.09302 8.28489 4.9056 8.1596 4.74774 8.00166C4.58988 7.84372 4.46468 7.65623 4.37927 7.44991C4.29387 7.24358 4.24994 7.02245 4.25 6.79915C4.25006 6.57585 4.29409 6.35474 4.3796 6.14846C4.46511 5.94217 4.5904 5.75475 4.74834 5.59689C4.90628 5.43903 5.09377 5.31383 5.30009 5.22842C5.50642 5.14302 5.72755 5.09909 5.95085 5.09915C6.40183 5.09926 6.8343 5.27852 7.15311 5.59749C7.47192 5.91646 7.65096 6.34902 7.65085 6.8C7.65074 7.25098 7.47148 7.68345 7.15251 8.00226C6.83354 8.32107 6.40098 8.50011 5.95 8.5ZM11.05 8.5C10.8267 8.49994 10.6056 8.45591 10.3993 8.3704C10.193 8.28489 10.0056 8.1596 9.84774 8.00166C9.68988 7.84372 9.56468 7.65623 9.47927 7.44991C9.39387 7.24358 9.34994 7.02245 9.35 6.79915C9.35006 6.57585 9.39409 6.35474 9.4796 6.14846C9.56511 5.94217 9.6904 5.75475 9.84834 5.59689C10.0063 5.43903 10.1938 5.31383 10.4001 5.22842C10.6064 5.14302 10.8275 5.09909 11.0509 5.09915C11.5018 5.09926 11.9343 5.27852 12.2531 5.59749C12.5719 5.91646 12.751 6.34902 12.7508 6.8C12.7507 7.25098 12.5715 7.68345 12.2525 8.00226C11.9335 8.32107 11.501 8.50011 11.05 8.5Z" fill="white"/>
</svg>
