<svg width="13" height="14" viewBox="0 0 13 14" fill="none" xmlns="http://www.w3.org/2000/svg">
<path d="M9.2337 0C11.396 0 12.6 1.246 12.6 3.381V10.612C12.6 12.782 11.396 14 9.2337 14H3.367C1.239 14 0 12.782 0 10.612V3.381C0 1.246 1.239 0 3.367 0H9.2337ZM3.556 9.618C3.346 9.597 3.143 9.695 3.031 9.877C2.919 10.052 2.919 10.283 3.031 10.465C3.143 10.64 3.346 10.745 3.556 10.717H9.044C9.3233 10.689 9.534 10.4503 9.534 10.171C9.534 9.884 9.3233 9.646 9.044 9.618H3.556ZM9.044 6.4253H3.556C3.2543 6.4253 3.01 6.671 3.01 6.972C3.01 7.273 3.2543 7.518 3.556 7.518H9.044C9.345 7.518 9.59 7.273 9.59 6.972C9.59 6.671 9.345 6.4253 9.044 6.4253ZM5.6483 3.255H3.556V3.262C3.2543 3.262 3.01 3.507 3.01 3.808C3.01 4.109 3.2543 4.354 3.556 4.354H5.6483C5.95 4.354 6.195 4.109 6.195 3.8003C6.195 3.5 5.95 3.255 5.6483 3.255Z" fill="#4DB8CA"/>
</svg>
