<svg width="14" height="14" viewBox="0 0 14 14" fill="none" xmlns="http://www.w3.org/2000/svg">
<path d="M0 7C0 10.8585 3.14146 14 7 14C10.8585 14 14 10.8585 14 7C14 3.14146 10.8585 0 7 0C3.14146 0 0 3.14146 0 7ZM3.43171 6.65854C3.73902 6.35122 4.23415 6.35122 4.52439 6.65854L5.53171 7.66585C5.66829 7.80244 5.90732 7.80244 6.0439 7.66585L9.47561 4.23415C9.78293 3.92683 10.278 3.92683 10.5683 4.23415C10.8756 4.54146 10.8756 5.03659 10.5683 5.32683L6.33415 9.56098C6.02683 9.86829 5.53171 9.86829 5.24146 9.56098L3.43171 7.75122C3.12439 7.4439 3.12439 6.96585 3.43171 6.65854Z" fill="#FBFBFB"/>
</svg>
