<svg width="20" height="16" viewBox="0 0 20 16" fill="none" xmlns="http://www.w3.org/2000/svg">
<path d="M13.3333 14.1077C13.3333 14.816 12.7591 15.3902 12.0508 15.3902H1.28252C0.574203 15.3902 0 14.816 0 14.1077C0 13.3994 0.574203 12.8252 1.28252 12.8252H12.0508C12.7591 12.8252 13.3333 13.3994 13.3333 14.1077ZM20 7.69511C20 8.40343 19.4258 8.97763 18.7175 8.97763H1.28252C0.574202 8.97763 0 8.40343 0 7.69511C0 6.9868 0.574203 6.4126 1.28252 6.4126H18.7175C19.4258 6.4126 20 6.9868 20 7.69511ZM13.3333 1.28252C13.3333 1.99083 12.7591 2.56504 12.0508 2.56504H1.28252C0.574203 2.56504 0 1.99083 0 1.28252C0 0.574203 0.574203 0 1.28252 0H12.0508C12.7591 0 13.3333 0.574203 13.3333 1.28252Z" fill="white"/>
</svg>
