<svg width="36" height="36" viewBox="0 0 36 36" fill="none" xmlns="http://www.w3.org/2000/svg">
<rect width="36" height="36" rx="6" fill="#DEFAFF"/>
<path d="M25.9898 24.9533C26.5469 24.9533 27 25.4123 27 25.9766C27 26.5421 26.5469 27 25.9898 27H20.2797C19.7226 27 19.2695 26.5421 19.2695 25.9766C19.2695 25.4123 19.7226 24.9533 20.2797 24.9533H25.9898ZM22.0299 9.69906L23.5049 10.8708C24.1097 11.3438 24.513 11.9673 24.6509 12.623C24.8101 13.3443 24.6403 14.0527 24.1628 14.6654L15.3764 26.0279C14.9732 26.5439 14.3789 26.8341 13.7422 26.8449L10.2404 26.8879C10.0494 26.8879 9.89021 26.7589 9.84777 26.5761L9.0519 23.1255C8.91395 22.4912 9.0519 21.8355 9.45514 21.3303L15.6841 13.268C15.7902 13.139 15.9813 13.1186 16.1086 13.2142L18.7297 15.2997C18.8994 15.4394 19.1329 15.5147 19.377 15.4824C19.8969 15.4179 20.2471 14.9449 20.1941 14.4397C20.1622 14.1817 20.0349 13.9667 19.8651 13.8055C19.812 13.7625 17.3183 11.763 17.3183 11.763C17.1591 11.634 17.1273 11.3975 17.2546 11.2373L18.2415 9.95706C19.1541 8.78534 20.7459 8.67784 22.0299 9.69906Z" fill="#59BDCF"/>
</svg>
