<svg width="20" height="20" viewBox="0 0 20 20" fill="none" xmlns="http://www.w3.org/2000/svg">
<path d="M14.1667 2.91669H5.83335C3.33335 2.91669 1.66669 4.16669 1.66669 7.08335V12.9167C1.66669 15.8334 3.33335 17.0834 5.83335 17.0834H14.1667C16.6667 17.0834 18.3334 15.8334 18.3334 12.9167V7.08335C18.3334 4.16669 16.6667 2.91669 14.1667 2.91669ZM14.5584 7.99169L11.95 10.075C11.4 10.5167 10.7 10.7334 10 10.7334C9.30002 10.7334 8.59169 10.5167 8.05002 10.075L5.44169 7.99169C5.17502 7.77502 5.13335 7.37502 5.34169 7.10835C5.55835 6.84169 5.95002 6.79169 6.21669 7.00835L8.82502 9.09169C9.45835 9.60002 10.5334 9.60002 11.1667 9.09169L13.775 7.00835C14.0417 6.79169 14.4417 6.83335 14.65 7.10835C14.8667 7.37502 14.825 7.77502 14.5584 7.99169Z" fill="#4DB8CA"/>
</svg>
