<svg width="20" height="17" viewBox="0 0 20 17" fill="none" xmlns="http://www.w3.org/2000/svg">
<path fill-rule="evenodd" clip-rule="evenodd" d="M10.0029 0.0527344C14.1387 0.0557343 17.8526 2.95463 19.9385 7.80844C20.0205 7.99744 20.0205 8.21143 19.9385 8.40042C17.8536 13.2552 14.1387 16.1541 10.0029 16.1571H9.99686C5.86102 16.1541 2.14716 13.2552 0.061236 8.40042C-0.019761 8.21143 -0.019761 7.99744 0.061236 7.80844C2.14716 2.95463 5.86202 0.0557343 9.99686 0.0527344H10.0029ZM9.99986 1.55268C6.56399 1.55368 3.43011 3.99659 1.57018 8.10443C3.43011 12.2133 6.56299 14.6562 9.99986 14.6572C13.4367 14.6562 16.5696 12.2133 18.4295 8.10443C16.5696 3.99659 13.4367 1.55368 9.99986 1.55268ZM9.99956 4.19338C12.1565 4.19338 13.9114 5.94831 13.9114 8.10523C13.9114 10.2612 12.1565 12.0151 9.99956 12.0151C7.84264 12.0151 6.08871 10.2612 6.08871 8.10523C6.08871 5.94831 7.84264 4.19338 9.99956 4.19338ZM9.99956 5.69332C8.66961 5.69332 7.58865 6.77528 7.58865 8.10523C7.58865 9.43418 8.66961 10.5151 9.99956 10.5151C11.3295 10.5151 12.4115 9.43418 12.4115 8.10523C12.4115 6.77528 11.3295 5.69332 9.99956 5.69332Z" fill="#B8B8B8"/>
</svg>
