<svg width="73" height="43" viewBox="0 0 73 43" fill="none" xmlns="http://www.w3.org/2000/svg">
<rect x="0.5" y="0.5" width="72" height="42" rx="4.5" stroke="#D3D3D3"/>
<path d="M34.875 34.6083C28.8542 33.5458 24.25 28.3042 24.25 22C24.25 14.9875 29.9875 9.25 37 9.25C44.0125 9.25 49.75 14.9875 49.75 22C49.75 28.3042 45.1458 33.5458 39.125 34.6083L38.4167 34.0417H35.5833L34.875 34.6083Z" fill="url(#paint0_linear_2_1893)"/>
<path d="M41.9583 25.5417L42.525 22H39.125V19.5208C39.125 18.5292 39.4792 17.75 41.0375 17.75H42.6667V14.4917C41.7458 14.35 40.7542 14.2083 39.8333 14.2083C36.9292 14.2083 34.875 15.9792 34.875 19.1667V22H31.6875V25.5417H34.875V34.5375C35.5833 34.6792 36.2917 34.75 37 34.75C37.7083 34.75 38.4167 34.6792 39.125 34.5375V25.5417H41.9583Z" fill="white"/>
<defs>
<linearGradient id="paint0_linear_2_1893" x1="37" y1="33.8674" x2="37" y2="9.25" gradientUnits="userSpaceOnUse">
<stop stop-color="#0062E0"/>
<stop offset="1" stop-color="#19AFFF"/>
</linearGradient>
</defs>
</svg>
