<svg width="13" height="14" viewBox="0 0 13 14" fill="none" xmlns="http://www.w3.org/2000/svg">
<path fill-rule="evenodd" clip-rule="evenodd" d="M12.0134 0.0145639C10.9589 0.0900538 10.0058 0.273828 9.06263 0.583473C6.49045 1.42798 4.26632 3.18815 2.84077 5.50738C2.01974 6.84315 1.47163 8.40776 1.27541 9.97584C1.25214 10.1619 1.23698 10.3181 1.24177 10.3228C1.24657 10.3275 1.36238 10.1814 1.49917 9.99811C1.96095 9.37917 2.60271 8.61018 3.22674 7.92799C3.67988 7.43265 4.54366 6.53014 4.81704 6.26639C5.06382 6.02832 5.08618 6.01339 5.19598 6.01339C5.36499 6.01339 5.47465 6.12558 5.47465 6.29847V6.42366L4.89714 7.01855C2.84631 9.13115 1.6748 10.5874 0.766028 12.1538C0.49675 12.6179 0.0360199 13.5254 0.00584766 13.6511C-0.0324703 13.8106 0.123711 14 0.293551 14C0.450508 14 0.511157 13.9288 0.719814 13.4995C0.957479 13.0105 1.23465 12.5117 1.54524 12.0142L1.769 11.6558L2.14647 11.6371C5.14666 11.4885 8.1008 10.0734 10.1025 7.82588C10.6248 7.23944 11.0145 6.7088 11.4235 6.02728C11.6589 5.63506 11.688 5.54439 11.6235 5.40463C11.5628 5.27304 11.5114 5.26212 10.8854 5.24755L10.2978 5.23387L11.2456 4.70126C11.7669 4.40832 12.2326 4.13084 12.2805 4.08467C12.3791 3.98968 12.4726 3.7203 12.6548 3.00719C12.8436 2.26862 12.9372 1.64621 12.9846 0.816125C13.0184 0.221751 13.0045 0.134254 12.8625 0.0487532C12.7884 0.0041704 12.7274 -0.00302302 12.4567 0.000942934C12.2814 0.00351397 12.0819 0.00964069 12.0134 0.0145639Z" fill="#4DB8CA"/>
</svg>
