<svg width="17" height="12" viewBox="0 0 17 12" fill="none" xmlns="http://www.w3.org/2000/svg">
<path fill-rule="evenodd" clip-rule="evenodd" d="M0.759837 0.039572C0.464444 0.112187 0.220365 0.301369 0.0906038 0.558322L0.0141818 0.709667L0.00710749 4.99273L0 9.27579L0.0659601 9.16237C0.102228 9.09999 0.607823 8.1397 1.18947 7.02841C1.77113 5.91711 2.30508 4.89953 2.37606 4.7671C2.61589 4.31976 3.00886 4.05521 3.52418 3.99422C3.66853 3.97714 5.90891 3.96507 9.04135 3.96452L14.3155 3.96358L14.3055 3.22956C14.296 2.52883 14.2921 2.48936 14.2181 2.35933C14.109 2.16763 13.8996 1.98139 13.701 1.89948L13.5317 1.82962L10.2935 1.82063L7.05524 1.81164L6.45413 1.04877C6.02728 0.507077 5.80994 0.25766 5.70442 0.188526C5.41654 -8.04216e-05 5.39129 -0.00186617 3.03785 0.000373738C1.46799 0.00188719 0.871331 0.0121483 0.759837 0.039572ZM4.1143 4.87314C3.69815 4.9298 3.34351 5.12479 3.12603 5.41649C3.07017 5.49141 2.34972 6.84325 1.52502 8.4206C0.0955192 11.1548 0.0272675 11.2931 0.0614764 11.387C0.132883 11.5828 0.334982 11.7817 0.576703 11.8941L0.804574 12H7.10343H13.4023L13.6554 11.886C14.1022 11.6847 14.0594 11.7494 15.5738 8.98799C16.4332 7.42094 16.9409 6.46186 16.9648 6.36034C17.019 6.12984 17.0114 5.96397 16.9363 5.74249C16.8059 5.35768 16.4729 5.05533 16.0198 4.91034C15.8679 4.86169 15.4572 4.85773 10.0776 4.85307C6.89914 4.85028 4.21567 4.85933 4.1143 4.87314Z" fill="#4DB8CA"/>
</svg>
