<svg width="73" height="43" viewBox="0 0 73 43" fill="none" xmlns="http://www.w3.org/2000/svg">
<path d="M50.1264 22.2916C50.1264 21.2124 50.0371 20.4249 49.8437 19.6083H37.2693V24.4791H44.6502C44.5014 25.6895 43.6979 27.5124 41.9121 28.7374L41.8871 28.9004L45.8629 31.9188L46.1383 31.9458C48.668 29.6562 50.1264 26.2874 50.1264 22.2916Z" fill="#4285F4"/>
<path d="M37.2682 35.1251C40.8842 35.1251 43.9199 33.9584 46.1372 31.9459L41.911 28.7375C40.7801 29.5104 39.2622 30.05 37.2682 30.05C33.7266 30.05 30.7207 27.7605 29.6492 24.5959L29.4921 24.6089L25.358 27.7444L25.304 27.8917C27.5063 32.1792 32.0301 35.1251 37.2682 35.1251Z" fill="#34A853"/>
<path d="M29.65 24.5959C29.3672 23.7792 29.2036 22.9041 29.2036 22C29.2036 21.0958 29.3672 20.2208 29.6351 19.4042L29.6276 19.2303L25.4417 16.0445L25.3048 16.1083C24.3971 17.8875 23.8762 19.8854 23.8762 22C23.8762 24.1146 24.3971 26.1125 25.3048 27.8916L29.65 24.5959Z" fill="#FBBC05"/>
<path d="M37.2683 13.9501C39.7831 13.9501 41.4795 15.0146 42.4468 15.9043L46.2266 12.2876C43.9052 10.173 40.8843 8.87509 37.2683 8.87509C32.0301 8.87509 27.5063 11.8209 25.304 16.1084L29.6343 19.4042C30.7207 16.2397 33.7266 13.9501 37.2683 13.9501Z" fill="#EB4335"/>
<rect x="0.5" y="0.5" width="72" height="42" rx="4.5" stroke="#D3D3D3"/>
</svg>
