<svg width="20" height="20" viewBox="0 0 20 20" fill="none" xmlns="http://www.w3.org/2000/svg">
<path d="M5 15V13.3333H11.6667V15H5ZM5 10.8333V9.16667H15V10.8333H5ZM5 6.66667V5H15V6.66667H5ZM3.33333 20H4.15C5 20 5 20 5 19.1667C5 18.3333 5 18.3333 4.15 18.3333H3.33333C2.28333 18.3333 1.66667 17.7167 1.66667 16.6667V15.85C1.66667 15 1.66667 15 0.833333 15C0 15 0 15 0 15.85V16.6667C0 18.8833 1.11667 20 3.33333 20ZM15.6333 20H16.6667C18.8833 20 20 18.8833 20 16.6667V15.85C20 15 20 15 19.1667 15C18.3333 15 18.3333 15 18.3333 15.85V16.6667C18.3333 17.7167 17.7167 18.3333 16.6667 18.3333H15.85C15 18.3333 15 18.3333 15 19.1667C15 20 15 20 15.6333 20ZM0.833333 5C1.66667 5 1.66667 5 1.66667 4.15V3.33333C1.66667 2.28333 2.28333 1.66667 3.33333 1.66667H4.15C5 1.66667 5 1.66667 5 0.833332C5 -1.90735e-06 5 -1.90735e-06 4.15 -1.90735e-06H3.33333C1.11667 -1.90735e-06 0 1.11666 0 3.33333V4.15C0 5 0 5 0.833333 5ZM19.1667 5C20 5 20 5 20 4.15V3.33333C20 1.11666 18.8833 -1.90735e-06 16.6667 -1.90735e-06H15.85C15 -1.90735e-06 15 -1.90735e-06 15 0.833332C15 1.66667 15 1.66667 15.85 1.66667H16.6667C17.7167 1.66667 18.3333 2.28333 18.3333 3.33333V4.15C18.3333 5 18.3333 5 19.1667 5Z" fill="#4DB8CA"/>
</svg>
