<svg width="12" height="12" viewBox="0 0 12 12" fill="none" xmlns="http://www.w3.org/2000/svg">
<path d="M6.232 7.146V6.948C6.214 6.516 6.349 6.147 6.709 5.733C7.096 5.292 7.483 4.851 7.483 4.194C7.483 3.474 6.97 2.826 5.854 2.826C5.278 2.826 4.765 2.988 4.441 3.195L4.711 3.987C4.936 3.816 5.296 3.717 5.611 3.717C6.115 3.726 6.358 3.978 6.358 4.356C6.358 4.707 6.124 5.022 5.782 5.436C5.359 5.94 5.197 6.435 5.242 6.912L5.251 7.146H6.232ZM5.71 9.099C6.133 9.099 6.403 8.793 6.403 8.397C6.394 7.983 6.124 7.695 5.719 7.695C5.323 7.695 5.035 7.983 5.035 8.397C5.035 8.793 5.314 9.099 5.71 9.099Z" fill="#858585"/>
<circle cx="6" cy="6" r="5.75" stroke="#858585" stroke-width="0.5"/>
</svg>
