<svg width="73" height="43" viewBox="0 0 73 43" fill="none" xmlns="http://www.w3.org/2000/svg">
<rect x="0.5" y="0.5" width="72" height="42" rx="4.5" stroke="#D3D3D3"/>
<rect x="23.875" y="8.875" width="26.25" height="26.25" rx="13.125" fill="#1275B1"/>
<path d="M33.8299 16.0864C33.8299 16.9625 33.0705 17.6728 32.1337 17.6728C31.1969 17.6728 30.4375 16.9625 30.4375 16.0864C30.4375 15.2103 31.1969 14.5 32.1337 14.5C33.0705 14.5 33.8299 15.2103 33.8299 16.0864Z" fill="white"/>
<path d="M30.6695 18.8388H33.5689V27.625H30.6695V18.8388Z" fill="white"/>
<path d="M38.2371 18.8388H35.3376V27.625H38.2371C38.2371 27.625 38.2371 24.859 38.2371 23.1296C38.2371 22.0915 38.5916 21.0489 40.0058 21.0489C41.6041 21.0489 41.5945 22.4074 41.587 23.4598C41.5773 24.8354 41.6005 26.2392 41.6005 27.625H44.5V22.9879C44.4754 20.0269 43.7039 18.6626 41.1656 18.6626C39.6582 18.6626 38.7238 19.3469 38.2371 19.9661V18.8388Z" fill="white"/>
</svg>
