<svg width="26" height="20" viewBox="0 0 26 20" fill="none" xmlns="http://www.w3.org/2000/svg">
<path d="M3.92136 0.000244141C3.92066 0.000244141 3.91989 0.000244141 3.9192 0.000244141C3.67676 0.000244141 3.44874 0.0967605 3.27656 0.272165C3.10248 0.449508 3.00659 0.685643 3.00659 0.937026V14.9839C3.00659 15.499 3.41853 15.9191 3.92498 15.9204C6.06003 15.9256 9.6371 16.3801 12.1048 19.0174V4.31695C12.1048 4.14234 12.0611 3.97831 11.9787 3.84257C9.95332 0.511473 6.06124 0.00535643 3.92136 0.000244141Z" fill="#4DB8CA"/>
<path d="M22.6269 14.9838V0.936782C22.6269 0.685399 22.531 0.449264 22.3569 0.271921C22.1848 0.0965164 21.9566 0 21.7144 0C21.7136 0 21.7128 0 21.7121 0C19.5723 0.00520043 15.6803 0.511317 13.6548 3.84241C13.5724 3.97815 13.5288 4.14219 13.5288 4.3168V19.0172C15.9965 16.3799 19.5735 15.9254 21.7086 15.9202C22.215 15.9189 22.6269 15.4988 22.6269 14.9838Z" fill="#4DB8CA"/>
<path d="M24.7154 3.23962H24.0503V14.9839C24.0503 16.299 23.0011 17.3715 21.7113 17.3747C19.9004 17.3791 16.9143 17.7408 14.7996 19.7849C18.4571 18.8703 22.3127 19.4649 24.5101 19.9763C24.7845 20.0401 25.068 19.9742 25.2878 19.7952C25.5068 19.6167 25.6325 19.3499 25.6325 19.0636V4.17623C25.6326 3.6598 25.2211 3.23962 24.7154 3.23962Z" fill="#4DB8CA"/>
<path d="M1.58217 14.9839V3.23962H0.917093C0.41151 3.23962 0 3.6598 0 4.17623V19.0633C0 19.3498 0.125662 19.6165 0.344708 19.795C0.564359 19.9738 0.847617 20.04 1.12242 19.976C3.31978 19.4645 7.17553 18.8701 10.8329 19.7847C8.71817 17.7406 5.73214 17.3791 3.92117 17.3747C2.63149 17.3715 1.58217 16.299 1.58217 14.9839Z" fill="#4DB8CA"/>
</svg>
