<svg width="16" height="19" viewBox="0 0 16 19" fill="none" xmlns="http://www.w3.org/2000/svg">
<path d="M6.08299 16.3665C6.5535 16.2661 9.4205 16.2661 9.891 16.3665C10.2932 16.4603 10.7282 16.6794 10.7282 17.1578C10.7048 17.6132 10.4401 18.017 10.0743 18.2734C9.60009 18.6466 9.04353 18.8829 8.46171 18.9681C8.13994 19.0102 7.82377 19.0111 7.51322 18.9681C6.93046 18.8829 6.3739 18.6466 5.90059 18.2725C5.53391 18.017 5.2692 17.6132 5.24581 17.1578C5.24581 16.6794 5.68077 16.4603 6.08299 16.3665ZM8.04256 0C10.0004 0 12.0002 0.937668 13.1882 2.49343C13.959 3.49521 14.3125 4.49602 14.3125 6.05178V6.45651C14.3125 7.64965 14.625 8.3529 15.3125 9.16331C15.8335 9.76036 16 10.5268 16 11.3582C16 12.1887 15.7297 12.9771 15.1881 13.6172C14.479 14.3846 13.4791 14.8745 12.4586 14.9596C10.9797 15.0869 9.49991 15.194 8.00047 15.194C6.50009 15.194 5.02122 15.1299 3.54236 14.9596C2.5209 14.8745 1.52096 14.3846 0.812862 13.6172C0.271266 12.9771 0 12.1887 0 11.3582C0 10.5268 0.167436 9.76036 0.687518 9.16331C1.39655 8.3529 1.6884 7.64965 1.6884 6.45651V6.05178C1.6884 4.45392 2.08313 3.40909 2.896 2.38627C4.10453 0.894612 6.04174 0 7.95837 0H8.04256Z" fill="#4DB8CA"/>
</svg>
