<svg width="14" height="11" viewBox="0 0 14 11" fill="none" xmlns="http://www.w3.org/2000/svg">
<path fill-rule="evenodd" clip-rule="evenodd" d="M2.09191 0.00301083C2.07687 0.00715079 2.03096 0.0181625 1.98986 0.0274844C1.87917 0.0526058 1.73225 0.199081 1.68282 0.333616C1.64366 0.440185 1.64005 0.850068 1.64686 4.44147L1.6544 8.43098L1.73934 8.53918C1.89 8.73117 1.95423 8.75353 2.42168 8.77682C2.90609 8.80098 3.04021 8.81529 3.48647 8.89037C4.68896 9.09267 5.73121 9.5987 6.4875 10.3473L6.61738 10.4759L6.61673 6.42147C6.61637 4.19155 6.60535 2.3195 6.59226 2.2614C6.52723 1.97304 5.8844 1.23987 5.41424 0.917829C4.71669 0.440044 3.82677 0.131744 2.89857 0.0463537C2.54457 0.0137691 2.13315 -0.00833885 2.09191 0.00301083ZM11.4436 0.0164446C10.2952 0.0869929 9.3797 0.376058 8.58502 0.91904C8.11664 1.23908 7.47318 1.97304 7.40815 2.2614C7.39506 2.3195 7.38404 4.1907 7.38368 6.41958L7.38302 10.4721L7.52658 10.3332C8.30614 9.57921 9.31457 9.09216 10.5139 8.89037C10.9602 8.81529 11.0943 8.80098 11.5787 8.77682C12.0462 8.75353 12.1104 8.73117 12.2611 8.53918L12.346 8.43098L12.3541 4.45555C12.3598 1.68347 12.3534 0.448577 12.3329 0.375804C12.2983 0.252845 12.1908 0.113241 12.0898 0.0600128C11.9805 0.00244763 11.8333 -0.00749393 11.4436 0.0164446ZM0.287193 1.8427C0.157089 1.90424 0.098791 1.96704 0.0421337 2.10667C0.0049182 2.1984 7.82714e-05 2.69286 7.82714e-05 6.39437C7.82714e-05 10.9386 -0.00817969 10.6846 0.144948 10.8534C0.293564 11.0174 0.453582 11.0374 0.88111 10.9453C2.51424 10.5934 4.22922 10.5457 5.53639 10.8159C5.71636 10.8531 5.86763 10.8794 5.87256 10.8743C5.8906 10.8558 5.61265 10.6227 5.38689 10.467C4.82152 10.0773 4.08944 9.80091 3.24715 9.65908C3.11554 9.63692 2.7464 9.60076 2.42683 9.57873C2.06946 9.55412 1.80119 9.52215 1.72985 9.49571C1.349 9.35456 1.04684 9.03082 0.928798 8.63741C0.876707 8.46379 0.875094 8.3586 0.875094 5.12408V1.78973L0.635832 1.79035C0.462606 1.7908 0.366382 1.80524 0.287193 1.8427ZM13.1253 5.12408C13.1253 8.3586 13.1237 8.46379 13.0716 8.63741C12.9536 9.03074 12.652 9.35391 12.2706 9.49591C12.1988 9.5226 11.9358 9.55398 11.5804 9.57823C11.2645 9.59977 10.92 9.63114 10.8147 9.64793C9.9682 9.78289 9.18162 10.0754 8.61477 10.4662C8.38798 10.6225 8.10978 10.8557 8.12785 10.8743C8.13278 10.8794 8.28404 10.8531 8.46402 10.8159C9.77119 10.5457 11.4862 10.5934 13.1193 10.9453C13.5468 11.0374 13.7068 11.0174 13.8555 10.8534C14.0086 10.6845 14.0004 10.9394 13.9997 6.38823C13.9992 2.38259 13.9969 2.19313 13.9489 2.08544C13.851 1.86585 13.6991 1.78973 13.3586 1.78973H13.1253V5.12408Z" fill="#4DB8CA"/>
</svg>
