<svg width="24" height="24" viewBox="0 0 24 24" fill="none" xmlns="http://www.w3.org/2000/svg">
<path fill-rule="evenodd" clip-rule="evenodd" d="M13.9754 2.00037C14.0184 2.00037 14.0605 2.00398 14.1015 2.01093L14.2383 2.01177C14.4423 2.01177 14.6373 2.09477 14.7793 2.24177L19.8443 7.51877C19.9783 7.65777 20.0535 7.84477 20.0535 8.03777V17.2038C20.0713 19.7128 18.1173 21.7628 15.6043 21.8648L7.58534 21.8658H7.47634C5.0264 21.8104 3.06151 19.829 3.00164 17.4029L3.00134 6.49077C3.05934 4.00977 5.10834 2.01177 7.57134 2.01177L13.8494 2.01093C13.8904 2.00398 13.9325 2.00037 13.9754 2.00037ZM13.2253 3.51137L7.57334 3.51177C5.91634 3.51177 4.54034 4.85377 4.50134 6.50877V17.2038C4.46434 18.9168 5.81434 20.3278 7.51034 20.3658H15.5743C17.2433 20.2968 18.5653 18.9098 18.5534 17.2098L18.5533 8.98337L16.5434 8.98437C14.7134 8.97937 13.2254 7.48737 13.2254 5.65937L13.2253 3.51137ZM13.7886 14.6085C14.2026 14.6085 14.5386 14.9445 14.5386 15.3585C14.5386 15.7725 14.2026 16.1085 13.7886 16.1085H8.38864C7.97464 16.1085 7.63864 15.7725 7.63864 15.3585C7.63864 14.9445 7.97464 14.6085 8.38864 14.6085H13.7886ZM11.7437 10.8565C12.1577 10.8565 12.4937 11.1925 12.4937 11.6065C12.4937 12.0205 12.1577 12.3565 11.7437 12.3565H8.38774C7.97374 12.3565 7.63774 12.0205 7.63774 11.6065C7.63774 11.1925 7.97374 10.8565 8.38774 10.8565H11.7437ZM14.7253 4.35237L14.7254 5.65937C14.7254 6.66337 15.5424 7.48137 16.5454 7.48437L17.7313 7.48337L14.7253 4.35237Z" fill="#4DB8CA"/>
</svg>
