<svg width="14" height="14" viewBox="0 0 14 14" fill="none" xmlns="http://www.w3.org/2000/svg">
<path fill-rule="evenodd" clip-rule="evenodd" d="M9.46841 0.0253036C9.37016 0.069584 9.20117 0.257522 9.12271 0.409806C8.96071 0.72426 8.9331 1.13352 9.05299 1.44356L9.12348 1.62586L7.08039 3.37922L5.0373 5.13261L4.93976 5.05645C4.56528 4.76415 4.0294 4.63884 3.56885 4.73584C3.14713 4.82467 2.63283 5.16317 2.58616 5.3826C2.53947 5.60214 2.5249 5.5844 3.79899 6.85872C4.45561 7.51548 4.99283 8.06448 4.99283 8.07878C4.99283 8.09304 4.36688 8.73378 3.60182 9.50262C1.82858 11.2846 1.54268 11.6002 0.221283 13.2339C0.121303 13.3575 0.02743 13.5023 0.0126972 13.5557C-0.0633489 13.8311 0.216245 14.0831 0.476834 13.974C0.566955 13.9362 1.28223 13.3669 1.97035 12.7852C2.66613 12.1969 3.24262 11.6534 4.56249 10.3412L5.92579 8.98577L7.07198 10.1317L8.21818 11.2777L8.35702 11.291C8.52828 11.3075 8.6063 11.2632 8.7812 11.0503C9.03634 10.7397 9.16316 10.3858 9.16368 9.98316C9.16417 9.58855 9.0675 9.2867 8.83682 8.96263L8.7439 8.83209L10.4762 6.81483C11.429 5.70533 12.2167 4.78549 12.2266 4.77073C12.2376 4.75435 12.3018 4.76892 12.3909 4.80797C12.5714 4.88706 12.9765 4.9148 13.1748 4.8617C13.4868 4.77815 13.8104 4.54193 13.8602 4.3615C13.9229 4.13454 13.9904 4.21162 11.8709 2.08781C10.7915 1.00615 9.87622 0.0977624 9.83698 0.0691732C9.74001 -0.00147825 9.57217 -0.0214414 9.46841 0.0253036Z" fill="#4DB8CA"/>
</svg>
