<svg width="39" height="40" viewBox="0 0 39 40" fill="none" xmlns="http://www.w3.org/2000/svg">
<rect width="39" height="40" rx="10" fill="url(#paint0_linear_320_13)"/>
<path fill-rule="evenodd" clip-rule="evenodd" d="M9.90669 25.9044C9.90669 27.9058 11.5356 29.5346 13.5382 29.5346H15.0429C15.5469 29.5346 15.9559 29.9437 15.9559 30.4477C15.9559 30.9517 15.5469 31.3607 15.0429 31.3607H13.5382C10.5288 31.3607 8.0806 28.9125 8.0806 25.9044L8.0795 21.857L6.71724 21.8581C6.21324 21.8581 5.8042 21.4491 5.8042 20.9451C5.8042 20.4411 6.21324 20.032 6.71724 20.032L8.97622 20.0306C8.98201 20.0305 8.98782 20.0305 8.99364 20.0305L9.01081 20.0309L29.9875 20.0306C29.9936 20.0305 29.9998 20.0305 30.0059 20.0305L30.023 20.0309L32.2825 20.032C32.7865 20.032 33.1955 20.4411 33.1955 20.9451C33.1955 21.4491 32.7865 21.8581 32.2825 21.8581L30.919 21.857V25.9044C30.919 28.9125 28.4708 31.3607 25.4614 31.3607H23.9945C23.4905 31.3607 23.0814 30.9517 23.0814 30.4477C23.0814 29.9437 23.4905 29.5346 23.9945 29.5346H25.4614C27.464 29.5346 29.0929 27.9058 29.0929 25.9044V21.857H9.90559L9.90669 25.9044ZM25.4613 8.52173C28.4707 8.52173 30.9189 10.9699 30.9189 13.9769V15.82C30.9189 16.324 30.5098 16.733 30.0058 16.733C29.5018 16.733 29.0928 16.324 29.0928 15.82V13.9769C29.0928 11.9767 27.4639 10.3478 25.4613 10.3478H23.9943C23.4903 10.3478 23.0813 9.93877 23.0813 9.43477C23.0813 8.93077 23.4903 8.52173 23.9943 8.52173H25.4613ZM15.0431 8.52173C15.5471 8.52173 15.9561 8.93077 15.9561 9.43477C15.9561 9.93877 15.5471 10.3478 15.0431 10.3478H13.5384C11.5358 10.3478 9.90693 11.9767 9.90693 13.9769V15.82C9.90693 16.324 9.49789 16.733 8.99389 16.733C8.48989 16.733 8.08084 16.324 8.08084 15.82V13.9769C8.08084 10.9699 10.529 8.52173 13.5384 8.52173H15.0431Z" fill="white"/>
<defs>
<linearGradient id="paint0_linear_320_13" x1="7.384" y1="-1.01053" x2="31.0334" y2="61.6209" gradientUnits="userSpaceOnUse">
<stop stop-color="#4399AC"/>
<stop offset="1" stop-color="#93D8E8"/>
</linearGradient>
</defs>
</svg>
