<svg width="19" height="19" viewBox="0 0 19 19" fill="none" xmlns="http://www.w3.org/2000/svg">
<path d="M14.8397 14.8716C15.2069 14.5069 15.7955 14.5069 16.1627 14.8716L18.5896 16.8306H18.6318C19.1227 17.3269 19.1227 18.1315 18.6318 18.6278C18.1408 19.1241 17.3447 19.1241 16.8537 18.6278L14.8397 16.3195L14.7632 16.2333C14.6209 16.0531 14.5422 15.8284 14.5422 15.5956C14.5422 15.3239 14.6493 15.0634 14.8397 14.8716ZM8.14876 0C10.3099 0 12.3826 0.867764 13.9108 2.41239C15.439 3.95702 16.2975 6.05199 16.2975 8.23643C16.2975 12.7853 12.6492 16.4729 8.14876 16.4729C3.64832 16.4729 0 12.7853 0 8.23643C0 3.68757 3.64832 0 8.14876 0Z" fill="#4DB8CA"/>
</svg>
