<svg width="19" height="20" viewBox="0 0 19 20" fill="none" xmlns="http://www.w3.org/2000/svg">
<path fill-rule="evenodd" clip-rule="evenodd" d="M9.91006 0C10.6011 0 11.2729 0.28377 11.7546 0.77699C12.2352 1.2731 12.5007 1.95357 12.4804 2.64369C12.4823 2.79909 12.5335 2.97862 12.6261 3.13595C12.7796 3.39655 13.0219 3.57994 13.3095 3.65523C13.5971 3.72665 13.8983 3.68805 14.1541 3.53651C15.3895 2.83094 16.9618 3.2537 17.6674 4.47951L18.2687 5.52097C18.2842 5.54896 18.2977 5.57599 18.3093 5.60398C18.9482 6.81145 18.5216 8.33164 17.3344 9.02563C17.1616 9.12504 17.0217 9.26403 16.9252 9.43198C16.7756 9.69162 16.7341 10.0005 16.8093 10.2843C16.8866 10.5738 17.0709 10.8141 17.3306 10.9628C17.9164 11.2996 18.3537 11.8672 18.5284 12.5226C18.7031 13.177 18.6075 13.8874 18.2668 14.4732L17.6259 15.5408C16.9203 16.7531 15.348 17.1729 14.1251 16.4664C13.962 16.3728 13.7738 16.3216 13.5865 16.3168H13.5807C13.3018 16.3168 13.0151 16.4355 12.8066 16.643C12.5953 16.8544 12.4794 17.1362 12.4814 17.4355C12.4746 18.8533 11.3212 20 9.91006 20H8.70066C7.28278 20 6.12936 18.8475 6.12936 17.4297C6.12743 17.255 6.07723 17.0735 5.98361 16.9162C5.83207 16.6517 5.58691 16.4625 5.30411 16.3872C5.02323 16.312 4.71533 16.3535 4.46245 16.5002C3.8563 16.838 3.14301 16.92 2.49054 16.7366C1.83902 16.5523 1.27631 16.1044 0.946209 15.5108L0.342956 14.4713C-0.362608 13.2474 0.0572557 11.679 1.2792 10.9724C1.62571 10.7726 1.84095 10.4001 1.84095 10.0005C1.84095 9.60089 1.62571 9.22735 1.2792 9.02756C0.0562905 8.31717 -0.362608 6.74485 0.341991 5.52097L0.9964 4.4467C1.69231 3.23633 3.26559 2.80971 4.49237 3.51431C4.65935 3.61373 4.84081 3.66392 5.02516 3.66585C5.62648 3.66585 6.12936 3.16973 6.13901 2.55972C6.13515 1.88697 6.40058 1.24125 6.88415 0.753825C7.36964 0.267362 8.0144 0 8.70066 0H9.91006ZM9.91006 1.44781H8.70066C8.40145 1.44781 8.12154 1.5646 7.91016 1.77501C7.69974 1.98639 7.58488 2.26726 7.58681 2.56648C7.56655 3.97761 6.41313 5.11365 5.01648 5.11365C4.56862 5.10883 4.13717 4.98818 3.76268 4.76425C3.23664 4.46504 2.54941 4.64939 2.24151 5.18508L1.58807 6.25935C1.28886 6.77863 1.47225 7.46489 2.00504 7.77472C2.79554 8.23223 3.28876 9.08547 3.28876 10.0005C3.28876 10.9155 2.79554 11.7678 2.00311 12.2262C1.47321 12.5332 1.28982 13.2156 1.59676 13.7464L2.2058 14.7966C2.35637 15.0678 2.6025 15.2637 2.88723 15.3439C3.171 15.423 3.48373 15.3892 3.74434 15.2444C4.12752 15.0195 4.57345 14.9028 5.0213 14.9028C5.24233 14.9028 5.46337 14.9307 5.67957 14.9887C6.33205 15.1643 6.89862 15.6006 7.23451 16.1865C7.45265 16.5542 7.5733 16.9837 7.57716 17.4219C7.57716 18.0493 8.081 18.5522 8.70066 18.5522H9.91006C10.5268 18.5522 11.0307 18.0522 11.0336 17.4355C11.0297 16.754 11.2961 16.1064 11.7835 15.6189C12.2642 15.1383 12.936 14.8497 13.6078 14.869C14.0479 14.8796 14.4716 14.9983 14.8452 15.2107C15.3828 15.5186 16.069 15.3352 16.3798 14.8043L17.0207 13.7358C17.1636 13.4897 17.2051 13.1808 17.1288 12.8961C17.0535 12.6114 16.8644 12.3643 16.6095 12.2185C16.013 11.8749 15.5874 11.3209 15.4108 10.6568C15.2361 10.0053 15.3316 9.29395 15.6723 8.70807C15.8943 8.32199 16.2196 7.99672 16.6095 7.77279C17.1327 7.46682 17.3161 6.78249 17.012 6.2497C16.9995 6.22846 16.9879 6.20626 16.9783 6.1831L16.4126 5.20245C16.1047 4.66676 15.4194 4.48241 14.8818 4.78838C14.3008 5.13199 13.6097 5.23044 12.9456 5.05574C12.2825 4.88393 11.7266 4.46407 11.3801 3.87143C11.1581 3.5008 11.0374 3.06935 11.0336 2.63018C11.0422 2.30008 10.9264 2.00376 10.716 1.78659C10.5066 1.57039 10.2122 1.44781 9.91006 1.44781ZM9.30961 6.73143C11.1116 6.73143 12.5778 8.19854 12.5778 10.0006C12.5778 11.8026 11.1116 13.2678 9.30961 13.2678C7.50757 13.2678 6.04143 11.8026 6.04143 10.0006C6.04143 8.19854 7.50757 6.73143 9.30961 6.73143ZM9.30961 8.17924C8.30579 8.17924 7.48923 8.99677 7.48923 10.0006C7.48923 11.0044 8.30579 11.82 9.30961 11.82C10.3134 11.82 11.13 11.0044 11.13 10.0006C11.13 8.99677 10.3134 8.17924 9.30961 8.17924Z" fill="white"/>
</svg>
