<svg width="20" height="20" viewBox="0 0 20 20" fill="none" xmlns="http://www.w3.org/2000/svg">
<path fill-rule="evenodd" clip-rule="evenodd" d="M9.03093 12.1208L12.7818 18.2061C12.9459 18.4728 13.2023 18.4697 13.3059 18.4553C13.4095 18.441 13.6587 18.3774 13.749 18.0748L18.4394 2.23342C18.5214 1.95341 18.3706 1.76263 18.303 1.69494C18.2373 1.62725 18.0496 1.48263 17.7778 1.55955L1.92512 6.20172C1.6246 6.28992 1.55896 6.54224 1.5446 6.64583C1.53024 6.75147 1.52613 7.01302 1.79178 7.1802L7.9468 11.0295L13.3849 5.53401C13.6834 5.23246 14.1705 5.22939 14.4731 5.52785C14.7757 5.82632 14.7777 6.31454 14.4793 6.61609L9.03093 12.1208ZM13.2259 20C12.512 20 11.8577 19.6369 11.472 19.0133L7.49551 12.5608L0.976378 8.48382C0.273796 8.04381 -0.0933921 7.2602 0.0204569 6.43659C0.13328 5.61298 0.698422 4.95861 1.49229 4.72578L17.345 0.08362C18.0742 -0.129719 18.8558 0.0723376 19.3932 0.607735C19.9307 1.14826 20.1307 1.93802 19.9132 2.67035L15.2229 18.5107C14.988 19.3077 14.3316 19.8708 13.51 19.9805C13.4136 19.9928 13.3203 20 13.2259 20Z" fill="white"/>
</svg>
